<svg version="1.0" xmlns="http://www.w3.org/2000/svg" width="1237.333" height="1237.333" viewBox="0 0 928 928"><path d="M887.8 64.5c-.2.2-5.5.6-11.8.9-13.5.7-24.1 1.4-32.5 2.2-3.3.3-8.2.7-11 .9-7.8.6-19.9 1.9-28.7 3-2.3.3-6.3.8-8.8 1.1-2.5.3-5.6.7-7 .9-1.4.3-4.2.7-6.2 1-3.5.5-6.9 1-14.3 2.1-1.6.3-4.3.6-5.8.9-1.6.2-4 .6-5.5.9-1.5.3-4 .8-5.7 1.1-6.9 1.2-22 4-26.5 5-1.4.3-3.6.7-5 1-1.4.2-6.8 1.4-12 2.5-5.2 1.2-10.8 2.4-12.5 2.7-1.6.3-3.8.9-4.7 1.4-.9.5-2.1.9-2.5.8-.4-.1-1 0-1.3.1-.3.1-1.2.3-2 .5-12.1 2.7-37.3 9.6-39.5 10.7-1.1.6-2.1 1-2.3.9-.5-.5-6.7 1.2-7.9 2.1-.7.6-1.3.8-1.3.5 0-.4-1.9.1-4.2.9-2.4.9-4.7 1.7-5.3 1.8-.5.1-1.6.5-2.2.9-.7.5-1.3.6-1.3.3 0-.2-2.9.6-6.4 1.9-3.5 1.3-6.7 2.1-7 1.7-.3-.3-.6.1-.6.8 0 .7-.3 1.1-.6.8-.3-.4-3.6.5-7.2 1.8-3.7 1.4-7.1 2.6-7.7 2.7-.9.2-5.6 1.9-10 3.7-1.1.4-4.9 1.8-8.5 3.1-3.6 1.2-6.9 2.6-7.4 3.1-.6.4-1.7.8-2.5.8-.9 0-2.7.6-4.1 1.3-1.4.8-5.9 2.6-10 4.2s-8.6 3.4-10 4.2c-1.4.7-2.8 1.3-3.1 1.3-.4 0-3.3 1.2-6.5 2.7-3.3 1.5-6.1 2.8-6.4 2.9-.3 0-1.8.7-3.5 1.4-1.6.7-3.2 1.4-3.5 1.5-.3 0-4.3 1.9-9 4.2-4.7 2.2-11.6 5.5-15.5 7.3-3.8 1.8-7.3 3.8-7.7 4.4-.4.6-.8.8-.8.4 0-.6-11.2 5-30.5 15.2-4.4 2.3-8.3 4.7-8.7 5.4-.4.6-.8.8-.8.4 0-.3-3.9 1.7-8.8 4.4-4.8 2.8-9.7 5.6-10.9 6.2-1.3.6-2.3 1.4-2.3 1.8 0 .5-.6.8-1.3.8-.8 0-3.6 1.6-6.3 3.5-2.7 1.9-5.2 3.5-5.6 3.5-.7 0-13.6 8.2-15.5 9.9-.7.6-1.5 1.1-1.8 1.1-.6 0-14.2 8.8-16.2 10.5-.7.5-4.8 3.5-9.3 6.5-11.6 7.9-32.4 23.2-32.8 24.2-.2.4-.8.8-1.3.8s-1.9.9-3.1 1.9c-1.3 1.1-7.9 6.4-14.8 12-16.5 13.2-21.4 17.3-28 23.2-3 2.6-6.6 5.8-8 6.9-12.2 10.3-52 49.5-52 51.2 0 .6-.3.9-.6.6-.3-.3-2.4 1.5-4.7 4-2.3 2.6-5.5 6.1-7.2 7.8-2.6 2.7-8.8 9.8-15.8 17.8-3.9 4.5-5.5 6.5-13.7 16.6-4.7 5.8-8.8 10.7-9.1 11-.3.3-3.4 4.3-7 9-3.5 4.7-6.7 8.9-7.1 9.5-.5.5-2.6 3.3-4.8 6.1-2.2 2.9-4 5.6-4 6.2 0 .6-.4 1.2-.8 1.4-.4.1-2.3 2.5-4.2 5.3-1.9 2.7-3.7 5.2-4 5.5-1.4 1.4-7 10.2-7 10.9 0 .5-.4 1.1-.8 1.3-.5.1-2.9 3.4-5.3 7.3-2.3 3.8-4.6 7.2-4.9 7.5-.6.5-14.5 23.4-18.2 30-1.1 1.9-3.2 5.5-4.6 8-1.4 2.5-3.2 5.6-4.1 7-.8 1.4-1.6 3-1.7 3.7-.1.7-1.1 2.5-2.1 4-1.1 1.5-3.8 6.6-6.2 11.3-2.3 4.7-4.6 9.2-5.1 10-1.8 3.2-8.2 16.5-8.2 17 0 .3-1.5 3.6-3.3 7.5-6.8 14.6-9.4 20.5-8.8 20.5.3 0 .1.6-.5 1.2-.6.7-2.5 4.9-4.2 9.3-1.8 4.4-3.7 9.1-4.3 10.5-.6 1.4-1.1 2.8-1.2 3.2-.2.5-.4 1-.5 1.3-.1.3-.3.8-.5 1.2-.1.5-.4 1.5-.8 2.3-1.6 4.1-8.7 24.2-10.1 29-1 3-2.1 6.4-2.6 7.5-1.3 3.1-11.6 38.7-12.5 43.5-.2.8-.4 1.6-.5 1.7-.3.3-.4.7-1.3 5.3-.4 1.9-.7 3.7-.6 4 0 .3-.4 1.8-1 3.3-.6 1.5-1.3 4.2-1.6 6-.3 1.8-.8 4-1.1 4.9-.3.9-.7 2.7-.9 4-.3 1.3-1.2 5.9-2.1 10.3-.9 4.4-1.8 8.7-1.9 9.5-.2.8-.4 1.7-.5 2-.1.3-.2.8-.1 1.2 0 .3-.6 3.9-1.4 8-.7 4-1.6 9.1-1.9 11.3-.3 2.2-.7 5.1-1 6.5-.6 3.3-1.5 10.3-2.2 16.5-.3 2.7-.7 6.1-1 7.5-.3 1.4-.7 7-1 12.5-.5 8.7-.3 10.7 1.6 15.8 2.6 7 9.9 14.8 16.7 18l4.8 2.2 184 .3c101.2.2 186.3 0 189.1-.3 10.1-1.2 23.4-12.2 25.1-20.7.3-1.5 1-2.8 1.6-2.8.6 0 .8-.3.4-.6-.3-.3.3-2.9 1.3-5.8.9-2.8 2-7.4 2.4-10.1.3-2.8.8-6.8 1.1-9 .3-2.2.8-5.4 1-7 .2-1.7.4-3 .5-3 .1 0 .3-1.1.4-2.5.2-1.4.6-4.3 1.1-6.5.5-2.2.9-4.7 1.1-5.5 1.1-6 1.7-8.7 3.8-17 1-3.6 1.7-7.2 1.8-8 0-.8.5-2.1 1.1-2.8.5-.6.6-1.2.3-1.2-.4 0-.2-.8.3-1.8.6-1.1 1.2-3 1.5-4.3.4-2 4.4-14.2 6.3-18.9.4-.8.7-1.7.7-2 .2-1 3.8-9.2 8.3-18.9 2.3-5.1 4.3-9.7 4.3-10.2s.5-.9 1-.9c.6 0 1-.7 1-1.5s2.1-4.9 4.6-9.2c2.6-4.3 5.4-9.2 6.4-10.8 5-8.6 6.5-11 7.1-11.5.3-.3 1.8-2.3 3.2-4.5 3.6-5.6 10.9-15.9 11.6-16.5.3-.3 2.6-3.2 5.1-6.5 5.3-7 23.8-29.3 28.9-34.9 13.3-14.3 39.5-39 49.6-46.7 1.7-1.3 3.2-2.6 3.5-3 .3-.4 2.8-2.4 5.5-4.5 2.8-2.1 5.5-4.2 6.2-4.8 2.4-2.2 3.9-3.3 13.3-9.9 5.2-3.6 10-7 10.5-7.4 1.3-1 6.5-4.5 8.7-5.8.9-.5 5-3 9-5.5 10-6.1 9.6-5.9 19.5-11.4 7.3-4.1 34.9-18.4 35.6-18.5.1 0 3.8-1.6 8.2-3.6 13.8-6.4 32.8-13.8 43.5-17 .3-.1 1.2-.5 2-.8.8-.3 4-1.4 7-2.3 3-.9 7.4-2.3 9.8-3 2.3-.8 5.1-1.4 6.2-1.4 1 0 2.2-.5 2.5-1 .4-.6 1-.8 1.5-.5.5.3 2.8-.1 5.2-.9 2.4-.8 6.1-1.7 8.3-2.2 2.2-.4 4.5-.8 5-.9.6-.2 2.4-.5 4-.8 1.7-.3 4.1-.8 5.5-1.1 6.2-1.2 22.3-3.7 26.2-4.1 2.4-.3 6.3-.7 8.8-.9 2.5-.3 6.8-.8 9.5-1.1 7-.7 17.2-1.5 29.5-2 17.8-.8 25-1.9 32-4.9 5.7-2.3 12.6-9.2 15.7-15.4l2.8-5.7V255c0-96.7-.4-167.3-.9-168.5-.5-1.1-1-2.5-1.2-3.2-.4-2.1-4.6-7.7-8.1-10.9-6.2-5.6-11.9-7.8-21-8-4.5-.1-8.3-.1-8.5.1z"/></svg>