<?xml version="1.0" standalone="no"?>
<!DOCTYPE svg PUBLIC "-//W3C//DTD SVG 20010904//EN"
 "http://www.w3.org/TR/2001/REC-SVG-20010904/DTD/svg10.dtd">
<svg version="1.0" xmlns="http://www.w3.org/2000/svg"
 width="928.000000pt" height="928.000000pt" viewBox="0 0 928.000000 928.000000"
 preserveAspectRatio="xMidYMid meet">
<metadata>
Created by potrace 1.11, written by Peter Selinger 2001-2013
</metadata>
<g transform="translate(0.000000,928.000000) scale(0.100000,-0.100000)"
fill="#000000" stroke="none">
<path d="M8878 8635 c-2 -2 -55 -6 -118 -9 -135 -7 -241 -14 -325 -22 -33 -3
-82 -7 -110 -9 -78 -6 -199 -19 -287 -30 -23 -3 -63 -8 -88 -11 -25 -3 -56 -7
-70 -9 -14 -3 -42 -7 -62 -10 -35 -5 -69 -10 -143 -21 -16 -3 -43 -6 -58 -9
-16 -2 -40 -6 -55 -9 -15 -3 -40 -8 -57 -11 -69 -12 -220 -40 -265 -50 -14 -3
-36 -7 -50 -10 -14 -2 -68 -14 -120 -25 -52 -12 -108 -24 -125 -27 -16 -3 -38
-9 -47 -14 -9 -5 -21 -9 -25 -8 -4 1 -10 0 -13 -1 -3 -1 -12 -3 -20 -5 -121
-27 -373 -96 -395 -107 -11 -6 -21 -10 -23 -9 -5 5 -67 -12 -79 -21 -7 -6 -13
-8 -13 -5 0 4 -19 -1 -42 -9 -24 -9 -47 -17 -53 -18 -5 -1 -16 -5 -22 -9 -7
-5 -13 -6 -13 -3 0 2 -29 -6 -64 -19 -35 -13 -67 -21 -70 -17 -3 3 -6 -1 -6
-8 0 -7 -3 -11 -6 -8 -3 4 -36 -5 -72 -18 -37 -14 -71 -26 -77 -27 -9 -2 -56
-19 -100 -37 -11 -4 -49 -18 -85 -31 -36 -12 -69 -26 -74 -31 -6 -4 -17 -8
-25 -8 -9 0 -27 -6 -41 -13 -14 -8 -59 -26 -100 -42 -41 -16 -86 -34 -100 -42
-14 -7 -28 -13 -31 -13 -4 0 -33 -12 -65 -27 -33 -15 -61 -28 -64 -29 -3 0
-18 -7 -35 -14 -16 -7 -32 -14 -35 -15 -3 0 -43 -19 -90 -42 -47 -22 -116 -55
-155 -73 -38 -18 -73 -38 -77 -44 -4 -6 -8 -8 -8 -4 0 6 -112 -50 -305 -152
-44 -23 -83 -47 -87 -54 -4 -6 -8 -8 -8 -4 0 3 -39 -17 -88 -44 -48 -28 -97
-56 -109 -62 -13 -6 -23 -14 -23 -18 0 -5 -6 -8 -13 -8 -8 0 -36 -16 -63 -35
-27 -19 -52 -35 -56 -35 -7 0 -136 -82 -155 -99 -7 -6 -15 -11 -18 -11 -6 0
-142 -88 -162 -105 -7 -5 -48 -35 -93 -65 -116 -79 -324 -232 -328 -242 -2 -4
-8 -8 -13 -8 -5 0 -19 -9 -31 -19 -13 -11 -79 -64 -148 -120 -165 -132 -214
-173 -280 -232 -30 -26 -66 -58 -80 -69 -122 -103 -520 -495 -520 -512 0 -6
-3 -9 -6 -6 -3 3 -24 -15 -47 -40 -23 -26 -55 -61 -72 -78 -26 -27 -88 -98
-158 -178 -39 -45 -55 -65 -137 -166 -47 -58 -88 -107 -91 -110 -3 -3 -34 -43
-70 -90 -35 -47 -67 -89 -71 -95 -5 -5 -26 -33 -48 -61 -22 -29 -40 -56 -40
-62 0 -6 -4 -12 -8 -14 -4 -1 -23 -25 -42 -53 -19 -27 -37 -52 -40 -55 -14
-14 -70 -102 -70 -109 0 -5 -4 -11 -8 -13 -5 -1 -29 -34 -53 -73 -23 -38 -46
-72 -49 -75 -6 -5 -145 -234 -182 -300 -11 -19 -32 -55 -46 -80 -14 -25 -32
-56 -41 -70 -8 -14 -16 -30 -17 -37 -1 -7 -11 -25 -21 -40 -11 -15 -38 -66
-62 -113 -23 -47 -46 -92 -51 -100 -18 -32 -82 -165 -82 -170 0 -3 -15 -36
-33 -75 -68 -146 -94 -205 -88 -205 3 0 1 -6 -5 -12 -6 -7 -25 -49 -42 -93
-18 -44 -37 -91 -43 -105 -6 -14 -11 -28 -12 -32 -2 -5 -4 -10 -5 -13 -1 -3
-3 -8 -5 -12 -1 -5 -4 -15 -8 -23 -16 -41 -87 -242 -101 -290 -10 -30 -21 -64
-26 -75 -13 -31 -116 -387 -125 -435 -2 -8 -4 -16 -5 -17 -3 -3 -4 -7 -13 -53
-4 -19 -7 -37 -6 -40 0 -3 -4 -18 -10 -33 -6 -15 -13 -42 -16 -60 -3 -18 -8
-40 -11 -49 -3 -9 -7 -27 -9 -40 -3 -13 -12 -59 -21 -103 -9 -44 -18 -87 -19
-95 -2 -8 -4 -17 -5 -20 -1 -3 -2 -8 -1 -12 0 -3 -6 -39 -14 -80 -7 -40 -16
-91 -19 -113 -3 -22 -7 -51 -10 -65 -6 -33 -15 -103 -22 -165 -3 -27 -7 -61
-10 -75 -3 -14 -7 -70 -10 -125 -5 -87 -3 -107 16 -158 26 -70 99 -148 167
-180 l48 -22 1840 -3 c1012 -2 1863 0 1891 3 101 12 234 122 251 207 3 15 10
28 16 28 6 0 8 3 4 6 -3 3 3 29 13 58 9 28 20 74 24 101 3 28 8 68 11 90 3 22
8 54 10 70 2 17 4 30 5 30 1 0 3 11 4 25 2 14 6 43 11 65 5 22 9 47 11 55 11
60 17 87 38 170 10 36 17 72 18 80 0 8 5 21 11 28 5 6 6 12 3 12 -4 0 -2 8 3
18 6 11 12 30 15 43 4 20 44 142 63 189 4 8 7 17 7 20 2 10 38 92 83 189 23
51 43 97 43 102 0 5 5 9 10 9 6 0 10 7 10 15 0 8 21 49 46 92 26 43 54 92 64
108 50 86 65 110 71 115 3 3 18 23 32 45 36 56 109 159 116 165 3 3 26 32 51
65 53 70 238 293 289 349 133 143 395 390 496 467 17 13 32 26 35 30 3 4 28
24 55 45 28 21 55 42 62 48 24 22 39 33 133 99 52 36 100 70 105 74 13 10 65
45 87 58 9 5 50 30 90 55 100 61 96 59 195 114 73 41 349 184 356 185 1 0 38
16 82 36 138 64 328 138 435 170 3 1 12 5 20 8 8 3 40 14 70 23 30 9 74 23 98
30 23 8 51 14 62 14 10 0 22 5 25 10 4 6 10 8 15 5 5 -3 28 1 52 9 24 8 61 17
83 22 22 4 45 8 50 9 6 2 24 5 40 8 17 3 41 8 55 11 62 12 223 37 262 41 24 3
63 7 88 9 25 3 68 8 95 11 70 7 172 15 295 20 178 8 250 19 320 49 57 23 126
92 157 154 l28 57 0 1665 c0 967 -4 1673 -9 1685 -5 11 -10 25 -12 32 -4 21
-46 77 -81 109 -62 56 -119 78 -210 80 -45 1 -83 1 -85 -1z"/>
</g>
</svg>
