<svg width="16" height="22" viewBox="0 0 16 22" fill="none" xmlns="http://www.w3.org/2000/svg">
<path d="M4.75515 1.84584L4.75514 1.84584C3.53691 3.06717 2.72631 4.863 2.60486 6.61682C2.57509 7.04686 2.6245 7.34484 2.74246 7.58453C2.86054 7.82449 3.06756 8.04716 3.42866 8.28928C3.62118 8.41833 3.82366 8.55614 3.87437 8.59325L4.75515 1.84584ZM4.75515 1.84584C5.63832 0.960401 6.49298 0.521412 7.55548 0.381583M4.75515 1.84584L7.55548 0.381583M2.30897 11.1154L2.30895 11.1155C1.94923 11.6386 1.65499 12.3418 1.44682 13.2137C1.3795 13.4956 1.34928 13.7501 1.31804 14.3954M2.30897 11.1154L6.14158 15.1977L6.30052 15.1979M2.30897 11.1154C2.39047 10.9969 2.80043 10.5196 3.23192 10.0498L2.95574 9.79616M2.30897 11.1154L2.95574 9.79616M1.31804 14.3954L0.943474 14.3773L1.31804 14.3954ZM1.31804 14.3954C1.28708 15.0352 1.25259 15.4633 1.15277 15.8333C1.04967 16.2154 0.882546 16.5158 0.630269 16.9115C0.548073 17.0405 0.474538 17.166 0.422857 17.2626C0.411968 17.283 0.402471 17.3013 0.394336 17.3174C0.396466 17.3205 0.398619 17.3235 0.400769 17.3263C0.402017 17.3258 0.40329 17.3252 0.404577 17.3246C0.452271 17.3021 0.515082 17.2702 0.604772 17.2239L0.604794 17.2239C1.14887 16.9436 1.52379 16.5154 2.00987 15.4699L2.34991 15.6279L2.00987 15.4698C2.34407 14.751 2.49309 14.312 2.65281 13.5797L2.65281 13.5797C2.87127 12.5783 3.06082 12.0287 3.41208 11.4511C3.79251 10.8255 4.56402 10.1705 5.27618 9.85367M5.27618 9.85367L5.38525 10.0988L5.53153 10.153C5.59969 10.1276 5.60964 10.1368 5.59498 10.1765C5.59008 10.1897 5.55452 10.2534 5.49768 10.3515C5.49768 10.3515 5.49768 10.3515 5.49767 10.3515C5.47643 10.3882 5.45221 10.4297 5.42551 10.4752C5.43837 10.4817 5.45159 10.4874 5.46508 10.4923C5.50507 10.5069 5.54144 10.5121 5.56971 10.5134C5.56971 10.5134 5.56972 10.5134 5.56973 10.5134C5.59578 10.5147 5.61494 10.5126 5.6237 10.5116C5.644 10.5092 5.6593 10.5051 5.66578 10.5032M5.27618 9.85367C5.27618 9.85367 5.27617 9.85367 5.27616 9.85368L5.38524 10.0988L3.78927 14.6226M5.27618 9.85367C5.31726 9.83539 5.35641 9.81848 5.39077 9.8053C5.41669 9.79537 5.47255 9.77426 5.53513 9.76682C5.56545 9.76321 5.63816 9.75716 5.72178 9.78763C5.82726 9.82605 5.91567 9.91044 5.95491 10.0254C5.98598 10.1164 5.97478 10.1943 5.96932 10.2248C5.96282 10.2611 5.95261 10.2905 5.94678 10.3064L5.94665 10.3067C5.93469 10.339 5.91648 10.3725 5.91096 10.3827C5.91058 10.3834 5.91026 10.384 5.91001 10.3844C5.89992 10.4031 5.88706 10.4262 5.8724 10.452C5.84286 10.5041 5.80255 10.5736 5.75471 10.6551C5.65883 10.8185 5.5304 11.0341 5.3924 11.2627C5.1173 11.7184 4.82365 12.2322 4.73813 12.4044L4.73812 12.4044C4.40842 13.068 4.24348 13.6978 4.16294 14.6541L3.78927 14.6226M5.66578 10.5032C5.66419 10.5037 5.66203 10.5045 5.65925 10.5056C5.64426 10.5114 5.62006 10.5216 5.58106 10.5389L5.58104 10.5389C5.48953 10.5796 5.39654 10.6276 5.30363 10.6813C5.23307 10.8 5.15399 10.932 5.07137 11.0689C4.79659 11.524 4.49549 12.0499 4.40229 12.2375C4.04706 12.9525 3.87283 13.6304 3.78927 14.6226M5.66578 10.5032C5.66793 10.5025 5.66912 10.5021 5.66919 10.5021C5.66926 10.502 5.66818 10.5023 5.66578 10.5032ZM3.78927 14.6226C3.73052 15.3202 3.75485 15.7234 3.91297 16.6736C4.0202 17.3177 4.03604 17.4972 4.01786 17.8628C3.99313 18.3599 3.9458 18.5423 3.64731 19.2902C3.4457 19.7955 3.43325 19.8453 3.47955 19.9614M3.47955 19.9614C3.53483 20.0999 3.7257 20.2407 3.85841 20.241M3.47955 19.9614L3.82734 19.8227C3.82852 19.8273 3.83006 19.8344 3.83109 19.843C3.82659 19.8459 3.8222 19.8487 3.81792 19.8513C3.79094 19.8682 3.77421 19.877 3.76674 19.8805M3.47955 19.9614L3.82731 19.8226C3.82689 19.8209 3.82652 19.8196 3.82624 19.8186C3.82442 19.8146 3.82327 19.8128 3.82359 19.8133C3.82393 19.8139 3.82565 19.8165 3.82928 19.8208C3.83281 19.8249 3.83717 19.8295 3.84222 19.8343M3.85841 20.241C3.9776 20.2412 4.52172 19.8129 4.77087 19.5228M3.85841 20.241L3.8591 19.866C3.87511 19.866 3.88584 19.8681 3.89033 19.8691C3.895 19.8702 3.89612 19.8708 3.89373 19.8699C3.88833 19.8676 3.87689 19.8618 3.8626 19.8513C3.85541 19.846 3.84888 19.8405 3.84319 19.8352M3.85841 20.241L3.85905 19.866C3.84995 19.8659 3.84132 19.8663 3.83323 19.867C3.8319 19.8727 3.83153 19.8752 3.83154 19.8751C3.83156 19.875 3.83197 19.8721 3.83217 19.8671C3.80061 19.8698 3.77746 19.8766 3.76674 19.8805M4.77087 19.5228C5.1575 19.0725 5.47918 18.2839 5.70727 17.2272C5.72745 17.1337 5.746 17.0433 5.76303 16.9552C5.73375 16.7109 5.73098 16.4805 5.73373 16.0153C5.7355 15.7164 5.74544 15.4473 5.76537 15.1972C5.80437 14.7078 5.88162 14.2913 6.01076 13.8674C6.15206 12.9202 6.48055 12.2537 7.0808 11.6047C7.12888 11.5527 7.18509 11.4956 7.24577 11.4363C7.28807 11.3646 7.32923 11.2944 7.36849 11.2271C7.47122 11.0511 7.56001 10.8966 7.62181 10.786C7.65301 10.7302 7.67575 10.6884 7.68965 10.6616C7.69712 10.6472 7.69924 10.6425 7.69854 10.644L7.69553 10.6512C7.69422 10.6545 7.6913 10.6619 7.68806 10.6721C7.68589 10.6789 7.67807 10.7034 7.67393 10.7366C7.67191 10.7528 7.66859 10.7869 7.67409 10.8298C7.678 10.8604 7.69019 10.9264 7.73682 10.9942C7.90154 10.8575 8.02986 10.7651 8.04584 10.7817M4.77087 19.5228L4.48639 19.2785M4.77087 19.5228L4.48636 19.2785C4.48637 19.2785 4.48638 19.2785 4.48639 19.2785M8.04584 10.7817C8.05064 10.7867 7.97981 10.9167 7.86831 11.1119C7.92987 11.1445 7.9888 11.1529 8.02511 11.1545C8.07875 11.1567 8.11911 11.1463 8.13516 11.1417C8.15445 11.1362 8.16816 11.1303 8.17423 11.1276C8.18105 11.1245 8.18525 11.1223 8.18623 11.1217C8.18639 11.1216 8.17318 11.1294 8.14268 11.1516C8.08542 11.1932 8.00268 11.2595 7.90658 11.3414C7.78726 11.4432 7.65739 11.5605 7.54306 11.6704C7.36989 11.9637 7.18041 12.2792 7.02422 12.532M8.04584 10.7817L8.31589 10.5215C8.39552 10.6042 8.41313 10.6964 8.41802 10.7346C8.42357 10.778 8.42025 10.8128 8.41813 10.8297C8.4138 10.8643 8.40549 10.8909 8.40253 10.9002C8.39537 10.9226 8.38728 10.941 8.38372 10.949C8.37513 10.9683 8.36475 10.9889 8.35554 11.0067C8.33608 11.0442 8.30872 11.0943 8.27648 11.152C8.2114 11.2684 8.11996 11.4275 8.01623 11.6052C7.80868 11.9608 7.54811 12.3975 7.34323 12.7291M8.04584 10.7817L8.31589 10.5215C8.22466 10.4268 8.11546 10.4076 8.05632 10.4051C7.99815 10.4027 7.95217 10.414 7.92945 10.4205C7.88258 10.4338 7.84501 10.4535 7.82637 10.4637C7.78382 10.487 7.7398 10.5172 7.70179 10.5448C7.62202 10.6028 7.5226 10.6832 7.4199 10.7708C7.21486 10.9457 6.97072 11.1715 6.80551 11.3501L6.80551 11.3501C6.34995 11.8426 6.03084 12.3559 5.82931 12.9826C5.63 13.6024 5.55167 14.3148 5.55052 15.1969V15.1969C5.5496 15.9212 5.4941 16.4373 5.34071 17.1481C5.11662 18.1863 4.81118 18.9002 4.48639 19.2785M7.02422 12.532C6.80396 12.8885 6.52625 13.4885 6.39887 13.8831C6.39163 13.9055 6.38455 13.9279 6.37762 13.9502C6.32588 14.309 6.30114 14.7182 6.30052 15.1979M7.02422 12.532L7.34323 12.7291M7.02422 12.532L7.34324 12.7291C7.34324 12.7291 7.34323 12.7291 7.34323 12.7291M6.30052 15.1979L6.14158 15.1977C6.12091 15.4452 6.11052 15.7143 6.10872 16.0175C6.10583 16.5055 6.10881 16.7189 6.14253 16.967C6.20472 16.6358 6.24601 16.3331 6.27073 16.0185C6.29101 15.7604 6.30014 15.4943 6.30052 15.1979ZM7.34323 12.7291C7.13866 13.0602 6.87374 13.6327 6.75574 13.9983C6.56792 14.5801 6.48893 15.1409 6.48371 16.0197C6.47947 16.7377 6.48737 16.8233 6.58877 17.3394C6.68881 17.8485 6.71255 18.08 6.71196 18.5603M6.71196 18.5603L6.33696 18.5599L6.71196 18.5603V18.5603ZM6.71196 18.5603L4.28288 16.612M4.48639 19.2785C4.38349 19.3983 4.20557 19.561 4.03398 19.6961C3.96145 19.7531 3.89579 19.8007 3.84319 19.8352M3.84319 19.8352C3.84286 19.8349 3.84254 19.8346 3.84222 19.8343M3.84319 19.8352C3.84267 19.8355 3.84215 19.8359 3.84164 19.8362L3.84222 19.8343M3.84222 19.8343C3.86202 19.7691 3.90522 19.6557 3.9956 19.4292C4.14416 19.057 4.23925 18.8038 4.29822 18.5767C4.35965 18.34 4.37947 18.1414 4.3924 17.8814L4.3924 17.8814C4.41256 17.4759 4.39166 17.2655 4.28288 16.612M4.28288 16.612C4.28288 16.612 4.28288 16.612 4.28288 16.612L3.91326 16.6735L4.28288 16.612ZM3.76674 19.8805C3.75861 19.8835 3.75762 19.8847 3.76551 19.8811C3.76589 19.8809 3.7663 19.8807 3.76674 19.8805ZM2.95574 9.79616L3.23192 10.0498M2.95574 9.79616L3.23192 10.0498M6.70645 20.7468L6.47334 20.4531C7.02634 20.0142 7.37527 19.3513 7.68965 17.8671C7.83661 17.1732 7.88218 16.7199 7.88245 15.9267C7.88278 14.9735 8.00102 14.1783 8.2837 13.487C8.56841 12.7906 9.01046 12.2227 9.62308 11.7113L9.86341 11.9991L9.62308 11.7113C9.71182 11.6372 9.80037 11.5691 9.87346 11.5185C9.90889 11.4939 9.94764 11.4687 9.98452 11.4485C10.0018 11.4391 10.0293 11.4249 10.0618 11.4131C10.0778 11.4073 10.1052 11.3983 10.1396 11.3929C10.1671 11.3885 10.2404 11.3792 10.3265 11.409L10.3267 11.4091C10.4168 11.4403 10.4713 11.4969 10.4881 11.5147C10.5119 11.5401 10.5296 11.5649 10.5408 11.5818C10.5638 11.6162 10.5836 11.6536 10.5996 11.6859C10.6326 11.7527 10.6684 11.8377 10.7042 11.9301C10.7765 12.1169 10.8593 12.3608 10.9331 12.6109L10.9331 12.6109C10.9847 12.786 11.0197 12.9184 11.0382 13.0946C11.0555 13.2591 11.0577 13.4564 11.0582 13.7616C11.0587 14.0692 11.0574 14.2665 11.0403 14.4305C11.0219 14.6068 10.9862 14.7389 10.9338 14.9147L10.5744 14.8076L10.9338 14.9147C10.7762 15.4435 10.5518 15.9269 10.182 16.5523C9.80825 17.1847 9.60881 17.6359 9.37344 18.3852L9.01567 18.2728L9.37343 18.3852C9.04696 19.4245 9.00365 19.9688 9.13125 20.4824C9.17171 20.6452 9.20713 20.7645 9.24036 20.8517C9.2581 20.8983 9.27311 20.93 9.28449 20.9509C9.28799 20.95 9.29175 20.949 9.29577 20.9478L9.29588 20.9478C9.29979 20.9467 9.30326 20.9456 9.30631 20.9446C9.31071 20.878 9.32517 20.784 9.33808 20.7046C9.35615 20.5935 9.38075 20.4567 9.40761 20.3199L9.40762 20.3198C9.48707 19.9155 9.57546 19.6047 9.75299 19.2779C9.92537 18.9606 10.173 18.6448 10.5405 18.2158C10.7421 17.9803 10.9896 17.6613 11.0871 17.5146C11.3146 17.1719 11.7043 16.3641 11.8288 15.9774C11.9369 15.6418 11.9833 15.4874 12.0124 15.1717C12.0437 14.8326 12.0531 14.3223 12.0693 13.2847C12.0776 12.7545 12.0857 12.2719 12.0921 11.9216C12.0953 11.7464 12.0981 11.604 12.1002 11.505C12.1013 11.4557 12.1023 11.4165 12.103 11.3892L12.1042 11.3547L12.105 11.3379C12.1052 11.3355 12.1057 11.3278 12.1068 11.3186L12.1068 11.3185C12.1071 11.3151 12.1085 11.3028 12.1116 11.2873C12.1129 11.2808 12.1166 11.2623 12.1244 11.2394C12.1287 11.2274 12.1414 11.1977 12.1503 11.1803C12.1666 11.1532 12.2228 11.0868 12.2673 11.0509L12.2672 11.0507C12.2678 11.0503 12.2685 11.0498 12.2692 11.0493C12.3132 11.0196 12.3529 11.0066 12.3659 11.0024C12.3841 10.9966 12.3991 10.9934 12.4074 10.9918C12.4242 10.9885 12.4376 10.987 12.4431 10.9865C12.4554 10.9853 12.4653 10.9849 12.4689 10.9848C12.4777 10.9845 12.4856 10.9845 12.4899 10.9845C12.4946 10.9845 12.4998 10.9845 12.5051 10.9846C12.5108 10.9847 12.5166 10.9848 12.5224 10.985C12.5458 10.9855 12.5779 10.9866 12.6155 10.9879C12.6913 10.9906 12.7943 10.9948 12.9065 10.9999L12.9065 10.9999C13.5799 11.0302 14.1029 10.8603 14.3911 10.5996L6.70645 20.7468ZM6.70645 20.7468L6.47334 20.4531C6.37556 20.5307 6.30169 20.5875 6.24323 20.6294C6.21733 20.648 6.19641 20.6622 6.17961 20.673L6.70645 20.7468ZM15.5538 7.20688L15.5538 7.20686C15.6668 6.39755 15.6408 5.43603 15.5076 4.91009M15.5538 7.20688L9.04997 0.461839C10.6925 0.677799 11.912 1.14286 13.281 2.07535C14.5829 2.96211 15.2304 3.81636 15.5076 4.91009M15.5538 7.20688C15.4529 7.92934 15.14 9.22504 14.9623 9.67863M15.5538 7.20688L14.9623 9.67863M15.5076 4.91009L15.8711 4.81799M15.5076 4.91009C15.5076 4.9101 15.5076 4.9101 15.5076 4.9101L15.8711 4.81799M15.8711 4.81799C16.02 5.40568 16.0425 6.41915 15.9252 7.25875L13.4922 1.76542C14.8455 2.68719 15.5651 3.61061 15.8711 4.81799ZM7.55548 0.381583C7.62996 0.37178 7.86451 0.372089 8.17701 0.387839M7.55548 0.381583L8.17701 0.387839M3.23192 10.0498C3.5904 9.65954 3.79753 9.43256 3.90202 9.29763M3.23192 10.0498L3.90202 9.29763M3.90202 9.29763C3.92961 9.26202 3.95683 9.22428 3.97965 9.18574M3.90202 9.29763L3.97965 9.18574M3.97965 9.18574C4.00058 9.15039 4.03105 9.09273 4.04542 9.02002M3.97965 9.18574L4.04542 9.02002M4.04542 9.02002C4.06233 8.93439 4.05557 8.83266 4.00217 8.73599M4.04542 9.02002L4.00217 8.73599M4.00217 8.73599C3.95724 8.65468 3.89551 8.60872 3.87451 8.59336L4.00217 8.73599ZM14.9623 9.67863C14.8108 10.0651 14.5643 10.4429 14.3912 10.5996L14.9623 9.67863ZM8.17701 0.387839C8.47598 0.402909 8.80625 0.429808 9.04995 0.461837L8.17701 0.387839Z" stroke="#4A00B0" stroke-width="0.75" stroke-linejoin="round"/>
</svg>
