<svg width="12" height="17" viewBox="0 0 12 17" fill="none" xmlns="http://www.w3.org/2000/svg">
<path d="M10.6103 7.03448H9.96552V4.39655C9.96552 1.96966 7.99586 0 5.56897 0C3.14207 0 1.17241 1.96966 1.17241 4.39655V7.03448H0.527586C0.234483 7.03448 0 7.26897 0 7.56207V16.4724C0 16.7597 0.234483 17 0.527586 17H10.6103C10.9034 17 11.1379 16.7597 11.1379 16.4724V7.56207C11.1379 7.26897 10.9034 7.03448 10.6103 7.03448ZM4.10345 11.431C4.10345 10.6221 4.76 9.96552 5.56897 9.96552C6.37793 9.96552 7.03448 10.6221 7.03448 11.431C7.03448 11.9 6.81759 12.3279 6.44828 12.6034V13.7759C6.44828 14.2624 6.05552 14.6552 5.56897 14.6552C5.08241 14.6552 4.68966 14.2624 4.68966 13.7759V12.6034C4.32034 12.3279 4.10345 11.9 4.10345 11.431ZM2.93103 4.39655C2.93103 2.94276 4.11517 1.75862 5.56897 1.75862C7.02276 1.75862 8.2069 2.94276 8.2069 4.39655V7.03448H2.93103V4.39655Z" fill="#4A00B0"/>
</svg>
