<svg width="24" height="24" fill="none" xmlns="http://www.w3.org/2000/svg"><path d="M20.744 1.57h-1.06l-.304 1.134c-.252 1.03-1.237 1.802-2.246 1.802-.556 0-1.086-.231-1.389-.669-.328-.438-.429-1.03-.277-1.597l.176-.67h-3.408l-.303 1.134c-.277 1.03-1.237 1.802-2.272 1.802-.555 0-1.06-.231-1.388-.669-.328-.438-.43-1.03-.278-1.597l.177-.67h-1.11c-1.692 0-3.383 1.34-3.813 3.065L.12 16.404c-.252.927-.1 1.854.43 2.523.504.67 1.287 1.056 2.17 1.056h1.54v.695C4.26 22.506 5.723 24 7.516 24h13.228C22.536 24 24 22.506 24 20.678V4.893c0-1.829-1.464-3.322-3.256-3.322zm-18 16.404c-.201 0-.454-.051-.605-.257-.152-.18-.177-.464-.076-.773l2.575-9.837H20.34l-2.45 9.322c-.226.85-1.11 1.571-1.918 1.571H2.745v-.026zm19.287 2.704c0 .721-.58 1.313-1.287 1.313H7.54c-.707 0-1.288-.592-1.288-1.313v-.695h9.72c1.69 0 3.382-1.34 3.811-3.064l2.247-8.524v12.283z" fill="#404040"/><path d="M9.661 3.58c.606 0 1.212-.49 1.364-1.108l.353-1.365C11.53.49 11.176 0 10.595 0 9.99 0 9.384.49 9.232 1.107L8.88 2.472c-.152.592.202 1.107.782 1.107zm7.473 0c.605 0 1.211-.49 1.363-1.108l.353-1.365C19.002.49 18.648 0 18.068 0c-.606 0-1.212.49-1.364 1.107l-.378 1.365c-.152.592.202 1.107.808 1.107zm-5.074 9.579H9.711a.44.44 0 00-.379.283l-.454 1.751c-.05.155.05.283.202.283h2.347a.44.44 0 00.379-.283l.454-1.75c.05-.155-.05-.284-.202-.284zm-4.14 0H5.572a.44.44 0 00-.379.283l-.454 1.751c-.05.155.05.283.202.283h2.348a.44.44 0 00.378-.283l.455-1.75c.05-.155-.026-.284-.202-.284zm8.28 0h-2.348a.44.44 0 00-.379.283l-.454 1.751c-.05.155.05.283.202.283h2.347a.44.44 0 00.38-.283l.453-1.75c.05-.155-.05-.284-.201-.284zm-3.181-3.683H10.67a.44.44 0 00-.378.284l-.455 1.75c-.05.155.05.284.202.284h2.348a.44.44 0 00.378-.283l.455-1.751c.05-.155-.026-.284-.202-.284zm-4.115 0H6.556a.44.44 0 00-.379.284l-.454 1.75c-.05.155.05.284.202.284h2.348a.44.44 0 00.378-.283l.455-1.751c.05-.155-.05-.284-.202-.284zm5.301 2.344h2.348a.439.439 0 00.378-.284l.455-1.75c.05-.155-.05-.284-.202-.284h-2.348a.44.44 0 00-.379.283l-.454 1.752a.204.204 0 00.202.283z" fill="#404040"/></svg>