<svg width="16" height="16" fill="none" xmlns="http://www.w3.org/2000/svg"><path d="M13.829 1.047h-.707l-.202.756c-.168.686-.824 1.201-1.498 1.201-.37 0-.723-.154-.925-.446a1.241 1.241 0 01-.185-1.064l.118-.447H8.158l-.202.756c-.186.686-.825 1.201-1.515 1.201-.37 0-.707-.154-.926-.446a1.241 1.241 0 01-.185-1.064l.118-.447h-.74c-1.128 0-2.256.893-2.542 2.043L.08 10.936c-.168.618-.067 1.236.287 1.682.336.446.858.704 1.447.704H2.84v.463c0 1.22.977 2.215 2.171 2.215h8.819c1.194 0 2.17-.996 2.17-2.215V3.262c0-1.22-.976-2.215-2.171-2.215zm-12 10.936c-.134 0-.302-.035-.403-.172-.101-.12-.118-.309-.05-.515l1.716-6.558H13.56l-1.633 6.215c-.151.566-.74 1.047-1.279 1.047H1.83v-.017zm12.858 1.802a.87.87 0 01-.858.876H5.027a.87.87 0 01-.858-.876v-.463h6.48c1.127 0 2.254-.893 2.54-2.043l1.498-5.682v8.188z" fill="#fff"/><path d="M6.441 2.386c.404 0 .808-.326.909-.738l.235-.91C7.686.326 7.451 0 7.064 0c-.404 0-.808.326-.91.738l-.235.91c-.1.395.135.738.522.738zm4.981 0c.404 0 .808-.326.91-.738l.235-.91c.1-.412-.135-.738-.522-.738-.404 0-.808.326-.909.738l-.252.91c-.101.395.134.738.538.738zM8.04 8.773H6.474a.293.293 0 00-.252.188l-.303 1.168c-.034.103.034.189.135.189h1.565a.293.293 0 00.252-.19l.303-1.167c.034-.103-.033-.188-.134-.188zm-2.76 0H3.715a.293.293 0 00-.253.188L3.16 10.13c-.033.103.034.189.135.189H4.86a.293.293 0 00.253-.19l.302-1.167c.034-.103-.016-.188-.134-.188zm5.52 0H9.235a.293.293 0 00-.253.188L8.68 10.13c-.033.103.034.189.135.189h1.565a.293.293 0 00.252-.19l.303-1.167c.034-.103-.033-.188-.134-.188zM8.68 6.318H7.113a.293.293 0 00-.252.188l-.303 1.168c-.034.103.033.189.134.189H8.26a.293.293 0 00.252-.19l.303-1.167c.034-.103-.017-.188-.135-.188zm-2.744 0H4.37a.293.293 0 00-.253.188l-.303 1.168c-.033.103.034.189.135.189h1.565a.293.293 0 00.253-.19l.303-1.167c.033-.103-.034-.188-.135-.188zM9.47 7.88h1.565a.293.293 0 00.253-.189l.303-1.167c.033-.103-.034-.19-.135-.19H9.89a.293.293 0 00-.253.19L9.335 7.69c-.033.086.017.189.135.189z" fill="#fff"/></svg>