<svg width="28" height="28" fill="none" xmlns="http://www.w3.org/2000/svg"><circle cx="14" cy="14" r="14" fill="#fff"/><path fill-rule="evenodd" clip-rule="evenodd" d="M17.484 7.548h-6.968a2.968 2.968 0 00-2.968 2.968v6.968a2.968 2.968 0 002.968 2.968h6.968a2.968 2.968 0 002.968-2.968v-6.968a2.968 2.968 0 00-2.968-2.968zM10.516 6A4.516 4.516 0 006 10.516v6.968A4.516 4.516 0 0010.516 22h6.968A4.516 4.516 0 0022 17.484v-6.968A4.516 4.516 0 0017.484 6h-6.968z" fill="#4a00b0"/><path fill-rule="evenodd" clip-rule="evenodd" d="M13.935 16.58a2.516 2.516 0 100-5.032 2.516 2.516 0 000 5.033zm0 1.549a4.065 4.065 0 100-8.13 4.065 4.065 0 000 8.13z" fill="#4a00b0"/><path d="M19.161 9.936a.968.968 0 11-1.935 0 .968.968 0 011.935 0z" fill="#4a00b0"/></svg>