<svg width="533" height="261" viewBox="0 0 533 261" fill="none" xmlns="http://www.w3.org/2000/svg">
<g filter="url(#filter0_f)">
<path fill-rule="evenodd" clip-rule="evenodd" d="M271.778 22.102C266.919 22.3563 263.147 22.7374 259.065 23.3863C242.991 25.9417 227.971 31.9455 214.899 41.0409C207.828 45.961 201.351 51.8096 195.952 58.1492C185.803 70.0659 178.937 83.933 175.86 98.7273C175.052 102.612 174.48 106.813 174.236 110.637C174.192 111.335 174.387 108.656 174.366 108.907C174.213 111.012 175.835 112.804 177.879 112.787L217.376 112.448C218.973 112.434 220.389 111.387 220.916 109.831L221.219 108.935C221.316 108.648 221.38 108.349 221.413 108.047C222.379 99.1016 224.946 93.0116 230.842 85.6461C231.801 84.4472 233.043 83.0065 233.7 82.3304C238.316 77.5797 242.531 74.3498 247.914 71.4399C255.861 67.1442 262.389 65.4999 271.795 65.0708C271.997 65.0616 272.199 65.0364 272.397 64.9947L272.825 64.9047C274.599 64.5309 275.867 62.9115 275.851 61.0412L275.55 25.9271C275.532 23.7678 273.822 22.0319 271.731 22.0498C270.845 22.0657 272.061 22.0871 271.778 22.102Z" fill="white"/>
<path fill-rule="evenodd" clip-rule="evenodd" d="M274.846 23.6893C274.16 22.6991 273.039 22.0537 271.775 22.0497L274.846 23.6893ZM275.08 24.0719C275.374 24.6224 275.544 25.2542 275.55 25.9271L275.851 61.0412C275.867 62.9115 274.599 64.5309 272.825 64.9047L272.397 64.9947C272.199 65.0364 271.997 65.0616 271.795 65.0708C262.389 65.4999 255.861 67.1442 247.914 71.4399C242.531 74.3498 238.316 77.5797 233.7 82.3304C233.043 83.0065 231.801 84.4472 230.842 85.6461C224.946 93.0116 222.379 99.1016 221.413 108.047C221.38 108.349 221.316 108.648 221.219 108.935L220.916 109.831C220.389 111.387 218.973 112.434 217.376 112.448L177.879 112.787C177.734 112.788 177.591 112.78 177.45 112.763C176.897 112.698 176.385 112.501 175.944 112.202C175.388 111.827 174.942 111.294 174.667 110.666M174.523 107.282C174.466 107.822 174.414 108.36 174.368 108.892L174.523 107.282ZM174.523 107.282C174.592 106.639 174.668 105.991 174.752 105.341C175.039 103.118 175.414 100.874 175.86 98.7273C178.937 83.933 185.803 70.0659 195.952 58.1492L198.795 60.7324C189.051 72.1733 182.496 85.4414 179.562 99.5505C178.932 102.579 178.452 105.813 178.171 108.874L217.342 108.538L217.645 107.644C217.645 107.644 217.648 107.632 217.651 107.612C218.703 97.8608 221.59 91.0658 227.923 83.1539C228.919 81.9099 230.248 80.362 231.027 79.5602C235.893 74.5519 240.413 71.0807 246.158 67.9755C254.655 63.3822 261.736 61.6159 271.626 61.1647L271.64 61.1634L272.066 61.0737L271.765 26.0178C267.114 26.2664 263.52 26.6343 259.643 27.2507L259.065 23.3863C261.916 22.9331 264.615 22.6106 267.639 22.3706C267.775 22.3599 267.911 22.3493 268.048 22.3388C269.217 22.2498 270.435 22.1726 271.732 22.1044L271.778 22.102C271.844 22.0985 271.828 22.0947 271.777 22.0907C271.777 22.0907 271.749 22.0886 271.732 22.0876C271.699 22.0855 271.659 22.0834 271.62 22.0813C271.419 22.0706 271.206 22.0592 271.731 22.0498L271.775 22.0497M174.667 110.666C174.443 110.158 174.331 109.589 174.361 108.992C174.364 108.953 174.365 108.924 174.366 108.907L174.368 108.892M174.236 110.637C174.263 110.298 174.339 109.313 174.361 108.992C174.363 108.964 174.364 108.935 174.366 108.907C174.316 109.49 174.273 110.068 174.236 110.637C174.225 110.807 174.225 110.776 174.236 110.637ZM259.065 23.3863C242.991 25.9417 227.971 31.9455 214.899 41.0409C207.828 45.961 201.351 51.8096 195.952 58.1492L198.795 60.7324C203.971 54.6546 210.201 49.0252 217.016 44.284C229.611 35.5205 244.102 29.7213 259.643 27.2507L259.065 23.3863ZM275.08 24.0719C275.009 23.9395 274.931 23.8118 274.846 23.6893L275.08 24.0719Z" fill="white"/>
<path d="M270.713 134.818C267.253 145.249 266.278 146.898 263.293 154.578C257.393 169.758 247.318 193.072 247.318 193.072L246.404 176.388C246.404 176.388 245.695 165.561 246.252 158.663C246.883 150.848 247.631 142.831 249.844 134.998C251.164 130.323 251.531 130.307 253.553 125.118C253.793 124.502 255.737 120.25 257.28 117.207C258.875 114.064 259.422 112.032 261.6 109.292C263.778 106.552 266.648 103.34 266.648 103.34C266.648 103.34 270.713 102.608 272.458 103.29C273.406 103.66 276.151 105.228 276.202 111.136C276.252 117.045 274.172 124.388 270.713 134.818Z" fill="white"/>
<path d="M86.5678 153.276C86.5678 153.276 82.3125 155.987 79.5514 157.665C70.9723 162.88 57.0856 170.123 57.0856 170.123C57.0856 170.123 64.5561 162.16 69.8378 157.748C73.508 154.683 75.4722 153.245 79.5496 150.776C84.2179 147.949 87.1069 146.651 92.1363 144.57C98.5955 141.897 105.914 134.909 109.015 138.653C109.015 138.653 109.749 140.742 107.874 142.713C106.547 144.106 102.688 144.991 97.8038 147.407C93.3684 149.602 86.5678 153.276 86.5678 153.276Z" fill="white"/>
<path d="M371.69 177.508C367.885 187.96 369.133 187.228 362.429 196.284C364.786 186.469 366.083 180.961 368.348 171.126C370.107 163.491 371.197 159.23 372.782 151.56C374.018 145.575 374.843 144.457 375.736 138.418C376.46 133.53 377.549 127.649 378.358 122.773C379.471 116.062 381.036 106.842 382.319 103.211C382.889 101.598 385.632 101.662 386.448 103.175C388.546 107.063 385.405 119.703 384.568 124.673C383.731 129.642 376.99 154.967 375.921 159.897C372.987 173.423 373.116 173.59 371.69 177.508Z" fill="white"/>
<path fill-rule="evenodd" clip-rule="evenodd" d="M74.6818 89.4585C81.3831 92.4983 84.4326 100.572 81.4932 107.492C79.2825 112.696 78.6402 115.122 77.9843 117.6C77.624 118.962 77.2596 120.339 76.6287 122.2C75.3457 125.986 74.3521 129.965 73.261 134.528C73.1583 134.957 73.0545 135.393 72.9492 135.835C72.6723 136.998 72.3857 138.201 72.0852 139.432C72.3317 139.281 72.5842 139.127 72.8433 138.97C78.3076 135.661 81.8685 134.074 87.2029 131.867C87.9005 131.578 88.8902 131.052 90.4695 130.118C90.7575 129.947 91.0913 129.747 91.4569 129.527C92.7022 128.779 94.3167 127.81 95.7509 127.045C97.5022 126.111 100.6 124.562 104.2 124.061C108.487 123.463 114.57 124.314 119.081 129.76L120.646 131.65L121.468 133.988L109.015 138.653C121.468 133.988 121.473 134.002 121.473 134.002L121.478 134.016L121.488 134.045L121.509 134.103L121.55 134.225C121.577 134.309 121.606 134.396 121.634 134.487C121.691 134.67 121.75 134.87 121.808 135.086C121.924 135.516 122.041 136.021 122.14 136.59C122.337 137.717 122.479 139.184 122.367 140.885C122.127 144.512 120.736 148.725 117.325 152.309C115.418 154.313 113.331 155.442 112.271 155.98C111.08 156.584 109.841 157.087 108.97 157.436C108.655 157.562 108.351 157.683 108.055 157.8C106.472 158.429 105.103 158.973 103.533 159.75C101.482 160.764 98.8035 162.162 96.5685 163.345C95.4658 163.928 94.4979 164.445 93.8064 164.816L93.1151 165.187L92.7975 165.388C92.3468 165.674 91.7169 166.073 90.9986 166.525C89.5786 167.42 87.7512 168.563 86.2768 169.46C83.8952 170.907 81.1699 172.479 78.4584 174.002C80.5163 176.414 82.5983 178.914 84.453 181.252C86.1959 183.448 87.7305 185.486 89.1468 187.366C89.244 187.495 89.3406 187.623 89.4367 187.751C90.9552 189.766 92.3646 191.628 93.9661 193.618C95.1788 195.125 96.037 196.249 96.8353 197.295C97.8123 198.574 98.6995 199.736 100.037 201.339C102.1 203.812 103.443 205.024 104.146 205.475C104.478 205.689 104.656 205.762 105.228 205.798C105.635 205.824 106.23 205.821 107.162 205.744C108.128 205.664 109.192 205.531 110.669 205.341C111.899 205.183 112.282 204.977 112.383 204.923C112.536 204.84 113.043 204.544 114.168 203.363C116.263 201.161 117.33 199.067 119.187 195.146C121.595 190.061 124.008 183.328 125.887 177.331C127.917 170.849 130.339 164.75 134.619 157.852C136.53 154.272 139.013 150.652 142.293 147.206C149.827 139.29 156.529 136.453 161.712 134.26L161.773 134.234C168.516 131.38 175.733 130.454 181.704 130.442C187.384 130.431 193.632 131.249 198.297 133.315C199.164 133.699 200.003 134.116 200.814 134.557C203.832 131.931 207.949 130.72 212.108 131.633C219.267 133.204 223.84 140.47 222.323 147.863C221.626 151.261 221.069 154.641 220.499 158.102C219.285 165.463 218.012 173.186 215.206 182.205C213.863 186.522 212.521 190.004 211.241 193.326C211.078 193.749 210.916 194.169 210.755 194.587C210.875 195.617 210.95 196.567 211.003 197.428C211.052 198.213 211.086 198.999 211.113 199.618C211.119 199.748 211.124 199.872 211.129 199.986C211.162 200.714 211.189 201.212 211.226 201.645C211.294 202.433 211.375 202.736 211.434 202.913C211.482 203.058 211.618 203.43 212.063 204.098C212.093 204.128 212.131 204.165 212.179 204.208C212.442 204.451 212.825 204.762 213.282 205.076C213.741 205.392 214.147 205.625 214.431 205.765C214.461 205.779 214.487 205.791 214.509 205.802C215.149 205.957 215.68 206.125 216.039 206.244C216.442 206.379 216.849 206.528 217.014 206.588C217.435 206.74 217.567 206.783 217.708 206.822C217.808 206.849 218.131 206.937 218.794 206.994C219.29 206.785 219.897 206.51 220.569 206.177C221.559 205.686 222.523 205.151 223.324 204.646C224.042 204.193 224.387 203.915 224.461 203.856C224.478 203.842 224.471 203.849 224.471 203.849C225.826 202.561 226.252 202.086 226.923 201.216C227.671 200.247 228.546 199.01 230.19 196.686C230.589 196.121 231.034 195.492 231.534 194.787L233.885 190.098L233.179 177.218L233.174 177.138L233.15 176.736C233.13 176.394 233.102 175.908 233.071 175.308C233.009 174.109 232.934 172.437 232.876 170.531C232.766 166.866 232.704 161.786 233.048 157.519C233.676 149.743 234.495 140.465 237.124 131.158C237.904 128.398 238.494 126.704 239.243 124.886C239.498 124.269 239.703 123.79 239.904 123.321C240.274 122.454 240.631 121.62 241.262 120.003C241.756 118.735 243.949 113.994 245.543 110.852C245.627 110.686 245.752 110.407 245.918 110.038C246.748 108.191 248.593 104.083 251.358 100.605C252.616 99.0225 254.016 97.374 255.053 96.1736C255.582 95.5614 256.038 95.0405 256.365 94.6701C256.528 94.4846 256.66 94.3359 256.753 94.2312L256.862 94.108L256.907 94.0584C256.907 94.0584 256.909 94.0559 266.648 103.34C264.366 89.8584 264.369 89.8579 264.369 89.8579L264.393 89.8536L264.426 89.8478L264.511 89.8329C264.576 89.8218 264.657 89.8081 264.753 89.7924C264.944 89.7613 265.198 89.7217 265.5 89.6789C266.091 89.595 266.927 89.4899 267.879 89.4146C268.796 89.342 270.031 89.2795 271.365 89.3376C272.472 89.3858 274.724 89.547 277.14 90.4909C279.484 91.4065 282.795 93.3389 285.459 97.2048C288.138 101.091 289.406 105.835 289.451 111.023C289.525 119.672 286.567 129.253 283.248 139.26C280.635 147.138 279.243 150.576 277.62 154.586C277.003 156.11 276.353 157.717 275.589 159.682C272.565 167.464 268.508 177.237 265.242 184.985C263.602 188.877 262.148 192.289 261.104 194.729C261.002 194.967 260.904 195.196 260.811 195.415C260.881 196.006 260.969 196.651 261.077 197.323C261.303 198.719 261.59 200.045 261.926 201.149C262.215 202.096 262.438 202.543 262.486 202.639C262.499 202.664 262.5 202.66 262.486 202.639C263.974 204.88 264.606 205.601 264.964 205.926C265.077 206.029 265.132 206.061 265.176 206.085C265.23 206.114 265.43 206.217 265.89 206.341C266.457 206.494 266.726 206.532 266.812 206.539C266.794 206.54 266.789 206.541 266.812 206.539C266.884 206.534 267.199 206.498 267.971 206.294C268.04 206.259 268.227 206.155 268.533 205.923C269.102 205.492 269.788 204.84 270.545 203.975C271.284 203.129 271.949 202.245 272.534 201.423C272.745 201.127 272.899 200.907 273.068 200.664C273.162 200.53 273.26 200.389 273.375 200.225C273.505 200.041 273.695 199.771 273.896 199.501L273.907 199.486C274.039 199.307 274.511 198.671 275.143 198.003C276.049 197.046 280.828 191.388 285.906 184.379C288.795 180.392 291.291 176.624 293.148 173.458L293.152 173.447C293.754 171.21 294.441 168.659 295.352 166.439C296.698 163.163 298.504 160.403 300.74 157.172C302.757 154.257 304.264 152.139 305.83 150.281C307.388 148.432 308.871 147.005 310.439 145.497L310.66 145.285C312.617 143.402 315.517 141.276 318.486 139.479C321.478 137.668 325.552 135.573 329.922 134.442C334.116 133.356 338.165 132.978 340.994 132.844C342.45 132.775 343.681 132.766 344.576 132.775C345.025 132.78 345.394 132.79 345.67 132.799C345.808 132.804 345.923 132.808 346.013 132.812L346.13 132.818L346.175 132.82L346.206 132.822C346.206 132.822 346.209 132.822 345.527 146.488C347.407 132.943 347.409 132.943 347.409 132.943L347.454 132.95L347.543 132.963L347.836 133.009C348.081 133.048 348.422 133.103 348.84 133.173C349.67 133.314 350.825 133.519 352.133 133.782C354.537 134.264 358.242 135.09 361.376 136.281C361.787 136.438 362.188 136.593 362.578 136.747C362.598 136.616 362.618 136.481 362.639 136.343C363.128 133.038 363.81 129.103 364.429 125.536C364.747 123.7 365.049 121.961 365.299 120.455C365.855 117.103 366.55 112.96 367.278 109.168C367.944 105.699 368.827 101.471 369.873 98.5128C372.815 90.1869 380.43 88.32 384.338 88.3364C388.331 88.3533 394.574 90.1307 398.021 96.5182C400.332 100.8 400.422 105.424 400.407 107.581C400.388 110.341 400.062 113.177 399.708 115.581C399.28 118.494 398.382 123.104 397.913 125.51C397.76 126.293 397.653 126.843 397.622 127.025C397.08 130.246 394.97 138.61 393.147 145.781C392.723 147.449 392.306 149.084 391.908 150.646C390.433 156.432 389.216 161.209 388.85 162.896C388.281 165.519 387.823 167.67 387.439 169.477C385.955 176.448 385.562 178.291 384.092 182.33C383.332 184.418 382.798 185.998 382.319 187.416C382.241 187.649 382.163 187.878 382.087 188.105C381.572 189.623 380.98 191.352 380.191 193.13C379.157 195.457 377.926 197.548 376.364 199.849C376.389 200.146 376.411 200.434 376.43 200.712C376.489 201.546 376.533 202.384 376.568 203.058C376.576 203.201 376.583 203.337 376.59 203.464C376.633 204.264 376.668 204.829 376.715 205.321C376.777 205.989 376.843 206.302 376.872 206.417C376.894 206.446 376.93 206.49 376.984 206.552C378.401 208.156 378.963 208.604 379.222 208.78L379.234 208.788C379.317 208.846 379.582 209.03 380.545 209.226C382.261 209.575 382.976 209.649 385.148 209.446C385.165 209.445 385.182 209.443 385.199 209.442C385.626 209.405 386.188 209.357 390.322 207.046C392.7 205.717 393.952 204.674 395.81 202.392C396.018 201.875 396.283 201.195 396.603 200.349C397.457 198.089 398.517 195.147 399.621 192.072C399.754 191.701 399.887 191.329 400.021 190.956C400.975 188.294 401.94 185.603 402.747 183.422C403.206 182.185 403.653 181.004 404.045 180.031C404.239 179.551 404.46 179.018 404.691 178.508L404.705 178.477C404.844 178.169 405.335 177.082 406.072 175.979C406.487 175.358 406.942 174.785 407.432 174.258C407.448 174.205 407.464 174.151 407.48 174.099C407.813 172.983 408.107 172 408.321 171.176C410.169 164.064 413.509 155.308 420.98 147.458C428.514 139.542 435.216 136.706 440.399 134.512L440.46 134.487C447.203 131.633 454.42 130.706 460.391 130.695C466.071 130.683 472.319 131.502 476.984 133.568C477.851 133.952 478.69 134.368 479.501 134.809C482.518 132.184 486.636 130.973 490.795 131.886C497.954 133.457 502.527 140.723 501.01 148.116C500.313 151.513 499.756 154.894 499.186 158.354C497.972 165.715 496.699 173.439 493.893 182.458C492.55 186.774 491.208 190.257 489.928 193.578C489.765 194.001 489.603 194.421 489.442 194.84C489.562 195.87 489.637 196.82 489.69 197.681C489.739 198.467 489.773 199.253 489.8 199.872C489.806 200.002 489.811 200.125 489.816 200.238C489.849 200.967 489.876 201.465 489.913 201.898C489.981 202.685 490.062 202.989 490.121 203.165C490.169 203.31 490.305 203.682 490.75 204.351C490.78 204.38 490.818 204.417 490.866 204.461C491.129 204.703 491.512 205.014 491.969 205.329C492.428 205.645 492.834 205.878 493.118 206.017C493.148 206.032 493.174 206.044 493.196 206.054C493.836 206.209 494.367 206.377 494.726 206.497C495.089 206.618 495.455 206.751 495.645 206.82L495.701 206.84C496.122 206.993 496.254 207.036 496.395 207.074C496.553 207.117 497.27 207.312 499.006 207.297C506.323 207.234 512.307 213.31 512.372 220.868C512.437 228.425 506.558 234.603 499.24 234.665C495.298 234.699 492.223 234.24 489.648 233.538C488.427 233.205 487.461 232.855 486.938 232.665C486.893 232.649 486.847 232.632 486.81 232.619C483.062 231.691 479.648 229.732 477.271 228.094C475.329 226.756 473.046 224.918 471.083 222.692C470.611 223.06 470.124 223.432 469.619 223.811C464.141 227.923 459.146 231.34 450.372 233.143C446.121 234.017 441.33 234.729 436.246 234.228C430.887 233.701 425.9 231.908 421.009 228.761C418.387 227.075 415.904 225.148 413.674 222.799C410.77 225.914 407.517 228.562 402.946 231.118C398.756 233.46 393.997 236.104 387.542 236.705C382.82 237.145 379.58 236.921 375.441 236.08C371.481 235.275 367.954 233.872 364.684 231.654C362.03 229.854 359.92 227.759 358.208 225.88C357.115 226.88 355.94 227.848 354.679 228.761C351.317 231.196 347.821 233.579 343.443 234.999C339.262 236.356 335.061 236.554 331.194 236.731C330.976 236.741 330.752 236.751 330.524 236.762C325.679 236.993 318.462 237.336 309.419 234.127C309.265 234.087 309.098 234.04 308.922 233.988C307.554 233.582 306.069 232.948 304.532 231.969C301.555 230.073 299.054 227.316 296.84 223.919C295.542 221.928 294.508 219.926 293.683 217.929C292.839 219.104 291.662 220.672 290.213 222.328C287.416 225.526 282.169 230.758 274.792 232.746C269.484 234.177 264.995 234.384 259.203 232.821C251.788 230.82 247.202 226.768 243.856 222.598C243.403 223.052 242.928 223.511 242.419 223.995C239.258 226.999 234.973 229.401 232.052 230.85C230.425 231.656 228.762 232.393 227.246 232.964C226.497 233.246 225.645 233.54 224.767 233.782C224.162 233.95 222.515 234.396 220.553 234.413C216.611 234.447 213.536 233.987 210.961 233.285C209.74 232.953 208.774 232.602 208.252 232.412C208.207 232.396 208.16 232.379 208.123 232.366C204.375 231.438 200.961 229.48 198.584 227.841C196.642 226.503 194.359 224.666 192.396 222.44C191.925 222.808 191.437 223.179 190.932 223.559C185.454 227.67 180.459 231.088 171.685 232.891C167.434 233.764 162.643 234.476 157.559 233.976C152.2 233.448 147.213 231.655 142.322 228.509C139.322 226.579 136.505 224.335 134.04 221.504C133.727 221.854 133.404 222.204 133.071 222.555C130.754 224.989 128.05 227.361 124.633 229.199C121.158 231.067 117.603 232.032 113.958 232.501C113.72 232.531 113.475 232.564 113.221 232.597C107.898 233.298 99.1033 234.457 90.1633 228.716C85.9058 225.982 82.421 222.14 79.9671 219.199C78.5844 217.542 76.6852 215.088 75.2625 213.249C74.5376 212.312 73.9363 211.535 73.5902 211.105C71.6899 208.744 70.05 206.574 68.5265 204.551L68.2749 204.218C66.8268 202.295 65.4832 200.511 63.9611 198.593C63.3696 197.848 62.7451 197.075 62.0984 196.287C60.9306 200.086 59.716 203.902 58.5735 207.245C58.1764 208.408 57.7491 209.671 57.3091 210.973C56.4165 213.612 55.4717 216.406 54.6212 218.821C53.9774 220.648 53.3205 222.452 52.707 223.991C52.2594 225.114 51.3527 227.371 50.1358 229.215C49.2498 230.558 48.1311 231.916 46.8123 233.125C45.6723 234.17 43.4514 235.972 40.2879 236.894C36.5269 237.991 30.5474 237.877 25.9524 232.896C22.4198 229.067 21.8699 224.491 21.7356 222.469C21.4053 217.498 22.9469 212.665 23.7255 210.224L23.7434 210.168C24.082 209.107 24.3886 208.182 24.6691 207.336C25.2908 205.461 25.7839 203.974 26.2109 202.244C26.6507 200.462 27.0782 198.7 27.5056 196.939C28.6382 192.27 29.77 187.605 31.1283 182.583C32.8092 176.37 33.9833 172.806 35.3763 168.578C35.99 166.715 36.6462 164.723 37.407 162.319C38.3831 159.234 39.2017 156.681 39.9676 154.291C41.3555 149.962 42.5706 146.172 44.2373 140.735C45.3508 137.103 46.2331 133.405 47.2368 129.199C47.3348 128.788 47.434 128.372 47.5347 127.951C48.6236 123.398 49.8755 118.283 51.6168 113.145C51.6351 113.091 51.6814 112.916 51.7562 112.632C52.257 110.734 54.0351 103.994 57.2258 96.4835C60.1653 89.5639 67.9806 86.4187 74.6818 89.4585ZM157.512 171.688C156.539 173.645 155.82 175.754 155.228 178.031C154.467 180.962 153.869 182.938 153.403 184.48C152.607 187.112 152.192 188.484 151.992 191.197C151.968 191.509 151.947 191.804 151.926 192.083C151.724 194.808 151.64 195.947 151.657 196.975C151.668 197.634 151.72 198.233 152.073 199.511C152.642 201.573 153.144 202.426 153.479 202.884C153.819 203.348 154.501 204.107 156.322 205.279C157.996 206.355 159.08 206.633 160.058 206.73C161.312 206.853 163.124 206.741 166.501 206.047C169.711 205.388 171.011 204.668 175.346 201.415C178.269 199.221 179.213 198.314 180.958 195.928C182.908 193.261 183.489 192.102 184.463 188.968L184.562 188.648L184.677 188.333C185.644 185.675 186.389 183.757 187.039 182.083C188.087 179.384 188.887 177.322 189.977 173.819C191.409 169.218 192.228 165.702 192.877 162.235C191.174 160.534 189.374 159.137 187.864 158.468L187.849 158.464C187.647 158.407 185.498 157.804 181.77 157.811C178.12 157.819 174.519 158.423 171.832 159.56C169.383 160.597 167.841 161.269 166.279 162.21C164.837 163.078 163.193 164.3 161.196 166.397C159.916 167.742 158.882 169.177 158.027 170.711C157.869 171.041 157.698 171.367 157.512 171.688ZM317.79 184.094C316.736 188.238 316.655 190.679 316.785 196.483C316.96 204.357 317.488 206.53 318.716 208.482C322.569 209.729 325.48 209.596 329.877 209.394L330.004 209.388C334.368 209.188 335.129 209.004 335.489 208.887L335.497 208.885C335.672 208.828 336.324 208.618 339.459 206.348C342.558 204.104 344.672 200.497 346.715 196.55C346.856 196.279 347.002 195.975 347.266 195.428L347.382 195.187C347.677 194.576 348.088 193.729 348.56 192.847C348.963 192.093 349.533 191.072 350.296 189.954C352.206 181.978 353.446 176.685 355.458 167.952C355.812 166.416 356.135 165.032 356.437 163.744C355.239 163.16 353.921 162.607 352.235 161.966C351.226 161.582 349.291 161.09 347.092 160.648C346.098 160.449 345.21 160.291 344.573 160.183C344.489 160.169 344.41 160.156 344.336 160.144L344.314 160.143C343.834 160.138 343.107 160.142 342.226 160.184C340.381 160.272 338.241 160.508 336.377 160.99C335.412 161.24 333.782 161.952 331.892 163.095C331.022 163.622 330.242 164.152 329.627 164.607C329.08 165.011 328.797 165.257 328.736 165.31C328.723 165.321 328.729 165.315 328.729 165.315C326.882 167.092 326.384 167.59 325.822 168.257C325.194 169.001 324.362 170.118 322.301 173.096C322.204 173.237 322.11 173.372 322.021 173.502C321.916 174.107 321.77 174.712 321.581 175.313C320.706 178.107 319.371 181.092 317.79 184.094ZM471.564 162.488C469.861 160.787 468.061 159.389 466.551 158.721L466.535 158.717C466.334 158.66 464.185 158.057 460.457 158.064C456.807 158.071 453.206 158.676 450.519 159.813C448.07 160.85 446.528 161.522 444.966 162.462C443.524 163.33 441.88 164.552 439.883 166.65C436.745 169.948 435.083 173.791 433.915 178.284C433.154 181.215 432.556 183.19 432.09 184.733C431.294 187.364 430.879 188.737 430.679 191.449C430.655 191.762 430.634 192.056 430.613 192.334C430.411 195.06 430.326 196.199 430.344 197.228C430.355 197.887 430.407 198.485 430.76 199.764C431.329 201.825 431.831 202.679 432.166 203.137C432.506 203.601 433.188 204.36 435.009 205.532C436.683 206.608 437.767 206.886 438.745 206.982C439.999 207.106 441.811 206.994 445.187 206.3C448.398 205.64 449.698 204.921 454.033 201.668C456.956 199.473 457.9 198.566 459.645 196.18C461.595 193.514 462.176 192.355 463.15 189.221L463.249 188.9L463.364 188.585C464.331 185.927 465.076 184.009 465.725 182.336C466.773 179.637 467.574 177.575 468.664 174.072C470.096 169.47 470.915 165.954 471.564 162.488ZM345.527 146.488L347.409 132.943L346.811 132.854L346.206 132.822L345.527 146.488ZM266.648 103.34L264.369 89.8579L259.949 90.6535L256.907 94.0584L266.648 103.34Z" fill="white"/>
</g>
<defs>
<filter id="filter0_f" x="0" y="0" width="532.5" height="260.027" filterUnits="userSpaceOnUse" color-interpolation-filters="sRGB">
<feFlood flood-opacity="0" result="BackgroundImageFix"/>
<feBlend mode="normal" in="SourceGraphic" in2="BackgroundImageFix" result="shape"/>
<feGaussianBlur stdDeviation="10" result="effect1_foregroundBlur"/>
</filter>
</defs>
</svg>
