<svg width="212" height="104" viewBox="0 0 533 261" fill="none" xmlns="http://www.w3.org/2000/svg">
<path fill-rule="evenodd" clip-rule="evenodd" d="M273.111 22.1012C268.253 22.3524 264.48 22.7283 260.398 23.3681C244.324 25.8876 229.304 31.8042 216.23 40.7663C209.158 45.6142 202.68 51.3769 197.28 57.6231C187.13 69.3643 180.263 83.0265 177.184 97.6016C176.376 101.429 175.802 105.568 175.558 109.335C175.514 110.023 175.71 107.383 175.689 107.63C175.535 109.704 177.157 111.469 179.201 111.452L218.698 111.113C220.294 111.099 221.711 110.068 222.238 108.534L222.542 107.652C222.639 107.369 222.703 107.075 222.735 106.777C223.702 97.9644 226.27 91.9644 232.167 84.7075C233.127 83.5263 234.369 82.1068 235.026 81.4407C239.642 76.7598 243.858 73.5774 249.242 70.7099C257.188 66.477 263.717 64.8563 273.123 64.4323C273.325 64.4233 273.527 64.3984 273.725 64.3573L274.152 64.2686C275.927 63.9 277.195 62.3045 277.18 60.462L276.883 25.8691C276.865 23.7418 275.155 22.0319 273.064 22.0498C272.178 22.0656 273.394 22.0865 273.111 22.1012Z" fill="white"/>
<path fill-rule="evenodd" clip-rule="evenodd" d="M276.179 23.6646C275.494 22.6892 274.373 22.0535 273.108 22.0497L276.179 23.6646ZM276.413 24.0415C276.707 24.5837 276.877 25.2061 276.883 25.8691L277.18 60.462C277.195 62.3045 275.927 63.9 274.152 64.2686L273.725 64.3573C273.527 64.3984 273.325 64.4233 273.123 64.4323C263.717 64.8563 257.188 66.477 249.242 70.7099C243.858 73.5774 239.642 76.7598 235.026 81.4407C234.369 82.1068 233.127 83.5263 232.167 84.7075C226.27 91.9644 223.702 97.9644 222.735 106.777C222.703 107.075 222.639 107.369 222.542 107.652L222.238 108.534C221.711 110.068 220.294 111.099 218.698 111.113L179.201 111.452C179.056 111.453 178.912 111.445 178.772 111.429C178.219 111.365 177.707 111.17 177.265 110.877C176.71 110.507 176.264 109.982 175.989 109.364M175.846 106.029C175.788 106.562 175.736 107.091 175.69 107.615L175.846 106.029ZM175.846 106.029C175.915 105.396 175.991 104.757 176.075 104.118C176.362 101.927 176.737 99.7167 177.184 97.6016C180.263 83.0265 187.13 69.3643 197.28 57.6231L200.123 60.1676C190.378 71.44 183.821 84.512 180.885 98.412C180.255 101.396 179.774 104.582 179.494 107.597L218.665 107.261L218.968 106.38C218.968 106.38 218.971 106.369 218.973 106.349C220.027 96.7424 222.915 90.0479 229.249 82.2526C230.245 81.027 231.574 79.5019 232.353 78.7119C237.22 73.7773 241.74 70.357 247.485 67.2972C255.983 62.771 263.065 61.03 272.954 60.5842L272.968 60.583L273.394 60.4945L273.098 25.9589C268.447 26.2044 264.853 26.5673 260.976 27.1751L260.398 23.3681C263.249 22.9213 265.949 22.6032 268.973 22.3664C269.108 22.3558 269.245 22.3453 269.381 22.335C270.55 22.2472 271.769 22.1709 273.065 22.1036L273.111 22.1012C273.177 22.0978 273.162 22.094 273.11 22.0901C273.11 22.0901 273.082 22.0881 273.065 22.087C273.032 22.085 272.993 22.083 272.954 22.0809C272.752 22.0703 272.54 22.0591 273.064 22.0498L273.108 22.0497M175.989 109.364C175.765 108.863 175.653 108.302 175.684 107.714C175.686 107.676 175.688 107.647 175.689 107.63L175.69 107.615M175.558 109.335C175.585 109 175.661 108.03 175.684 107.714C175.685 107.686 175.687 107.658 175.689 107.63C175.638 108.205 175.595 108.774 175.558 109.335C175.548 109.502 175.547 109.472 175.558 109.335ZM260.398 23.3681C244.324 25.8876 229.304 31.8042 216.23 40.7663C209.158 45.6142 202.68 51.3769 197.28 57.6231L200.123 60.1676C205.3 54.1794 211.531 48.6327 218.346 43.961C230.942 35.3259 245.434 29.611 260.976 27.1751L260.398 23.3681ZM276.413 24.0415C276.342 23.911 276.264 23.7852 276.179 23.6646L276.413 24.0415Z" fill="white"/>
<path d="M272.032 133.145C268.571 143.421 267.595 145.045 264.609 152.612C258.708 167.568 248.63 190.537 248.63 190.537L247.718 174.101C247.718 174.101 247.01 163.435 247.568 156.639C248.2 148.939 248.949 141.041 251.163 133.324C252.483 128.719 252.851 128.703 254.874 123.59C255.113 122.984 257.058 118.795 258.601 115.797C260.196 112.7 260.744 110.698 262.922 107.998C265.101 105.299 267.971 102.134 267.971 102.134C267.971 102.134 272.036 101.413 273.781 102.084C274.729 102.449 277.474 103.993 277.523 109.814C277.573 115.634 275.492 122.869 272.032 133.145Z" fill="white"/>
<path d="M87.8846 151.352C87.8846 151.352 83.629 154.023 80.8677 155.677C72.2879 160.816 58.4003 167.953 58.4003 167.953C58.4003 167.953 65.8718 160.107 71.154 155.76C74.8246 152.74 76.7891 151.323 80.8668 148.89C85.5354 146.104 88.4246 144.825 93.4542 142.775C99.9138 140.141 107.233 133.256 110.334 136.943C110.334 136.943 111.068 139.001 109.192 140.943C107.865 142.316 104.006 143.188 99.1213 145.569C94.6857 147.731 87.8846 151.352 87.8846 151.352Z" fill="white"/>
<path d="M373.003 175.188C369.197 185.486 370.446 184.764 363.74 193.687C366.099 184.017 367.396 178.59 369.662 168.902C371.422 161.379 372.513 157.181 374.098 149.626C375.335 143.728 376.16 142.628 377.055 136.677C377.779 131.862 378.869 126.068 379.678 121.264C380.792 114.653 382.359 105.57 383.642 101.992C384.212 100.404 386.955 100.466 387.771 101.957C389.869 105.787 386.726 118.239 385.888 123.135C385.051 128.031 378.306 152.981 377.236 157.838C374.301 171.163 374.43 171.328 373.003 175.188Z" fill="white"/>
<path fill-rule="evenodd" clip-rule="evenodd" d="M76.0068 88.4832C82.7076 91.477 85.7561 99.4305 82.8158 106.248C80.6044 111.375 79.9619 113.766 79.3057 116.207C78.9452 117.548 78.5806 118.905 77.9495 120.739C76.666 124.468 75.6719 128.389 74.5802 132.884C74.4775 133.307 74.3736 133.737 74.2682 134.172C73.9912 135.317 73.7045 136.502 73.4038 137.715C73.6503 137.566 73.9028 137.415 74.162 137.26C79.6267 133.999 83.1878 132.436 88.5224 130.26C89.2201 129.976 90.2098 129.458 91.7892 128.537C92.0773 128.369 92.4111 128.171 92.7767 127.955C94.0221 127.218 95.6368 126.263 97.071 125.509C98.8225 124.589 101.921 123.062 105.52 122.568C109.807 121.979 115.89 122.817 120.401 128.181L121.966 130.043L122.788 132.345L110.334 136.943C122.788 132.345 122.793 132.359 122.793 132.359L122.798 132.373L122.808 132.402L122.828 132.46L122.869 132.58C122.897 132.662 122.925 132.748 122.953 132.838C123.01 133.018 123.069 133.215 123.127 133.427C123.243 133.851 123.36 134.348 123.459 134.909C123.656 136.019 123.798 137.464 123.685 139.14C123.444 142.713 122.053 146.864 118.642 150.395C116.734 152.37 114.647 153.483 113.588 154.012C112.396 154.608 111.157 155.103 110.286 155.447C109.972 155.571 109.668 155.69 109.371 155.807C107.789 156.426 106.419 156.963 104.849 157.728C102.798 158.727 100.119 160.105 97.884 161.27C96.7813 161.845 95.8133 162.354 95.1217 162.719L94.4304 163.085L94.1128 163.284C93.662 163.566 93.0321 163.958 92.3137 164.404C90.8936 165.286 89.0661 166.412 87.5916 167.296C85.2098 168.722 82.4842 170.27 79.7726 171.772C81.8302 174.148 83.9118 176.61 85.7663 178.913C87.5089 181.077 89.0432 183.083 90.4592 184.936C90.5564 185.063 90.653 185.189 90.7491 185.315C92.2673 187.3 93.6765 189.134 95.2777 191.095C96.4903 192.579 97.3484 193.686 98.1465 194.716C99.1233 195.977 100.01 197.121 101.348 198.7C103.411 201.136 104.753 202.33 105.456 202.775C105.788 202.984 105.966 203.057 106.538 203.092C106.945 203.118 107.54 203.114 108.472 203.039C109.438 202.96 110.502 202.829 111.979 202.641C113.209 202.485 113.592 202.282 113.693 202.229C113.846 202.148 114.354 201.856 115.478 200.692C117.574 198.523 118.641 196.46 120.498 192.597C122.907 187.586 125.321 180.953 127.2 175.045C129.232 168.659 131.654 162.65 135.935 155.854C137.846 152.327 140.33 148.76 143.61 145.365C151.145 137.565 157.848 134.77 163.031 132.609L163.092 132.583C169.835 129.771 177.053 128.857 183.024 128.845C188.704 128.833 194.952 129.638 199.616 131.673C200.483 132.051 201.323 132.462 202.133 132.896C205.151 130.309 209.268 129.116 213.428 130.014C220.586 131.561 225.159 138.719 223.641 146.002C222.943 149.349 222.386 152.68 221.815 156.089C220.6 163.341 219.326 170.95 216.519 179.836C215.176 184.088 213.833 187.519 212.552 190.792C212.389 191.208 212.227 191.622 212.067 192.035C212.186 193.049 212.261 193.985 212.314 194.833C212.363 195.607 212.397 196.381 212.424 196.99C212.43 197.119 212.435 197.24 212.44 197.353C212.473 198.071 212.5 198.561 212.537 198.988C212.604 199.764 212.686 200.062 212.745 200.236C212.793 200.379 212.928 200.745 213.373 201.404C213.403 201.433 213.442 201.469 213.489 201.513C213.752 201.751 214.135 202.057 214.592 202.368C215.051 202.679 215.457 202.908 215.741 203.045C215.771 203.06 215.797 203.072 215.819 203.082C216.459 203.235 216.99 203.4 217.349 203.518C217.752 203.65 218.159 203.797 218.324 203.856C218.745 204.006 218.877 204.049 219.018 204.087C219.118 204.113 219.441 204.2 220.104 204.256C220.6 204.05 221.207 203.779 221.879 203.451C222.869 202.967 223.833 202.44 224.634 201.942C225.352 201.496 225.697 201.222 225.771 201.164C225.788 201.15 225.781 201.157 225.781 201.157C227.137 199.888 227.562 199.42 228.234 198.563C228.982 197.608 229.857 196.389 231.501 194.1C231.9 193.543 232.345 192.924 232.845 192.229L235.197 187.609L234.493 174.92L234.488 174.842L234.463 174.446C234.443 174.109 234.416 173.63 234.385 173.038C234.323 171.857 234.248 170.21 234.191 168.333C234.08 164.722 234.019 159.718 234.364 155.513C234.993 147.853 235.814 138.713 238.444 129.544C239.224 126.824 239.814 125.155 240.564 123.364C240.818 122.756 241.023 122.284 241.224 121.822C241.595 120.968 241.952 120.146 242.582 118.553C243.077 117.304 245.271 112.633 246.865 109.537C246.949 109.374 247.074 109.099 247.24 108.736C248.07 106.916 249.916 102.869 252.681 99.442C253.939 97.8826 255.34 96.2584 256.377 95.0757C256.906 94.4725 257.362 93.9593 257.689 93.5944C257.852 93.4115 257.984 93.265 258.077 93.1619L258.187 93.0405L258.231 92.9916C258.231 92.9916 258.233 92.9892 267.971 102.134C265.691 88.853 265.694 88.8525 265.694 88.8525L265.717 88.8483L265.751 88.8425L265.836 88.8279C265.901 88.8169 265.982 88.8034 266.078 88.788C266.269 88.7572 266.523 88.7182 266.825 88.676C267.416 88.5933 268.252 88.4897 269.204 88.4153C270.121 88.3437 271.356 88.282 272.69 88.3391C273.797 88.3864 276.049 88.5449 278.465 89.4745C280.808 90.3762 284.119 92.2795 286.783 96.0877C289.461 99.9161 290.729 104.59 290.773 109.7C290.846 118.221 287.886 127.66 284.566 137.519C281.952 145.28 280.56 148.667 278.937 152.618C278.32 154.12 277.669 155.703 276.905 157.639C273.88 165.306 269.822 174.934 266.555 182.568C264.914 186.402 263.46 189.764 262.415 192.168C262.314 192.402 262.216 192.628 262.122 192.843C262.192 193.425 262.28 194.061 262.388 194.723C262.614 196.098 262.9 197.404 263.237 198.493C263.525 199.425 263.749 199.865 263.797 199.96C263.809 199.985 263.811 199.98 263.797 199.96C265.284 202.168 265.916 202.878 266.274 203.198C266.387 203.299 266.442 203.331 266.486 203.354C266.54 203.383 266.74 203.485 267.2 203.607C267.767 203.758 268.035 203.795 268.121 203.802C268.104 203.802 268.099 203.804 268.121 203.802C268.194 203.797 268.509 203.761 269.281 203.561C269.349 203.526 269.537 203.423 269.843 203.195C270.412 202.77 271.098 202.127 271.855 201.275C272.594 200.442 273.259 199.571 273.845 198.761C274.056 198.47 274.21 198.252 274.379 198.013C274.472 197.881 274.57 197.742 274.686 197.581C274.815 197.399 275.005 197.134 275.206 196.867L275.217 196.852C275.35 196.677 275.821 196.05 276.454 195.391C277.36 194.449 282.14 188.873 287.219 181.968C290.108 178.04 292.604 174.327 294.462 171.208L294.466 171.197C295.068 168.994 295.755 166.48 296.667 164.293C298.013 161.066 299.819 158.346 302.056 155.163C304.074 152.291 305.58 150.204 307.146 148.374C308.705 146.552 310.189 145.146 311.757 143.66L311.978 143.451C313.935 141.596 316.835 139.501 319.805 137.73C322.797 135.946 326.871 133.881 331.241 132.766C335.435 131.696 339.485 131.323 342.314 131.191C343.769 131.122 345.001 131.114 345.895 131.123C346.344 131.128 346.713 131.137 346.989 131.146C347.127 131.151 347.242 131.155 347.332 131.159L347.449 131.164L347.494 131.167L347.525 131.168C347.525 131.168 347.529 131.168 346.844 144.632C348.726 131.287 348.728 131.288 348.728 131.288L348.773 131.294L348.862 131.308L349.155 131.353C349.4 131.391 349.741 131.445 350.159 131.514C350.99 131.653 352.144 131.855 353.452 132.113C355.856 132.588 359.561 133.401 362.694 134.575C363.106 134.729 363.506 134.881 363.896 135.033C363.917 134.904 363.937 134.771 363.957 134.635C364.447 131.379 365.13 127.503 365.749 123.988C366.068 122.179 366.369 120.467 366.619 118.983C367.176 115.68 367.872 111.599 368.6 107.863C369.267 104.445 370.15 100.28 371.196 97.3655C374.139 89.1628 381.755 87.3226 385.663 87.3384C389.656 87.3544 395.899 89.1046 399.345 95.3969C401.655 99.6145 401.744 104.17 401.729 106.296C401.71 109.014 401.384 111.808 401.03 114.177C400.601 117.047 399.702 121.588 399.233 123.958C399.08 124.73 398.973 125.272 398.942 125.451C398.399 128.624 396.288 136.865 394.465 143.929C394.041 145.573 393.624 147.184 393.225 148.722C391.749 154.423 390.531 159.128 390.165 160.79C389.596 163.375 389.138 165.494 388.753 167.274C387.268 174.142 386.876 175.958 385.405 179.937C384.644 181.995 384.111 183.551 383.632 184.948C383.553 185.178 383.475 185.403 383.399 185.626C382.884 187.122 382.292 188.825 381.502 190.577C380.469 192.87 379.237 194.93 377.675 197.197C377.699 197.49 377.721 197.773 377.741 198.047C377.799 198.869 377.843 199.694 377.879 200.358C377.886 200.5 377.893 200.633 377.9 200.759C377.943 201.546 377.978 202.103 378.024 202.588C378.087 203.246 378.153 203.554 378.182 203.667C378.204 203.696 378.239 203.739 378.294 203.8C379.71 205.38 380.273 205.822 380.532 205.995L380.543 206.003C380.626 206.06 380.891 206.241 381.854 206.434C383.57 206.778 384.286 206.85 386.458 206.651C386.475 206.649 386.491 206.648 386.508 206.646C386.935 206.61 387.498 206.563 391.632 204.286C394.009 202.976 395.262 201.948 397.12 199.7C397.329 199.191 397.594 198.52 397.913 197.687C398.768 195.46 399.829 192.562 400.932 189.532C401.065 189.167 401.199 188.8 401.333 188.433C402.287 185.81 403.252 183.159 404.06 181.011C404.518 179.792 404.966 178.628 405.358 177.669C405.552 177.196 405.773 176.672 406.004 176.169L406.018 176.139C406.158 175.835 406.649 174.764 407.386 173.677C407.8 173.066 408.256 172.501 408.746 171.982C408.762 171.929 408.778 171.877 408.793 171.825C409.127 170.725 409.422 169.757 409.636 168.945C411.485 161.939 414.825 153.313 422.297 145.578C429.832 137.779 436.534 134.983 441.717 132.822L441.779 132.796C448.522 129.984 455.739 129.071 461.71 129.058C467.39 129.046 473.638 129.852 478.303 131.887C479.17 132.265 480.009 132.675 480.82 133.109C483.838 130.523 487.955 129.329 492.114 130.228C499.273 131.774 503.845 138.932 502.327 146.216C501.63 149.563 501.072 152.893 500.501 156.303C499.287 163.554 498.013 171.164 495.206 180.049C493.862 184.302 492.52 187.733 491.239 191.005C491.076 191.421 490.914 191.835 490.753 192.248C490.873 193.263 490.947 194.199 491.001 195.047C491.049 195.821 491.084 196.596 491.111 197.206C491.116 197.334 491.121 197.454 491.127 197.566C491.159 198.284 491.186 198.774 491.223 199.201C491.291 199.977 491.372 200.276 491.431 200.45C491.479 200.593 491.615 200.959 492.06 201.617C492.09 201.647 492.128 201.683 492.176 201.726C492.439 201.964 492.822 202.271 493.279 202.581C493.737 202.892 494.144 203.122 494.428 203.259C494.458 203.273 494.484 203.285 494.506 203.295C495.145 203.448 495.676 203.613 496.035 203.731C496.398 203.85 496.764 203.981 496.954 204.049L497.011 204.07C497.431 204.22 497.564 204.262 497.705 204.3C497.862 204.342 498.579 204.534 500.315 204.519C507.632 204.456 513.616 210.441 513.68 217.886C513.744 225.332 507.864 231.418 500.546 231.481C496.604 231.515 493.529 231.063 490.954 230.371C489.733 230.044 488.767 229.699 488.245 229.512C488.2 229.496 488.153 229.479 488.116 229.466C484.368 228.552 480.955 226.624 478.578 225.01C476.636 223.692 474.354 221.882 472.391 219.689C471.919 220.052 471.432 220.418 470.926 220.792C465.448 224.843 460.453 228.21 451.678 229.988C447.427 230.849 442.636 231.551 437.552 231.058C432.193 230.54 427.207 228.774 422.316 225.675C419.694 224.013 417.211 222.115 414.982 219.801C412.077 222.871 408.824 225.48 404.253 227.998C400.063 230.306 395.303 232.912 388.847 233.505C384.126 233.938 380.886 233.719 376.747 232.89C372.787 232.098 369.26 230.716 365.991 228.531C363.337 226.759 361.227 224.695 359.515 222.844C358.422 223.829 357.247 224.783 355.986 225.683C352.624 228.082 349.127 230.43 344.749 231.83C340.568 233.166 336.367 233.362 332.5 233.537C332.282 233.547 332.058 233.558 331.83 233.568C326.985 233.796 319.767 234.135 310.726 230.975C310.571 230.935 310.405 230.89 310.228 230.838C308.861 230.438 307.375 229.814 305.838 228.849C302.862 226.982 300.361 224.266 298.147 220.92C296.85 218.959 295.817 216.986 294.991 215.019C294.147 216.177 292.97 217.721 291.521 219.353C288.723 222.505 283.475 227.659 276.099 229.619C270.79 231.029 266.302 231.234 260.51 229.695C253.095 227.724 248.509 223.733 245.164 219.626C244.71 220.072 244.236 220.525 243.727 221.001C240.565 223.962 236.279 226.328 233.359 227.756C231.732 228.551 230.068 229.277 228.553 229.839C227.803 230.117 226.952 230.407 226.074 230.646C225.469 230.811 223.822 231.251 221.86 231.268C217.917 231.302 214.843 230.849 212.267 230.158C211.047 229.831 210.081 229.485 209.558 229.299C209.513 229.283 209.466 229.266 209.43 229.253C205.682 228.339 202.268 226.41 199.891 224.797C197.949 223.478 195.667 221.668 193.704 219.476C193.232 219.839 192.745 220.205 192.24 220.578C186.761 224.629 181.766 227.997 172.992 229.774C168.74 230.635 163.949 231.337 158.866 230.845C153.506 230.326 148.52 228.56 143.629 225.461C140.629 223.561 137.812 221.35 135.348 218.561C135.035 218.906 134.712 219.252 134.379 219.597C132.062 221.995 129.358 224.332 125.94 226.143C122.465 227.984 118.91 228.935 115.264 229.398C115.027 229.428 114.782 229.46 114.528 229.492C109.205 230.184 100.41 231.327 91.4705 225.672C87.2133 222.98 83.729 219.195 81.2755 216.298C79.893 214.665 77.9941 212.248 76.5717 210.437C75.8469 209.514 75.2457 208.748 74.8997 208.325C72.9997 205.998 71.3601 203.861 69.8368 201.869L69.5852 201.54C68.1374 199.646 66.794 197.889 65.2721 196C64.6807 195.265 64.0563 194.504 63.4097 193.728C62.2415 197.471 61.0264 201.23 59.8835 204.524C59.4862 205.669 59.0588 206.914 58.6186 208.196C57.7257 210.797 56.7805 213.549 55.9297 215.928C55.2857 217.728 54.6285 219.506 54.0148 221.022C53.5671 222.128 52.6601 224.352 51.443 226.169C50.5568 227.492 49.4379 228.83 48.119 230.021C46.9788 231.051 44.7577 232.826 41.5941 233.735C37.833 234.816 31.8535 234.705 27.2592 229.798C23.727 226.026 23.1777 221.519 23.0436 219.527C22.714 214.63 24.2562 209.868 25.0351 207.463L25.053 207.408C25.3917 206.362 25.6985 205.451 25.9791 204.618C26.601 202.771 27.0943 201.306 27.5215 199.601C27.9616 197.846 28.3893 196.11 28.8169 194.374C29.9501 189.775 31.0825 185.179 32.4415 180.232C34.1231 174.11 35.2977 170.599 36.6912 166.433C37.3052 164.598 37.9616 162.636 38.7227 160.267C39.6992 157.228 40.5181 154.712 41.2843 152.358C42.6728 148.093 43.8884 144.359 45.5557 139.003C46.6697 135.424 47.5525 131.781 48.5567 127.637C48.6548 127.232 48.754 126.823 48.8547 126.408C49.9442 121.922 51.1968 116.884 52.9388 111.821C52.957 111.768 53.0034 111.595 53.0783 111.316C53.5793 109.446 55.3583 102.806 58.5499 95.4061C61.4902 88.5889 69.3059 85.4894 76.0068 88.4832ZM158.826 169.482C157.853 171.409 157.134 173.488 156.542 175.731C155.78 178.619 155.182 180.565 154.716 182.085C153.919 184.677 153.504 186.03 153.303 188.702C153.28 189.01 153.258 189.3 153.238 189.575C153.035 192.259 152.951 193.381 152.968 194.394C152.979 195.043 153.031 195.633 153.383 196.893C153.952 198.924 154.455 199.765 154.79 200.216C155.129 200.673 155.811 201.42 157.632 202.574C159.306 203.635 160.39 203.908 161.368 204.003C162.622 204.124 164.434 204.014 167.811 203.33C171.021 202.68 172.321 201.971 176.657 198.765C179.58 196.603 180.524 195.71 182.269 193.359C184.22 190.732 184.801 189.59 185.775 186.502L185.874 186.186L185.989 185.876C186.957 183.257 187.702 181.368 188.352 179.719C189.4 177.06 190.201 175.028 191.291 171.577C192.723 167.044 193.543 163.58 194.193 160.165C192.49 158.489 190.69 157.113 189.18 156.454L189.165 156.45C188.963 156.394 186.814 155.8 183.086 155.808C179.436 155.816 175.835 156.412 173.148 157.532C170.699 158.554 169.157 159.216 167.595 160.143C166.153 160.998 164.508 162.202 162.511 164.269C161.231 165.594 160.197 167.008 159.341 168.519C159.184 168.844 159.012 169.165 158.826 169.482ZM319.103 181.683C318.048 185.766 317.967 188.17 318.096 193.888C318.27 201.646 318.798 203.786 320.026 205.709C323.879 206.938 326.79 206.806 331.187 206.606L331.314 206.601C335.678 206.403 336.439 206.221 336.798 206.106L336.806 206.104C336.981 206.048 337.634 205.841 340.769 203.604C343.868 201.393 345.982 197.84 348.026 193.951C348.167 193.683 348.313 193.385 348.577 192.845L348.693 192.608C348.988 192.006 349.399 191.171 349.871 190.302C350.275 189.559 350.845 188.554 351.608 187.452C353.519 179.594 354.76 174.38 356.773 165.776C357.127 164.263 357.45 162.9 357.752 161.63C356.554 161.055 355.237 160.51 353.55 159.879C352.541 159.501 350.607 159.017 348.407 158.582C347.414 158.386 346.526 158.23 345.889 158.124C345.805 158.11 345.726 158.097 345.652 158.085L345.63 158.085C345.15 158.08 344.423 158.084 343.542 158.125C341.697 158.212 339.557 158.444 337.693 158.92C336.727 159.166 335.098 159.867 333.207 160.994C332.337 161.513 331.558 162.036 330.942 162.484C330.395 162.882 330.112 163.125 330.051 163.176C330.038 163.188 330.044 163.182 330.044 163.182C328.197 164.933 327.699 165.423 327.136 166.08C326.509 166.814 325.676 167.914 323.615 170.848C323.518 170.986 323.424 171.12 323.335 171.248C323.23 171.844 323.084 172.44 322.895 173.032C322.019 175.785 320.685 178.726 319.103 181.683ZM472.88 160.378C471.176 158.703 469.376 157.326 467.867 156.668L467.851 156.664C467.65 156.608 465.501 156.014 461.772 156.021C458.123 156.029 454.522 156.625 451.835 157.746C449.385 158.767 447.843 159.43 446.281 160.356C444.839 161.212 443.194 162.416 441.198 164.483C438.059 167.732 436.397 171.518 435.229 175.944C434.467 178.832 433.869 180.778 433.402 182.298C432.606 184.891 432.191 186.243 431.99 188.915C431.967 189.223 431.945 189.513 431.924 189.787C431.722 192.472 431.637 193.595 431.654 194.608C431.665 195.257 431.717 195.847 432.07 197.106C432.639 199.137 433.141 199.978 433.476 200.429C433.816 200.886 434.498 201.634 436.319 202.788C437.992 203.848 439.077 204.122 440.055 204.216C441.308 204.338 443.12 204.227 446.497 203.543C449.707 202.893 451.008 202.184 455.343 198.979C458.267 196.817 459.21 195.923 460.956 193.572C462.907 190.945 463.487 189.803 464.461 186.715L464.561 186.4L464.676 186.089C465.643 183.471 466.388 181.581 467.038 179.933C468.087 177.273 468.887 175.242 469.978 171.791C471.41 167.257 472.23 163.793 472.88 160.378ZM346.844 144.632L348.728 131.288L348.13 131.2L347.525 131.168L346.844 144.632ZM267.971 102.134L265.694 88.8525L261.274 89.6369L258.231 92.9916L267.971 102.134Z" fill="white"/>
<g filter="url(#filter0_f)">
<path fill-rule="evenodd" clip-rule="evenodd" d="M271.778 22.102C266.919 22.3563 263.147 22.7374 259.065 23.3863C242.991 25.9417 227.971 31.9455 214.899 41.0409C207.828 45.961 201.351 51.8096 195.952 58.1492C185.803 70.0659 178.937 83.933 175.86 98.7273C175.052 102.612 174.48 106.813 174.236 110.637C174.192 111.335 174.387 108.656 174.366 108.907C174.213 111.012 175.835 112.804 177.879 112.787L217.376 112.448C218.973 112.434 220.389 111.387 220.916 109.831L221.219 108.935C221.316 108.648 221.38 108.349 221.413 108.047C222.379 99.1016 224.946 93.0116 230.842 85.6461C231.801 84.4472 233.043 83.0065 233.7 82.3304C238.316 77.5797 242.531 74.3498 247.914 71.4399C255.861 67.1442 262.389 65.4999 271.795 65.0708C271.997 65.0616 272.199 65.0364 272.397 64.9947L272.825 64.9047C274.599 64.5309 275.867 62.9115 275.851 61.0412L275.55 25.9271C275.532 23.7678 273.822 22.0319 271.731 22.0498C270.845 22.0657 272.061 22.0871 271.778 22.102Z" fill="white"/>
<path fill-rule="evenodd" clip-rule="evenodd" d="M274.846 23.6893C274.16 22.6991 273.039 22.0537 271.775 22.0497L274.846 23.6893ZM275.08 24.0719C275.374 24.6224 275.544 25.2542 275.55 25.9271L275.851 61.0412C275.867 62.9115 274.599 64.5309 272.825 64.9047L272.397 64.9947C272.199 65.0364 271.997 65.0616 271.795 65.0708C262.389 65.4999 255.861 67.1442 247.914 71.4399C242.531 74.3498 238.316 77.5797 233.7 82.3304C233.043 83.0065 231.801 84.4472 230.842 85.6461C224.946 93.0116 222.379 99.1016 221.413 108.047C221.38 108.349 221.316 108.648 221.219 108.935L220.916 109.831C220.389 111.387 218.973 112.434 217.376 112.448L177.879 112.787C177.734 112.788 177.591 112.78 177.45 112.763C176.897 112.698 176.385 112.501 175.944 112.202C175.388 111.827 174.942 111.294 174.667 110.666M174.523 107.282C174.466 107.822 174.414 108.36 174.368 108.892L174.523 107.282ZM174.523 107.282C174.592 106.639 174.668 105.991 174.752 105.341C175.039 103.118 175.414 100.874 175.86 98.7273C178.937 83.933 185.803 70.0659 195.952 58.1492L198.795 60.7324C189.051 72.1733 182.496 85.4414 179.562 99.5505C178.932 102.579 178.452 105.813 178.171 108.874L217.342 108.538L217.645 107.644C217.645 107.644 217.648 107.632 217.651 107.612C218.703 97.8608 221.59 91.0658 227.923 83.1539C228.919 81.9099 230.248 80.362 231.027 79.5602C235.893 74.5519 240.413 71.0807 246.158 67.9755C254.655 63.3822 261.736 61.6159 271.626 61.1647L271.64 61.1634L272.066 61.0737L271.765 26.0178C267.114 26.2664 263.52 26.6343 259.643 27.2507L259.065 23.3863C261.916 22.9331 264.615 22.6106 267.639 22.3706C267.775 22.3599 267.911 22.3493 268.048 22.3388C269.217 22.2498 270.435 22.1726 271.732 22.1044L271.778 22.102C271.844 22.0985 271.828 22.0947 271.777 22.0907C271.777 22.0907 271.749 22.0886 271.732 22.0876C271.699 22.0855 271.659 22.0834 271.62 22.0813C271.419 22.0706 271.206 22.0592 271.731 22.0498L271.775 22.0497M174.667 110.666C174.443 110.158 174.331 109.589 174.361 108.992C174.364 108.953 174.365 108.924 174.366 108.907L174.368 108.892M174.236 110.637C174.263 110.298 174.339 109.313 174.361 108.992C174.363 108.964 174.364 108.935 174.366 108.907C174.316 109.49 174.273 110.068 174.236 110.637C174.225 110.807 174.225 110.776 174.236 110.637ZM259.065 23.3863C242.991 25.9417 227.971 31.9455 214.899 41.0409C207.828 45.961 201.351 51.8096 195.952 58.1492L198.795 60.7324C203.971 54.6546 210.201 49.0252 217.016 44.284C229.611 35.5205 244.102 29.7213 259.643 27.2507L259.065 23.3863ZM275.08 24.0719C275.009 23.9395 274.931 23.8118 274.846 23.6893L275.08 24.0719Z" fill="white"/>
<path d="M270.713 134.818C267.253 145.249 266.278 146.898 263.293 154.578C257.393 169.758 247.318 193.072 247.318 193.072L246.404 176.388C246.404 176.388 245.695 165.561 246.252 158.663C246.883 150.848 247.631 142.831 249.844 134.998C251.164 130.323 251.531 130.307 253.553 125.118C253.793 124.502 255.737 120.25 257.28 117.207C258.875 114.064 259.422 112.032 261.6 109.292C263.778 106.552 266.648 103.34 266.648 103.34C266.648 103.34 270.713 102.608 272.458 103.29C273.406 103.66 276.151 105.228 276.202 111.136C276.252 117.045 274.172 124.388 270.713 134.818Z" fill="white"/>
<path d="M86.5678 153.276C86.5678 153.276 82.3125 155.987 79.5514 157.665C70.9723 162.88 57.0856 170.123 57.0856 170.123C57.0856 170.123 64.5561 162.16 69.8378 157.748C73.508 154.683 75.4722 153.245 79.5496 150.776C84.2179 147.949 87.1069 146.651 92.1363 144.57C98.5955 141.897 105.914 134.909 109.015 138.653C109.015 138.653 109.749 140.742 107.874 142.713C106.547 144.106 102.688 144.991 97.8038 147.407C93.3684 149.602 86.5678 153.276 86.5678 153.276Z" fill="white"/>
<path d="M371.69 177.508C367.885 187.96 369.133 187.228 362.429 196.284C364.786 186.469 366.083 180.961 368.348 171.126C370.107 163.491 371.197 159.23 372.782 151.56C374.018 145.575 374.843 144.457 375.736 138.418C376.46 133.53 377.549 127.649 378.358 122.773C379.471 116.062 381.036 106.842 382.319 103.211C382.889 101.598 385.632 101.662 386.448 103.175C388.546 107.063 385.405 119.703 384.568 124.673C383.731 129.642 376.99 154.967 375.921 159.897C372.987 173.423 373.116 173.59 371.69 177.508Z" fill="white"/>
<path fill-rule="evenodd" clip-rule="evenodd" d="M74.6818 89.4585C81.3831 92.4983 84.4326 100.572 81.4932 107.492C79.2825 112.696 78.6402 115.122 77.9843 117.6C77.624 118.962 77.2596 120.339 76.6287 122.2C75.3457 125.986 74.3521 129.965 73.261 134.528C73.1583 134.957 73.0545 135.393 72.9492 135.835C72.6723 136.998 72.3857 138.201 72.0852 139.432C72.3317 139.281 72.5842 139.127 72.8433 138.97C78.3076 135.661 81.8685 134.074 87.2029 131.867C87.9005 131.578 88.8902 131.052 90.4695 130.118C90.7575 129.947 91.0913 129.747 91.4569 129.527C92.7022 128.779 94.3167 127.81 95.7509 127.045C97.5022 126.111 100.6 124.562 104.2 124.061C108.487 123.463 114.57 124.314 119.081 129.76L120.646 131.65L121.468 133.988L109.015 138.653C121.468 133.988 121.473 134.002 121.473 134.002L121.478 134.016L121.488 134.045L121.509 134.103L121.55 134.225C121.577 134.309 121.606 134.396 121.634 134.487C121.691 134.67 121.75 134.87 121.808 135.086C121.924 135.516 122.041 136.021 122.14 136.59C122.337 137.717 122.479 139.184 122.367 140.885C122.127 144.512 120.736 148.725 117.325 152.309C115.418 154.313 113.331 155.442 112.271 155.98C111.08 156.584 109.841 157.087 108.97 157.436C108.655 157.562 108.351 157.683 108.055 157.8C106.472 158.429 105.103 158.973 103.533 159.75C101.482 160.764 98.8035 162.162 96.5685 163.345C95.4658 163.928 94.4979 164.445 93.8064 164.816L93.1151 165.187L92.7975 165.388C92.3468 165.674 91.7169 166.073 90.9986 166.525C89.5786 167.42 87.7512 168.563 86.2768 169.46C83.8952 170.907 81.1699 172.479 78.4584 174.002C80.5163 176.414 82.5983 178.914 84.453 181.252C86.1959 183.448 87.7305 185.486 89.1468 187.366C89.244 187.495 89.3406 187.623 89.4367 187.751C90.9552 189.766 92.3646 191.628 93.9661 193.618C95.1788 195.125 96.037 196.249 96.8353 197.295C97.8123 198.574 98.6995 199.736 100.037 201.339C102.1 203.812 103.443 205.024 104.146 205.475C104.478 205.689 104.656 205.762 105.228 205.798C105.635 205.824 106.23 205.821 107.162 205.744C108.128 205.664 109.192 205.531 110.669 205.341C111.899 205.183 112.282 204.977 112.383 204.923C112.536 204.84 113.043 204.544 114.168 203.363C116.263 201.161 117.33 199.067 119.187 195.146C121.595 190.061 124.008 183.328 125.887 177.331C127.917 170.849 130.339 164.75 134.619 157.852C136.53 154.272 139.013 150.652 142.293 147.206C149.827 139.29 156.529 136.453 161.712 134.26L161.773 134.234C168.516 131.38 175.733 130.454 181.704 130.442C187.384 130.431 193.632 131.249 198.297 133.315C199.164 133.699 200.003 134.116 200.814 134.557C203.832 131.931 207.949 130.72 212.108 131.633C219.267 133.204 223.84 140.47 222.323 147.863C221.626 151.261 221.069 154.641 220.499 158.102C219.285 165.463 218.012 173.186 215.206 182.205C213.863 186.522 212.521 190.004 211.241 193.326C211.078 193.749 210.916 194.169 210.755 194.587C210.875 195.617 210.95 196.567 211.003 197.428C211.052 198.213 211.086 198.999 211.113 199.618C211.119 199.748 211.124 199.872 211.129 199.986C211.162 200.714 211.189 201.212 211.226 201.645C211.294 202.433 211.375 202.736 211.434 202.913C211.482 203.058 211.618 203.43 212.063 204.098C212.093 204.128 212.131 204.165 212.179 204.208C212.442 204.451 212.825 204.762 213.282 205.076C213.741 205.392 214.147 205.625 214.431 205.765C214.461 205.779 214.487 205.791 214.509 205.802C215.149 205.957 215.68 206.125 216.039 206.244C216.442 206.379 216.849 206.528 217.014 206.588C217.435 206.74 217.567 206.783 217.708 206.822C217.808 206.849 218.131 206.937 218.794 206.994C219.29 206.785 219.897 206.51 220.569 206.177C221.559 205.686 222.523 205.151 223.324 204.646C224.042 204.193 224.387 203.915 224.461 203.856C224.478 203.842 224.471 203.849 224.471 203.849C225.826 202.561 226.252 202.086 226.923 201.216C227.671 200.247 228.546 199.01 230.19 196.686C230.589 196.121 231.034 195.492 231.534 194.787L233.885 190.098L233.179 177.218L233.174 177.138L233.15 176.736C233.13 176.394 233.102 175.908 233.071 175.308C233.009 174.109 232.934 172.437 232.876 170.531C232.766 166.866 232.704 161.786 233.048 157.519C233.676 149.743 234.495 140.465 237.124 131.158C237.904 128.398 238.494 126.704 239.243 124.886C239.498 124.269 239.703 123.79 239.904 123.321C240.274 122.454 240.631 121.62 241.262 120.003C241.756 118.735 243.949 113.994 245.543 110.852C245.627 110.686 245.752 110.407 245.918 110.038C246.748 108.191 248.593 104.083 251.358 100.605C252.616 99.0225 254.016 97.374 255.053 96.1736C255.582 95.5614 256.038 95.0405 256.365 94.6701C256.528 94.4846 256.66 94.3359 256.753 94.2312L256.862 94.108L256.907 94.0584C256.907 94.0584 256.909 94.0559 266.648 103.34C264.366 89.8584 264.369 89.8579 264.369 89.8579L264.393 89.8536L264.426 89.8478L264.511 89.8329C264.576 89.8218 264.657 89.8081 264.753 89.7924C264.944 89.7613 265.198 89.7217 265.5 89.6789C266.091 89.595 266.927 89.4899 267.879 89.4146C268.796 89.342 270.031 89.2795 271.365 89.3376C272.472 89.3858 274.724 89.547 277.14 90.4909C279.484 91.4065 282.795 93.3389 285.459 97.2048C288.138 101.091 289.406 105.835 289.451 111.023C289.525 119.672 286.567 129.253 283.248 139.26C280.635 147.138 279.243 150.576 277.62 154.586C277.003 156.11 276.353 157.717 275.589 159.682C272.565 167.464 268.508 177.237 265.242 184.985C263.602 188.877 262.148 192.289 261.104 194.729C261.002 194.967 260.904 195.196 260.811 195.415C260.881 196.006 260.969 196.651 261.077 197.323C261.303 198.719 261.59 200.045 261.926 201.149C262.215 202.096 262.438 202.543 262.486 202.639C262.499 202.664 262.5 202.66 262.486 202.639C263.974 204.88 264.606 205.601 264.964 205.926C265.077 206.029 265.132 206.061 265.176 206.085C265.23 206.114 265.43 206.217 265.89 206.341C266.457 206.494 266.726 206.532 266.812 206.539C266.794 206.54 266.789 206.541 266.812 206.539C266.884 206.534 267.199 206.498 267.971 206.294C268.04 206.259 268.227 206.155 268.533 205.923C269.102 205.492 269.788 204.84 270.545 203.975C271.284 203.129 271.949 202.245 272.534 201.423C272.745 201.127 272.899 200.907 273.068 200.664C273.162 200.53 273.26 200.389 273.375 200.225C273.505 200.041 273.695 199.771 273.896 199.501L273.907 199.486C274.039 199.307 274.511 198.671 275.143 198.003C276.049 197.046 280.828 191.388 285.906 184.379C288.795 180.392 291.291 176.624 293.148 173.458L293.152 173.447C293.754 171.21 294.441 168.659 295.352 166.439C296.698 163.163 298.504 160.403 300.74 157.172C302.757 154.257 304.264 152.139 305.83 150.281C307.388 148.432 308.871 147.005 310.439 145.497L310.66 145.285C312.617 143.402 315.517 141.276 318.486 139.479C321.478 137.668 325.552 135.573 329.922 134.442C334.116 133.356 338.165 132.978 340.994 132.844C342.45 132.775 343.681 132.766 344.576 132.775C345.025 132.78 345.394 132.79 345.67 132.799C345.808 132.804 345.923 132.808 346.013 132.812L346.13 132.818L346.175 132.82L346.206 132.822C346.206 132.822 346.209 132.822 345.527 146.488C347.407 132.943 347.409 132.943 347.409 132.943L347.454 132.95L347.543 132.963L347.836 133.009C348.081 133.048 348.422 133.103 348.84 133.173C349.67 133.314 350.825 133.519 352.133 133.782C354.537 134.264 358.242 135.09 361.376 136.281C361.787 136.438 362.188 136.593 362.578 136.747C362.598 136.616 362.618 136.481 362.639 136.343C363.128 133.038 363.81 129.103 364.429 125.536C364.747 123.7 365.049 121.961 365.299 120.455C365.855 117.103 366.55 112.96 367.278 109.168C367.944 105.699 368.827 101.471 369.873 98.5128C372.815 90.1869 380.43 88.32 384.338 88.3364C388.331 88.3533 394.574 90.1307 398.021 96.5182C400.332 100.8 400.422 105.424 400.407 107.581C400.388 110.341 400.062 113.177 399.708 115.581C399.28 118.494 398.382 123.104 397.913 125.51C397.76 126.293 397.653 126.843 397.622 127.025C397.08 130.246 394.97 138.61 393.147 145.781C392.723 147.449 392.306 149.084 391.908 150.646C390.433 156.432 389.216 161.209 388.85 162.896C388.281 165.519 387.823 167.67 387.439 169.477C385.955 176.448 385.562 178.291 384.092 182.33C383.332 184.418 382.798 185.998 382.319 187.416C382.241 187.649 382.163 187.878 382.087 188.105C381.572 189.623 380.98 191.352 380.191 193.13C379.157 195.457 377.926 197.548 376.364 199.849C376.389 200.146 376.411 200.434 376.43 200.712C376.489 201.546 376.533 202.384 376.568 203.058C376.576 203.201 376.583 203.337 376.59 203.464C376.633 204.264 376.668 204.829 376.715 205.321C376.777 205.989 376.843 206.302 376.872 206.417C376.894 206.446 376.93 206.49 376.984 206.552C378.401 208.156 378.963 208.604 379.222 208.78L379.234 208.788C379.317 208.846 379.582 209.03 380.545 209.226C382.261 209.575 382.976 209.649 385.148 209.446C385.165 209.445 385.182 209.443 385.199 209.442C385.626 209.405 386.188 209.357 390.322 207.046C392.7 205.717 393.952 204.674 395.81 202.392C396.018 201.875 396.283 201.195 396.603 200.349C397.457 198.089 398.517 195.147 399.621 192.072C399.754 191.701 399.887 191.329 400.021 190.956C400.975 188.294 401.94 185.603 402.747 183.422C403.206 182.185 403.653 181.004 404.045 180.031C404.239 179.551 404.46 179.018 404.691 178.508L404.705 178.477C404.844 178.169 405.335 177.082 406.072 175.979C406.487 175.358 406.942 174.785 407.432 174.258C407.448 174.205 407.464 174.151 407.48 174.099C407.813 172.983 408.107 172 408.321 171.176C410.169 164.064 413.509 155.308 420.98 147.458C428.514 139.542 435.216 136.706 440.399 134.512L440.46 134.487C447.203 131.633 454.42 130.706 460.391 130.695C466.071 130.683 472.319 131.502 476.984 133.568C477.851 133.952 478.69 134.368 479.501 134.809C482.518 132.184 486.636 130.973 490.795 131.886C497.954 133.457 502.527 140.723 501.01 148.116C500.313 151.513 499.756 154.894 499.186 158.354C497.972 165.715 496.699 173.439 493.893 182.458C492.55 186.774 491.208 190.257 489.928 193.578C489.765 194.001 489.603 194.421 489.442 194.84C489.562 195.87 489.637 196.82 489.69 197.681C489.739 198.467 489.773 199.253 489.8 199.872C489.806 200.002 489.811 200.125 489.816 200.238C489.849 200.967 489.876 201.465 489.913 201.898C489.981 202.685 490.062 202.989 490.121 203.165C490.169 203.31 490.305 203.682 490.75 204.351C490.78 204.38 490.818 204.417 490.866 204.461C491.129 204.703 491.512 205.014 491.969 205.329C492.428 205.645 492.834 205.878 493.118 206.017C493.148 206.032 493.174 206.044 493.196 206.054C493.836 206.209 494.367 206.377 494.726 206.497C495.089 206.618 495.455 206.751 495.645 206.82L495.701 206.84C496.122 206.993 496.254 207.036 496.395 207.074C496.553 207.117 497.27 207.312 499.006 207.297C506.323 207.234 512.307 213.31 512.372 220.868C512.437 228.425 506.558 234.603 499.24 234.665C495.298 234.699 492.223 234.24 489.648 233.538C488.427 233.205 487.461 232.855 486.938 232.665C486.893 232.649 486.847 232.632 486.81 232.619C483.062 231.691 479.648 229.732 477.271 228.094C475.329 226.756 473.046 224.918 471.083 222.692C470.611 223.06 470.124 223.432 469.619 223.811C464.141 227.923 459.146 231.34 450.372 233.143C446.121 234.017 441.33 234.729 436.246 234.228C430.887 233.701 425.9 231.908 421.009 228.761C418.387 227.075 415.904 225.148 413.674 222.799C410.77 225.914 407.517 228.562 402.946 231.118C398.756 233.46 393.997 236.104 387.542 236.705C382.82 237.145 379.58 236.921 375.441 236.08C371.481 235.275 367.954 233.872 364.684 231.654C362.03 229.854 359.92 227.759 358.208 225.88C357.115 226.88 355.94 227.848 354.679 228.761C351.317 231.196 347.821 233.579 343.443 234.999C339.262 236.356 335.061 236.554 331.194 236.731C330.976 236.741 330.752 236.751 330.524 236.762C325.679 236.993 318.462 237.336 309.419 234.127C309.265 234.087 309.098 234.04 308.922 233.988C307.554 233.582 306.069 232.948 304.532 231.969C301.555 230.073 299.054 227.316 296.84 223.919C295.542 221.928 294.508 219.926 293.683 217.929C292.839 219.104 291.662 220.672 290.213 222.328C287.416 225.526 282.169 230.758 274.792 232.746C269.484 234.177 264.995 234.384 259.203 232.821C251.788 230.82 247.202 226.768 243.856 222.598C243.403 223.052 242.928 223.511 242.419 223.995C239.258 226.999 234.973 229.401 232.052 230.85C230.425 231.656 228.762 232.393 227.246 232.964C226.497 233.246 225.645 233.54 224.767 233.782C224.162 233.95 222.515 234.396 220.553 234.413C216.611 234.447 213.536 233.987 210.961 233.285C209.74 232.953 208.774 232.602 208.252 232.412C208.207 232.396 208.16 232.379 208.123 232.366C204.375 231.438 200.961 229.48 198.584 227.841C196.642 226.503 194.359 224.666 192.396 222.44C191.925 222.808 191.437 223.179 190.932 223.559C185.454 227.67 180.459 231.088 171.685 232.891C167.434 233.764 162.643 234.476 157.559 233.976C152.2 233.448 147.213 231.655 142.322 228.509C139.322 226.579 136.505 224.335 134.04 221.504C133.727 221.854 133.404 222.204 133.071 222.555C130.754 224.989 128.05 227.361 124.633 229.199C121.158 231.067 117.603 232.032 113.958 232.501C113.72 232.531 113.475 232.564 113.221 232.597C107.898 233.298 99.1033 234.457 90.1633 228.716C85.9058 225.982 82.421 222.14 79.9671 219.199C78.5844 217.542 76.6852 215.088 75.2625 213.249C74.5376 212.312 73.9363 211.535 73.5902 211.105C71.6899 208.744 70.05 206.574 68.5265 204.551L68.2749 204.218C66.8268 202.295 65.4832 200.511 63.9611 198.593C63.3696 197.848 62.7451 197.075 62.0984 196.287C60.9306 200.086 59.716 203.902 58.5735 207.245C58.1764 208.408 57.7491 209.671 57.3091 210.973C56.4165 213.612 55.4717 216.406 54.6212 218.821C53.9774 220.648 53.3205 222.452 52.707 223.991C52.2594 225.114 51.3527 227.371 50.1358 229.215C49.2498 230.558 48.1311 231.916 46.8123 233.125C45.6723 234.17 43.4514 235.972 40.2879 236.894C36.5269 237.991 30.5474 237.877 25.9524 232.896C22.4198 229.067 21.8699 224.491 21.7356 222.469C21.4053 217.498 22.9469 212.665 23.7255 210.224L23.7434 210.168C24.082 209.107 24.3886 208.182 24.6691 207.336C25.2908 205.461 25.7839 203.974 26.2109 202.244C26.6507 200.462 27.0782 198.7 27.5056 196.939C28.6382 192.27 29.77 187.605 31.1283 182.583C32.8092 176.37 33.9833 172.806 35.3763 168.578C35.99 166.715 36.6462 164.723 37.407 162.319C38.3831 159.234 39.2017 156.681 39.9676 154.291C41.3555 149.962 42.5706 146.172 44.2373 140.735C45.3508 137.103 46.2331 133.405 47.2368 129.199C47.3348 128.788 47.434 128.372 47.5347 127.951C48.6236 123.398 49.8755 118.283 51.6168 113.145C51.6351 113.091 51.6814 112.916 51.7562 112.632C52.257 110.734 54.0351 103.994 57.2258 96.4835C60.1653 89.5639 67.9806 86.4187 74.6818 89.4585ZM157.512 171.688C156.539 173.645 155.82 175.754 155.228 178.031C154.467 180.962 153.869 182.938 153.403 184.48C152.607 187.112 152.192 188.484 151.992 191.197C151.968 191.509 151.947 191.804 151.926 192.083C151.724 194.808 151.64 195.947 151.657 196.975C151.668 197.634 151.72 198.233 152.073 199.511C152.642 201.573 153.144 202.426 153.479 202.884C153.819 203.348 154.501 204.107 156.322 205.279C157.996 206.355 159.08 206.633 160.058 206.73C161.312 206.853 163.124 206.741 166.501 206.047C169.711 205.388 171.011 204.668 175.346 201.415C178.269 199.221 179.213 198.314 180.958 195.928C182.908 193.261 183.489 192.102 184.463 188.968L184.562 188.648L184.677 188.333C185.644 185.675 186.389 183.757 187.039 182.083C188.087 179.384 188.887 177.322 189.977 173.819C191.409 169.218 192.228 165.702 192.877 162.235C191.174 160.534 189.374 159.137 187.864 158.468L187.849 158.464C187.647 158.407 185.498 157.804 181.77 157.811C178.12 157.819 174.519 158.423 171.832 159.56C169.383 160.597 167.841 161.269 166.279 162.21C164.837 163.078 163.193 164.3 161.196 166.397C159.916 167.742 158.882 169.177 158.027 170.711C157.869 171.041 157.698 171.367 157.512 171.688ZM317.79 184.094C316.736 188.238 316.655 190.679 316.785 196.483C316.96 204.357 317.488 206.53 318.716 208.482C322.569 209.729 325.48 209.596 329.877 209.394L330.004 209.388C334.368 209.188 335.129 209.004 335.489 208.887L335.497 208.885C335.672 208.828 336.324 208.618 339.459 206.348C342.558 204.104 344.672 200.497 346.715 196.55C346.856 196.279 347.002 195.975 347.266 195.428L347.382 195.187C347.677 194.576 348.088 193.729 348.56 192.847C348.963 192.093 349.533 191.072 350.296 189.954C352.206 181.978 353.446 176.685 355.458 167.952C355.812 166.416 356.135 165.032 356.437 163.744C355.239 163.16 353.921 162.607 352.235 161.966C351.226 161.582 349.291 161.09 347.092 160.648C346.098 160.449 345.21 160.291 344.573 160.183C344.489 160.169 344.41 160.156 344.336 160.144L344.314 160.143C343.834 160.138 343.107 160.142 342.226 160.184C340.381 160.272 338.241 160.508 336.377 160.99C335.412 161.24 333.782 161.952 331.892 163.095C331.022 163.622 330.242 164.152 329.627 164.607C329.08 165.011 328.797 165.257 328.736 165.31C328.723 165.321 328.729 165.315 328.729 165.315C326.882 167.092 326.384 167.59 325.822 168.257C325.194 169.001 324.362 170.118 322.301 173.096C322.204 173.237 322.11 173.372 322.021 173.502C321.916 174.107 321.77 174.712 321.581 175.313C320.706 178.107 319.371 181.092 317.79 184.094ZM471.564 162.488C469.861 160.787 468.061 159.389 466.551 158.721L466.535 158.717C466.334 158.66 464.185 158.057 460.457 158.064C456.807 158.071 453.206 158.676 450.519 159.813C448.07 160.85 446.528 161.522 444.966 162.462C443.524 163.33 441.88 164.552 439.883 166.65C436.745 169.948 435.083 173.791 433.915 178.284C433.154 181.215 432.556 183.19 432.09 184.733C431.294 187.364 430.879 188.737 430.679 191.449C430.655 191.762 430.634 192.056 430.613 192.334C430.411 195.06 430.326 196.199 430.344 197.228C430.355 197.887 430.407 198.485 430.76 199.764C431.329 201.825 431.831 202.679 432.166 203.137C432.506 203.601 433.188 204.36 435.009 205.532C436.683 206.608 437.767 206.886 438.745 206.982C439.999 207.106 441.811 206.994 445.187 206.3C448.398 205.64 449.698 204.921 454.033 201.668C456.956 199.473 457.9 198.566 459.645 196.18C461.595 193.514 462.176 192.355 463.15 189.221L463.249 188.9L463.364 188.585C464.331 185.927 465.076 184.009 465.725 182.336C466.773 179.637 467.574 177.575 468.664 174.072C470.096 169.47 470.915 165.954 471.564 162.488ZM345.527 146.488L347.409 132.943L346.811 132.854L346.206 132.822L345.527 146.488ZM266.648 103.34L264.369 89.8579L259.949 90.6535L256.907 94.0584L266.648 103.34Z" fill="white"/>
</g>
<defs>
<filter id="filter0_f" x="0" y="0" width="532.5" height="260.027" filterUnits="userSpaceOnUse" color-interpolation-filters="sRGB">
<feFlood flood-opacity="0" result="BackgroundImageFix"/>
<feBlend mode="normal" in="SourceGraphic" in2="BackgroundImageFix" result="shape"/>
<feGaussianBlur stdDeviation="10" result="effect1_foregroundBlur"/>
</filter>
</defs>
</svg>
