<svg width="533" height="261" fill="none" xmlns="http://www.w3.org/2000/svg"><g filter="url(#filter0_f)" fill="#fff"><path fill-rule="evenodd" clip-rule="evenodd" d="M271.778 22.102c-4.859.254-8.631.635-12.713 1.284-16.074 2.556-31.094 8.56-44.166 17.655-7.071 4.92-13.548 10.769-18.947 17.108-10.149 11.917-17.015 25.784-20.092 40.578a87.56 87.56 0 00-1.624 11.91c-.044.698.151-1.981.13-1.73-.153 2.105 1.469 3.897 3.513 3.88l39.497-.339c1.597-.014 3.013-1.061 3.54-2.617l.303-.896c.097-.287.161-.586.194-.888.966-8.945 3.533-15.035 9.429-22.4.959-1.2 2.201-2.64 2.858-3.317 4.616-4.75 8.831-7.98 14.214-10.89 7.947-4.296 14.475-5.94 23.881-6.37.202-.008.404-.034.602-.075l.428-.09c1.774-.374 3.042-1.994 3.026-3.864l-.301-35.114c-.018-2.16-1.728-3.895-3.819-3.877-.886.016.33.037.047.052z"/><path fill-rule="evenodd" clip-rule="evenodd" d="M274.846 23.69c-.686-.99-1.807-1.636-3.071-1.64l3.071 1.64zm.234.382c.294.55.464 1.182.47 1.855l.301 35.114c.016 1.87-1.252 3.49-3.026 3.864l-.428.09c-.198.041-.4.067-.602.076-9.406.429-15.934 2.073-23.881 6.369-5.383 2.91-9.598 6.14-14.214 10.89-.657.677-1.899 2.117-2.858 3.316-5.896 7.366-8.463 13.456-9.429 22.401a4.202 4.202 0 01-.194.888l-.303.896c-.527 1.556-1.943 2.603-3.54 2.617l-39.497.339a3.38 3.38 0 01-1.935-.585 3.591 3.591 0 01-1.277-1.536m-.144-3.384a85.64 85.64 0 00-.155 1.61l.155-1.61zm0 0a88.504 88.504 0 011.337-8.555c3.077-14.794 9.943-28.661 20.092-40.578l2.843 2.583c-9.744 11.441-16.299 24.71-19.233 38.819a84.702 84.702 0 00-1.391 9.323l39.171-.336.303-.894.006-.032c1.052-9.751 3.939-16.546 10.272-24.458.996-1.244 2.325-2.792 3.104-3.594 4.866-5.008 9.386-8.48 15.131-11.585 8.497-4.593 15.578-6.36 25.468-6.81l.014-.002.426-.09-.301-35.055c-4.651.248-8.245.616-12.122 1.233l-.578-3.865a107.098 107.098 0 018.983-1.047 157.15 157.15 0 013.684-.235l.046-.002c.066-.003.05-.007-.001-.011l-.045-.003-.112-.007c-.201-.01-.414-.022.111-.031h.044m-97.108 88.616a3.68 3.68 0 01-.306-1.674l.005-.085.002-.015m-.132 1.745c.027-.339.103-1.324.125-1.645l.005-.085c-.05.583-.093 1.161-.13 1.73-.011.17-.011.139 0 0zm84.829-87.25c-16.074 2.555-31.094 8.558-44.166 17.654-7.071 4.92-13.548 10.769-18.947 17.108l2.843 2.583c5.176-6.077 11.406-11.707 18.221-16.448 12.595-8.764 27.086-14.563 42.627-17.033l-.578-3.865zm16.015.685a3.922 3.922 0 00-.234-.383l.234.383z"/><path d="M270.713 134.818c-3.46 10.431-4.435 12.08-7.42 19.76-5.9 15.18-15.975 38.494-15.975 38.494l-.914-16.684s-.709-10.827-.152-17.725c.631-7.815 1.379-15.832 3.592-23.665 1.32-4.675 1.687-4.691 3.709-9.88.24-.616 2.184-4.868 3.727-7.911 1.595-3.143 2.142-5.175 4.32-7.915 2.178-2.74 5.048-5.952 5.048-5.952s4.065-.732 5.81-.05c.948.37 3.693 1.938 3.744 7.846.05 5.909-2.03 13.252-5.489 23.682zM86.568 153.276s-4.255 2.711-7.017 4.389c-8.579 5.215-22.465 12.458-22.465 12.458s7.47-7.963 12.752-12.375c3.67-3.065 5.634-4.503 9.712-6.972 4.668-2.827 7.557-4.125 12.586-6.206 6.46-2.673 13.778-9.661 16.879-5.917 0 0 .734 2.089-1.141 4.06-1.327 1.393-5.186 2.278-10.07 4.694-4.436 2.195-11.236 5.869-11.236 5.869zm285.122 24.232c-3.805 10.452-2.557 9.72-9.261 18.776a2365.267 2365.267 0 005.919-25.158c1.759-7.635 2.849-11.896 4.434-19.566 1.236-5.985 2.061-7.103 2.954-13.142.724-4.888 1.813-10.769 2.622-15.645 1.113-6.711 2.678-15.931 3.961-19.562.57-1.613 3.313-1.549 4.129-.036 2.098 3.888-1.043 16.528-1.88 21.498-.837 4.969-7.578 30.294-8.647 35.224-2.934 13.526-2.805 13.693-4.231 17.611z"/><path fill-rule="evenodd" clip-rule="evenodd" d="M74.682 89.459c6.701 3.04 9.75 11.113 6.811 18.033-2.21 5.204-2.853 7.63-3.509 10.108-.36 1.362-.724 2.739-1.355 4.6-1.283 3.786-2.277 7.765-3.368 12.328l-.312 1.307a645.493 645.493 0 01-.864 3.597l.758-.462c5.465-3.309 9.025-4.896 14.36-7.103.697-.289 1.687-.815 3.266-1.749.288-.171.622-.371.988-.591 1.245-.748 2.86-1.717 4.294-2.482 1.751-.934 4.849-2.483 8.449-2.984 4.287-.598 10.37.253 14.881 5.699l1.565 1.89.822 2.338-12.453 4.665c12.453-4.665 12.458-4.651 12.458-4.651l.005.014.01.029.021.058.041.122c.027.084.056.171.084.262a16.921 16.921 0 01.506 2.103 18.09 18.09 0 01.227 4.295 18.264 18.264 0 01-5.042 11.424c-1.907 2.004-3.994 3.133-5.054 3.671-1.191.604-2.43 1.107-3.301 1.456l-.915.364c-1.583.629-2.952 1.173-4.522 1.95-2.051 1.014-4.73 2.412-6.965 3.595-1.102.583-2.07 1.1-2.762 1.471l-.69.371-.319.201c-.45.286-1.08.685-1.798 1.137a381.31 381.31 0 01-4.722 2.935 272.343 272.343 0 01-7.819 4.542 269.492 269.492 0 015.995 7.25c1.743 2.196 3.278 4.234 4.694 6.114l.29.385c1.518 2.015 2.928 3.877 4.53 5.867a166.553 166.553 0 012.868 3.677 108.83 108.83 0 003.202 4.044c2.063 2.473 3.406 3.685 4.109 4.136.332.214.51.287 1.082.323.407.026 1.002.023 1.934-.054.966-.08 2.03-.213 3.507-.403 1.23-.158 1.613-.364 1.714-.418.153-.083.66-.379 1.785-1.56 2.095-2.202 3.162-4.296 5.019-8.217 2.408-5.085 4.821-11.818 6.7-17.815 2.03-6.482 4.452-12.581 8.732-19.479a48.435 48.435 0 017.674-10.646c7.534-7.916 14.236-10.753 19.419-12.946l.061-.026c6.743-2.854 13.96-3.78 19.931-3.792 5.68-.011 11.928.807 16.593 2.873.867.384 1.706.801 2.517 1.242 3.018-2.626 7.135-3.837 11.294-2.924 7.159 1.571 11.732 8.837 10.215 16.23-.697 3.398-1.254 6.778-1.824 10.239-1.214 7.361-2.487 15.084-5.293 24.103-1.343 4.317-2.685 7.799-3.965 11.121l-.486 1.261c.12 1.03.195 1.98.248 2.841.049.785.083 1.571.11 2.19l.016.368c.033.728.06 1.226.097 1.659.068.788.149 1.091.208 1.268.048.145.184.517.629 1.185a10.132 10.132 0 001.219.978c.459.316.865.549 1.149.689l.078.037c.64.155 1.171.323 1.53.442.403.135.81.284.975.344.421.152.553.195.694.234.1.027.423.115 1.086.172a32.382 32.382 0 001.775-.817 31.8 31.8 0 002.755-1.531c.718-.453 1.063-.731 1.137-.79.017-.014.01-.007.01-.007 1.355-1.288 1.781-1.763 2.452-2.633.748-.969 1.623-2.206 3.267-4.53l1.344-1.899 2.351-4.689-.706-12.88-.005-.08-.024-.402a229.22 229.22 0 01-.274-6.205c-.11-3.665-.172-8.745.172-13.012.628-7.776 1.447-17.054 4.076-26.361.78-2.76 1.37-4.454 2.119-6.272.255-.617.46-1.096.661-1.565.37-.867.727-1.701 1.358-3.318.494-1.268 2.687-6.009 4.281-9.151.084-.166.209-.445.375-.814.83-1.847 2.675-5.955 5.44-9.433a147.57 147.57 0 013.695-4.431 192.945 192.945 0 011.7-1.943l.109-.123.045-.05s.002-.002 9.741 9.282c-2.282-13.482-2.279-13.482-2.279-13.482l.024-.004.033-.006.085-.015a34.286 34.286 0 01.989-.154 38.966 38.966 0 012.379-.264 28.77 28.77 0 013.486-.077c1.107.048 3.359.209 5.775 1.153 2.344.915 5.655 2.848 8.319 6.714 2.679 3.886 3.947 8.63 3.992 13.818.074 8.649-2.884 18.23-6.203 28.237-2.613 7.878-4.005 11.316-5.628 15.326a373.976 373.976 0 00-2.031 5.096c-3.024 7.782-7.081 17.555-10.347 25.303a1943.615 1943.615 0 01-4.431 10.43c.07.591.158 1.236.266 1.908.226 1.396.513 2.722.849 3.826.289.947.512 1.394.56 1.49.013.025.014.021 0 0 1.488 2.241 2.12 2.962 2.478 3.287a.988.988 0 00.212.159c.054.029.254.132.714.256.567.153.836.191.922.198-.018.001-.023.002 0 0 .072-.005.387-.041 1.159-.245.069-.035.256-.139.562-.371.569-.431 1.255-1.083 2.012-1.948a32.699 32.699 0 001.989-2.552c.211-.296.365-.516.534-.759l.307-.439c.13-.184.32-.454.521-.724l.011-.015c.132-.179.604-.815 1.236-1.483.906-.957 5.685-6.615 10.763-13.624 2.889-3.987 5.385-7.755 7.242-10.921l.004-.011c.602-2.237 1.289-4.788 2.2-7.008 1.346-3.276 3.152-6.036 5.388-9.267 2.017-2.915 3.524-5.033 5.09-6.891 1.558-1.849 3.041-3.276 4.609-4.784l.221-.212c1.957-1.883 4.857-4.009 7.826-5.806 2.992-1.811 7.066-3.906 11.436-5.037 4.194-1.086 8.243-1.464 11.072-1.598 1.456-.069 2.687-.078 3.582-.069.449.005.818.015 1.094.024l.343.013.117.006.045.002.031.002s.003 0-.679 13.666c1.88-13.545 1.882-13.545 1.882-13.545l.045.007.089.013.293.046a111.776 111.776 0 014.297.773c2.404.482 6.109 1.308 9.243 2.499.411.157.812.312 1.202.466l.061-.404c.489-3.305 1.171-7.24 1.79-10.807.318-1.836.62-3.575.87-5.081.556-3.352 1.251-7.495 1.979-11.287.666-3.469 1.549-7.697 2.595-10.655 2.942-8.326 10.557-10.193 14.465-10.177 3.993.017 10.236 1.795 13.683 8.182 2.311 4.282 2.401 8.906 2.386 11.063-.019 2.76-.345 5.596-.699 8-.428 2.913-1.326 7.523-1.795 9.929-.153.783-.26 1.333-.291 1.515-.542 3.221-2.652 11.585-4.475 18.756l-1.239 4.865c-1.475 5.786-2.692 10.563-3.058 12.25-.569 2.623-1.027 4.774-1.411 6.581-1.484 6.971-1.877 8.814-3.347 12.853a213.703 213.703 0 00-1.773 5.086l-.232.689c-.515 1.518-1.107 3.247-1.896 5.025-1.034 2.327-2.265 4.418-3.827 6.719.025.297.047.585.066.863.059.834.103 1.672.138 2.346l.022.406c.043.8.078 1.365.125 1.857.062.668.128.981.157 1.096.022.029.058.073.112.135 1.417 1.604 1.979 2.052 2.238 2.228l.012.008c.083.058.348.242 1.311.438 1.716.349 2.431.423 4.603.22l.051-.004c.427-.037.989-.085 5.123-2.396 2.378-1.329 3.63-2.372 5.488-4.654.208-.517.473-1.197.793-2.043.854-2.26 1.914-5.202 3.018-8.277l.4-1.116a839.722 839.722 0 012.726-7.534c.459-1.237.906-2.418 1.298-3.391.194-.48.415-1.013.646-1.523l.014-.031c.139-.308.63-1.395 1.367-2.498.415-.621.87-1.194 1.36-1.721l.048-.159c.333-1.116.627-2.099.841-2.923 1.848-7.112 5.188-15.868 12.659-23.718 7.534-7.916 14.236-10.752 19.419-12.946l.061-.025c6.743-2.854 13.96-3.781 19.931-3.792 5.68-.012 11.928.807 16.593 2.873.867.384 1.706.8 2.517 1.241 3.017-2.625 7.135-3.836 11.294-2.923 7.159 1.571 11.732 8.837 10.215 16.23-.697 3.397-1.254 6.778-1.824 10.238-1.214 7.361-2.487 15.085-5.293 24.104-1.343 4.316-2.685 7.799-3.965 11.12l-.486 1.262c.12 1.03.195 1.98.248 2.841.049.786.083 1.572.11 2.191l.016.366c.033.729.06 1.227.097 1.66.068.787.149 1.091.208 1.267.048.145.184.517.629 1.186.03.029.068.066.116.11.263.242.646.553 1.103.868a9.486 9.486 0 001.227.725c.64.155 1.171.323 1.53.443.363.121.729.254.919.323l.056.02c.421.153.553.196.694.234.158.043.875.238 2.611.223 7.317-.063 13.301 6.013 13.366 13.571.065 7.557-5.814 13.735-13.132 13.797-3.942.034-7.017-.425-9.592-1.127a33.49 33.49 0 01-2.71-.873l-.128-.046c-3.748-.928-7.162-2.887-9.539-4.525-1.942-1.338-4.225-3.176-6.188-5.402-.472.368-.959.74-1.464 1.119-5.478 4.112-10.473 7.529-19.247 9.332-4.251.874-9.042 1.586-14.126 1.085-5.359-.527-10.346-2.32-15.237-5.467-2.622-1.686-5.105-3.613-7.335-5.962-2.904 3.115-6.157 5.763-10.728 8.319-4.19 2.342-8.949 4.986-15.404 5.587-4.722.44-7.962.216-12.101-.625-3.96-.805-7.487-2.208-10.757-4.426-2.654-1.8-4.764-3.895-6.476-5.774a39.868 39.868 0 01-3.529 2.881c-3.362 2.435-6.858 4.818-11.236 6.238-4.181 1.357-8.382 1.555-12.249 1.732l-.67.031c-4.845.231-12.062.574-21.105-2.635a17.317 17.317 0 01-4.887-2.158c-2.977-1.896-5.478-4.653-7.692-8.05a36.338 36.338 0 01-3.157-5.99 58.517 58.517 0 01-3.47 4.399c-2.797 3.198-8.044 8.43-15.421 10.418-5.308 1.431-9.797 1.638-15.589.075-7.415-2.001-12.001-6.053-15.347-10.223-.453.454-.928.913-1.437 1.397-3.161 3.004-7.446 5.406-10.367 6.855a53.91 53.91 0 01-4.806 2.114c-.749.282-1.601.576-2.479.818-.605.168-2.252.614-4.214.631-3.942.034-7.017-.426-9.592-1.128a32.902 32.902 0 01-2.709-.873l-.129-.046c-3.748-.928-7.162-2.886-9.539-4.525-1.942-1.338-4.225-3.175-6.188-5.401-.471.368-.959.739-1.464 1.119-5.478 4.111-10.473 7.529-19.247 9.332-4.251.873-9.042 1.585-14.126 1.085-5.359-.528-10.346-2.321-15.237-5.467-3-1.93-5.817-4.174-8.282-7.005-.313.35-.636.7-.969 1.051-2.317 2.434-5.021 4.806-8.438 6.644-3.475 1.868-7.03 2.833-10.675 3.302l-.737.096c-5.323.701-14.118 1.86-23.058-3.881-4.257-2.734-7.742-6.576-10.196-9.517-1.383-1.657-3.282-4.111-4.704-5.95a181.942 181.942 0 00-1.673-2.144c-1.9-2.361-3.54-4.531-5.064-6.554l-.251-.333c-1.448-1.923-2.792-3.707-4.314-5.625a183.926 183.926 0 00-1.863-2.306c-1.167 3.799-2.382 7.615-3.524 10.958a1284.36 1284.36 0 00-1.265 3.728 678.5 678.5 0 01-2.688 7.848c-.644 1.827-1.3 3.631-1.914 5.17-.448 1.123-1.354 3.38-2.571 5.224a21.137 21.137 0 01-3.324 3.91c-1.14 1.045-3.36 2.847-6.524 3.769-3.761 1.097-9.74.983-14.336-3.998-3.532-3.829-4.082-8.405-4.216-10.427-.33-4.971 1.21-9.804 1.99-12.245l.017-.056c.339-1.061.646-1.986.926-2.832.622-1.875 1.115-3.362 1.542-5.092.44-1.782.867-3.544 1.295-5.305 1.132-4.669 2.264-9.334 3.622-14.356 1.681-6.213 2.855-9.777 4.248-14.005.614-1.863 1.27-3.855 2.031-6.259.976-3.085 1.795-5.638 2.56-8.028a976.82 976.82 0 004.27-13.556c1.114-3.632 1.996-7.33 3-11.536l.298-1.248c1.089-4.553 2.34-9.668 4.082-14.806.018-.054.064-.229.14-.513.5-1.898 2.278-8.638 5.469-16.148 2.94-6.92 10.755-10.065 17.456-7.025zm82.83 82.229c-.973 1.957-1.692 4.066-2.284 6.343-.761 2.931-1.359 4.907-1.825 6.449-.796 2.632-1.211 4.004-1.411 6.717l-.066.886c-.202 2.725-.286 3.864-.269 4.892.011.659.063 1.258.416 2.536.569 2.062 1.071 2.915 1.406 3.373.34.464 1.022 1.223 2.843 2.395 1.674 1.076 2.758 1.354 3.736 1.451 1.254.123 3.066.011 6.443-.683 3.21-.659 4.51-1.379 8.845-4.632 2.923-2.194 3.867-3.101 5.612-5.487 1.95-2.667 2.531-3.826 3.505-6.96l.099-.32.115-.315c.967-2.658 1.712-4.576 2.362-6.25 1.048-2.699 1.848-4.761 2.938-8.264 1.432-4.601 2.251-8.117 2.9-11.584-1.703-1.701-3.503-3.098-5.013-3.767l-.015-.004c-.202-.057-2.351-.66-6.079-.653-3.65.008-7.251.612-9.938 1.749-2.449 1.037-3.991 1.709-5.553 2.65-1.442.868-3.086 2.09-5.083 4.187a21.1 21.1 0 00-3.169 4.314c-.158.33-.329.656-.515.977zm160.278 12.406c-1.054 4.144-1.135 6.585-1.005 12.389.175 7.874.703 10.047 1.931 11.999 3.853 1.247 6.764 1.114 11.161.912l.127-.006c4.364-.2 5.125-.384 5.485-.501l.008-.002c.175-.057.827-.267 3.962-2.537 3.099-2.244 5.213-5.851 7.256-9.798.141-.271.287-.575.551-1.122l.116-.241a62.6 62.6 0 011.178-2.34c.403-.754.973-1.775 1.736-2.893 1.91-7.976 3.15-13.269 5.162-22.002.354-1.536.677-2.92.979-4.208-1.198-.584-2.516-1.137-4.202-1.778-1.009-.384-2.944-.876-5.143-1.318a87.594 87.594 0 00-2.756-.504l-.022-.001a36.398 36.398 0 00-2.088.041c-1.845.088-3.985.324-5.849.806-.965.25-2.595.962-4.485 2.105a30.13 30.13 0 00-2.265 1.512c-.547.404-.83.65-.891.703-.013.011-.007.005-.007.005-1.847 1.777-2.345 2.275-2.907 2.942-.628.744-1.46 1.861-3.521 4.839l-.28.406c-.105.605-.251 1.21-.44 1.811-.875 2.794-2.21 5.779-3.791 8.781zm153.774-21.606c-1.703-1.701-3.503-3.099-5.013-3.767l-.016-.004c-.201-.057-2.35-.66-6.078-.653-3.65.007-7.251.612-9.938 1.749-2.449 1.037-3.991 1.709-5.553 2.649-1.442.868-3.086 2.09-5.083 4.188-3.138 3.298-4.8 7.141-5.968 11.634-.761 2.931-1.359 4.906-1.825 6.449-.796 2.631-1.211 4.004-1.411 6.716l-.066.885c-.202 2.726-.287 3.865-.269 4.894.011.659.063 1.257.416 2.536.569 2.061 1.071 2.915 1.406 3.373.34.464 1.022 1.223 2.843 2.395 1.674 1.076 2.758 1.354 3.736 1.45 1.254.124 3.066.012 6.442-.682 3.211-.66 4.511-1.379 8.846-4.632 2.923-2.195 3.867-3.102 5.612-5.488 1.95-2.666 2.531-3.825 3.505-6.959l.099-.321.115-.315c.967-2.658 1.712-4.576 2.361-6.249 1.048-2.699 1.849-4.761 2.939-8.264 1.432-4.602 2.251-8.118 2.9-11.584zm-126.037-16l1.882-13.545-.598-.089-.605-.032-.679 13.666zm-78.879-43.148l-2.279-13.482-4.42.795-3.042 3.405 9.741 9.282z"/></g><defs><filter id="filter0_f" x="0" y="0" width="532.5" height="260.027" filterUnits="userSpaceOnUse" color-interpolation-filters="sRGB"><feFlood flood-opacity="0" result="BackgroundImageFix"/><feBlend in="SourceGraphic" in2="BackgroundImageFix" result="shape"/><feGaussianBlur stdDeviation="10" result="effect1_foregroundBlur"/></filter></defs></svg>