<svg width="32" height="32" fill="none" xmlns="http://www.w3.org/2000/svg"><path fill-rule="evenodd" clip-rule="evenodd" d="M30.83.019c-1.522.075-2.704.2-3.984.418-5.04.86-9.757 2.95-13.874 6.147a33.132 33.132 0 00-5.978 6.03A34.28 34.28 0 00.595 26.99 35.117 35.117 0 00.1 30.61l-.023.32A1 1 0 001.075 32h12.574a1 1 0 00.956-.707l.18-.588c.02-.064.033-.13.04-.197.322-3.214 1.14-5.384 3.018-8.004.304-.423.696-.932.904-1.17 1.457-1.677 2.786-2.813 4.479-3.832 2.5-1.505 4.548-2.07 7.495-2.194a.895.895 0 00.185-.025l.318-.072a1 1 0 00.776-.975V1a1 1 0 00-1-1h-.185c-.278.003.103.014.014.019z" fill="#4a00b0"/></svg>