<svg width="577" height="246" fill="none" xmlns="http://www.w3.org/2000/svg"><path fill-rule="evenodd" clip-rule="evenodd" d="M296.089.06c-5.716.242-10.156.64-14.962 1.34-18.928 2.755-36.65 9.45-52.113 19.69-8.365 5.538-16.041 12.14-22.454 19.314-12.053 13.483-20.267 29.221-24.034 46.053-.99 4.42-1.706 9.203-2.03 13.558-.06.796.197-2.256.17-1.97a4.11 4.11 0 004.092 4.456h46.448a4.453 4.453 0 004.189-2.948l.365-1.019c.117-.325.196-.666.237-1.01 1.226-10.186 4.306-17.102 11.313-25.439 1.141-1.357 2.616-2.987 3.395-3.751 5.476-5.37 10.465-9.01 16.825-12.274 9.387-4.818 17.08-6.628 28.145-7.025a4.58 4.58 0 00.71-.081l.503-.099a4.455 4.455 0 003.598-4.374V4.457A4.454 4.454 0 00296.034 0c-1.042.01.388.046.055.06z" fill="#FE00F7"/><path fill-rule="evenodd" clip-rule="evenodd" d="M299.68 1.9a4.444 4.444 0 00-3.594-1.9l3.594 1.9zm.271.437a4.44 4.44 0 01.535 2.12V44.48a4.455 4.455 0 01-3.598 4.374l-.503.099a4.58 4.58 0 01-.71.08c-11.065.398-18.758 2.208-28.145 7.026-6.36 3.264-11.349 6.904-16.825 12.274-.779.764-2.254 2.394-3.395 3.751-7.007 8.337-10.087 15.254-11.313 25.44-.041.343-.12.684-.237 1.01l-.365 1.018a4.453 4.453 0 01-4.189 2.948h-46.448a4.07 4.07 0 01-2.271-.685 4.14 4.14 0 01-1.486-1.763m-.134-3.86a95.217 95.217 0 00-.199 1.835l.199-1.834zm0 0a97.679 97.679 0 011.659-9.737c3.767-16.831 11.981-32.57 24.034-46.052l3.318 2.972C198.305 56.32 190.462 71.379 186.87 87.43a93.383 93.383 0 00-1.729 10.613h46.065l.365-1.016c0-.001.004-.013.006-.036 1.336-11.104 4.8-18.82 12.327-27.776 1.183-1.408 2.762-3.16 3.686-4.066 5.772-5.66 11.123-9.573 17.909-13.056 10.038-5.152 18.383-7.096 30.017-7.513.01 0 .016-.002.016-.002l.502-.098V4.523c-5.472.238-9.701.622-14.267 1.287l-.64-4.41A129.706 129.706 0 01291.701.292c1.374-.09 2.809-.166 4.333-.23.018-.002.037-.002.055-.003.077-.003.059-.008-.001-.013a3.02 3.02 0 00-.053-.004l-.131-.008c-.237-.014-.487-.03.13-.035h.052M181.001 100.053a4.1 4.1 0 01-.335-2.009l.002-.016m-.172 1.987c.035-.386.133-1.508.163-1.873l.007-.098a84.075 84.075 0 00-.17 1.971c-.015.194-.015.159 0 0zM281.127 1.399c-18.928 2.756-36.65 9.452-52.113 19.69-8.365 5.54-16.041 12.142-22.454 19.315l3.318 2.972c6.147-6.877 13.531-13.232 21.592-18.57 14.899-9.865 31.998-16.332 50.297-18.996l-.64-4.41zm18.824.938a4.351 4.351 0 00-.271-.438l.271.438z" fill="#FE00F7"/><path d="M293.699 128.52c-4.173 11.854-5.337 13.724-8.924 22.449-7.091 17.244-19.174 43.718-19.174 43.718l-.906-19.024s-.725-12.348 0-20.204c.821-8.903 1.781-18.033 4.462-26.939 1.6-5.315 2.032-5.329 4.462-11.224.288-.699 2.617-5.527 4.462-8.98 1.907-3.567 2.571-5.877 5.16-8.98 2.589-3.101 5.996-6.734 5.996-6.734s4.787-.794 6.833 0c1.11.431 4.322 2.245 4.322 8.98 0 6.734-2.52 15.084-6.693 26.938zM76.975 147.756s-5.03 3.048-8.294 4.934c-10.141 5.86-26.544 13.98-26.544 13.98s8.865-9.003 15.12-13.98c4.347-3.458 6.671-5.077 11.49-7.852 5.519-3.176 8.93-4.627 14.864-6.95 7.623-2.983 16.299-10.876 19.908-6.579 0 0 .842 2.388-1.383 4.616-1.574 1.576-6.121 2.547-11.889 5.253-5.238 2.457-13.272 6.578-13.272 6.578zm335.033 30.408c-4.579 11.876-3.104 11.053-11.079 21.31a2631.064 2631.064 0 007.214-28.617c2.146-8.685 3.471-13.531 5.411-22.257 1.514-6.81 2.495-8.075 3.607-14.951.9-5.564 2.241-12.256 3.241-17.806 1.376-7.637 3.31-18.13 4.855-22.257.686-1.832 3.911-1.732 4.856 0 2.428 4.452-1.394 18.827-2.428 24.484-1.034 5.656-9.217 34.454-10.524 40.063-3.587 15.387-3.437 15.579-5.153 20.031z" fill="#FE00F7"/><path fill-rule="evenodd" clip-rule="evenodd" d="M63.642 74.903c7.85 3.53 11.354 12.762 7.828 20.62-2.652 5.91-3.432 8.67-4.228 11.488-.438 1.548-.88 3.114-1.64 5.229-1.547 4.302-2.756 8.829-4.085 14.018l-.38 1.487c-.337 1.322-.686 2.69-1.052 4.091.291-.17.59-.343.896-.519 6.459-3.719 10.662-5.492 16.957-7.956.823-.322 1.992-.911 3.86-1.962.34-.191.734-.416 1.166-.663 1.472-.84 3.38-1.929 5.075-2.787 2.068-1.047 5.727-2.783 9.965-3.319 5.047-.639 12.191.391 17.441 6.642l1.822 2.169.943 2.673-14.691 5.195c14.691-5.195 14.694-5.187 14.697-5.179l.005.016.012.033.023.067.047.139a18.225 18.225 0 01.295.984c.132.491.264 1.067.376 1.717a20.06 20.06 0 01.223 4.898c-.319 4.131-1.997 8.92-6.044 12.971-2.263 2.265-4.729 3.533-5.98 4.134-1.407.677-2.869 1.239-3.897 1.628l-1.08.407c-1.867.701-3.483 1.308-5.337 2.177-2.42 1.136-5.585 2.704-8.225 4.03a669.78 669.78 0 00-3.263 1.649l-.817.416-.375.227-2.127 1.278a442.062 442.062 0 01-5.582 3.298c-2.815 1.627-6.036 3.391-9.24 5.102 2.396 2.769 4.819 5.638 6.976 8.321 2.028 2.52 3.812 4.857 5.458 7.015l.337.441c1.765 2.312 3.404 4.448 5.267 6.732a194.34 194.34 0 013.337 4.218c1.136 1.468 2.167 2.801 3.724 4.641 2.401 2.839 3.968 4.233 4.79 4.755.388.246.597.331 1.27.378.477.033 1.178.036 2.274-.043 1.137-.081 2.389-.223 4.128-.425 1.448-.168 1.9-.399 2.019-.46.181-.092.781-.425 2.115-1.76 2.486-2.489 3.762-4.865 5.985-9.316 2.883-5.773 5.788-13.423 8.058-20.24 2.453-7.368 5.362-14.296 10.465-22.116a55.342 55.342 0 019.131-12.059c8.939-8.949 16.849-12.116 22.966-14.566l.072-.028c7.958-3.187 16.454-4.172 23.475-4.128 6.68.043 14.018 1.037 19.483 3.438a41.5 41.5 0 012.948 1.439 15.54 15.54 0 0113.31-3.222c8.402 1.861 13.706 10.188 11.848 18.599-.854 3.865-1.543 7.713-2.249 11.652-1.501 8.378-3.076 17.168-6.467 27.42-1.622 4.907-3.236 8.863-4.775 12.636l-.583 1.433c.13 1.176.208 2.259.262 3.241.05.895.082 1.791.108 2.496l.015.42c.031.831.058 1.398.097 1.892.072.899.165 1.245.232 1.447.055.166.211.591.727 1.357.035.034.08.077.136.127.306.279.754.637 1.288 1 .536.365 1.012.634 1.345.796l.091.043c.75.183 1.373.379 1.794.519.473.157.95.331 1.144.401.492.178.648.229.813.274.117.032.497.135 1.276.207a37.99 37.99 0 002.095-.915 37.572 37.572 0 003.254-1.717c.849-.509 1.258-.823 1.346-.89.019-.015.023-.017.011-.007 1.607-1.455 2.112-1.993 2.911-2.977.889-1.097 1.931-2.499 3.887-5.131.475-.64 1.004-1.353 1.599-2.151l2.812-5.322-.7-14.687-.005-.091-.024-.459a250.777 250.777 0 01-.26-7.075c-.093-4.178-.114-9.968.334-14.829.817-8.857 1.874-19.423 5.059-30.005.945-3.139 1.656-5.063 2.555-7.128.306-.701.552-1.245.792-1.778.445-.984.873-1.931 1.631-3.768.593-1.441 3.221-6.822 5.127-10.389.1-.187.25-.504.449-.923.994-2.097 3.205-6.761 6.491-10.698a169.923 169.923 0 014.391-5.015 250.23 250.23 0 011.557-1.701l.461-.496.13-.14.053-.056s.002-.003 11.361 10.674c-2.548-15.388-2.546-15.388-2.544-15.389l.028-.004.039-.007.1-.016a39.227 39.227 0 011.165-.166c.695-.09 1.68-.201 2.8-.277a34.893 34.893 0 014.1-.054c1.301.066 3.948.271 6.779 1.37 2.747 1.067 6.621 3.302 9.715 7.734 3.11 4.456 4.554 9.876 4.554 15.789 0 9.859-3.575 20.75-7.579 32.123-3.152 8.954-4.823 12.858-6.772 17.413-.74 1.731-1.521 3.556-2.439 5.788-3.635 8.84-8.504 19.94-12.423 28.739a2326.593 2326.593 0 01-4.964 11.066l-.352.778c.076.674.173 1.411.294 2.178.252 1.593.575 3.107.96 4.369.329 1.082.588 1.593.643 1.703.015.029.015.03-.001.006 1.727 2.569 2.464 3.391 2.881 3.765.133.118.197.155.249.183.062.034.297.153.836.299.666.18.981.226 1.082.235h-.005c-.02 0-.021.002.005 0a.13.13 0 00.038.002c-.002 0-.015-.002-.038-.002.086-.005.457-.043 1.366-.268.081-.039.302-.156.664-.417.674-.487 1.487-1.223 2.386-2.201a37.593 37.593 0 002.365-2.889c.251-.335.434-.585.636-.86l.365-.497c.154-.209.38-.515.619-.821l.013-.017c.158-.202.719-.922 1.47-1.678 1.074-1.081 6.751-7.484 12.793-15.423 3.437-4.516 6.41-8.787 8.627-12.376l.003-.013c.731-2.544 1.565-5.444 2.659-7.966 1.615-3.721 3.766-6.849 6.429-10.509 2.401-3.303 4.194-5.702 6.054-7.805 1.851-2.092 3.61-3.704 5.469-5.407l.262-.24c2.32-2.127 5.752-4.522 9.261-6.541 3.537-2.034 8.348-4.383 13.498-5.629 4.943-1.197 9.709-1.588 13.037-1.713a74.543 74.543 0 014.212-.043c.528.01.962.024 1.286.038.162.006.298.013.404.018l.137.007.053.003.036.003c.002 0 .004 0-.936 15.569 2.347-15.42 2.348-15.419 2.349-15.419l.008.001.046.007.104.016.344.055a133.497 133.497 0 015.045.923c2.823.573 7.171 1.551 10.844 2.939.482.182.952.363 1.409.542l.075-.459c.609-3.763 1.451-8.24 2.214-12.301.393-2.089.765-4.068 1.074-5.781.688-3.816 1.548-8.531 2.442-12.847.819-3.947 1.899-8.757 3.158-12.118 3.544-9.461 12.518-11.514 17.113-11.457 4.695.058 12.019 2.145 16.007 9.459 2.674 4.902 2.734 10.173 2.694 12.632-.05 3.145-.462 6.375-.902 9.112-.533 3.315-1.636 8.561-2.212 11.298-.187.892-.319 1.518-.356 1.724-.671 3.666-3.236 13.179-5.452 21.334-.515 1.897-1.022 3.757-1.506 5.533-1.792 6.581-3.272 12.013-3.72 13.932-.695 2.984-1.255 5.431-1.726 7.487-1.815 7.931-2.295 10.028-4.064 14.617a235.258 235.258 0 00-2.136 5.78l-.281.782c-.62 1.726-1.334 3.69-2.28 5.709-1.239 2.643-2.708 5.014-4.568 7.621.026.339.049.667.069.984.061.951.104 1.907.139 2.676l.021.463c.043.912.079 1.556.128 2.117.067.763.141 1.12.174 1.251.026.033.067.084.131.155 1.649 1.841 2.306 2.358 2.609 2.561l.013.009c.098.067.407.28 1.538.512 2.014.415 2.855.506 5.411.297l.06-.005c.502-.037 1.164-.087 6.048-2.68 2.809-1.492 4.292-2.668 6.5-5.251.251-.587.569-1.36.953-2.321 1.028-2.568 2.304-5.91 3.632-9.405l.482-1.268a942.723 942.723 0 013.282-8.559 151.51 151.51 0 011.561-3.854c.232-.545.498-1.149.775-1.729l.016-.035c.167-.35.755-1.584 1.633-2.834a15.736 15.736 0 011.616-1.948l.058-.181c.404-1.269.76-2.387 1.019-3.323 2.245-8.088 6.26-18.035 15.125-26.909 8.939-8.949 16.849-12.116 22.965-14.565l.072-.029c7.958-3.187 16.454-4.172 23.476-4.127 6.679.042 14.018 1.036 19.483 3.437 1.015.446 1.998.929 2.947 1.439 3.575-2.962 8.428-4.302 13.31-3.221 8.402 1.86 13.707 10.187 11.849 18.598-.854 3.865-1.544 7.713-2.249 11.652-1.501 8.378-3.076 17.169-6.467 27.421-1.623 4.906-3.236 8.862-4.775 12.635l-.584 1.434a58.46 58.46 0 01.263 3.24c.049.896.082 1.793.107 2.499l.016.417c.031.831.058 1.399.097 1.893.071.898.164 1.244.232 1.446.055.166.21.591.727 1.358l.135.126c.307.279.754.637 1.288 1a11.25 11.25 0 001.437.839c.75.183 1.373.38 1.794.519.425.142.854.297 1.077.378l.066.024c.493.178.649.228.814.273.185.051 1.026.279 3.067.279 8.605 0 15.581 6.984 15.581 15.598 0 8.615-6.976 15.598-15.581 15.598-4.636 0-8.247-.554-11.268-1.379a40.304 40.304 0 01-3.178-1.021l-.007-.003-.143-.051c-4.398-1.095-8.393-3.36-11.172-5.25-2.27-1.545-4.935-3.661-7.221-6.217-.559.414-1.135.833-1.734 1.261-6.482 4.632-12.391 8.478-22.726 10.447-5.008.954-10.649 1.719-16.622 1.099-6.297-.654-12.142-2.746-17.862-6.38-3.067-1.948-5.967-4.168-8.565-6.868-3.446 3.523-7.299 6.509-12.699 9.377-4.951 2.629-10.574 5.596-18.171 6.218-5.557.455-9.364.168-14.223-.831-4.648-.957-8.781-2.59-12.604-5.15-3.103-2.077-5.563-4.485-7.558-6.644a46.561 46.561 0 01-4.178 3.249c-3.978 2.742-8.114 5.424-13.275 7-4.931 1.505-9.872 1.69-14.422 1.854l-.788.029c-5.7.216-14.19.537-24.79-3.209a20.673 20.673 0 01-5.726-2.508c-3.481-2.191-6.394-5.357-8.964-9.251a41.132 41.132 0 01-3.652-6.857 67.289 67.289 0 01-4.124 4.979c-3.322 3.618-9.545 9.529-18.239 11.724-6.257 1.579-11.537 1.771-18.332-.067-8.699-2.354-14.051-7.016-17.944-11.802a87.183 87.183 0 01-1.703 1.578c-3.748 3.393-8.811 6.089-12.26 7.711a64.133 64.133 0 01-5.673 2.363c-.884.314-1.888.641-2.923.909-.713.184-2.654.677-4.961.677-4.637 0-8.247-.554-11.269-1.379a40.246 40.246 0 01-3.177-1.021l-.008-.003-.143-.051c-4.398-1.095-8.392-3.36-11.171-5.251-2.271-1.544-4.936-3.661-7.222-6.217-.558.415-1.135.834-1.733 1.261-6.483 4.632-12.391 8.479-22.727 10.448-5.008.954-10.649 1.719-16.622 1.099-6.296-.654-12.142-2.746-17.862-6.38-3.508-2.229-6.798-4.814-9.668-8.065-.372.396-.755.792-1.15 1.188-2.749 2.751-5.952 5.429-9.989 7.49-4.105 2.096-8.295 3.16-12.587 3.659l-.867.103c-6.266.747-16.62 1.982-27.075-4.649-4.979-3.157-9.038-7.571-11.894-10.947-1.609-1.902-3.817-4.718-5.472-6.828-.843-1.074-1.542-1.966-1.944-2.46-2.211-2.71-4.118-5.199-5.889-7.519l-.292-.383c-1.684-2.205-3.246-4.251-5.016-6.453a213.958 213.958 0 00-2.167-2.646c-1.412 4.319-2.879 8.655-4.256 12.455-.479 1.321-.994 2.757-1.524 4.236-1.077 3-2.216 6.175-3.24 8.919-.776 2.076-1.566 4.126-2.303 5.874-.538 1.276-1.627 3.839-3.076 5.929a24.32 24.32 0 01-3.948 4.424c-1.351 1.18-3.98 3.212-7.71 4.232-4.434 1.214-11.464 1.025-16.817-4.697-4.115-4.399-4.716-9.619-4.853-11.925-.339-5.669 1.523-11.163 2.463-13.937l.022-.064a265.8 265.8 0 011.117-3.219c.75-2.131 1.345-3.821 1.864-5.788.535-2.027 1.056-4.031 1.576-6.035 1.38-5.31 2.757-10.616 4.405-16.326 2.04-7.066 3.456-11.116 5.137-15.922.74-2.117 1.532-4.381 2.45-7.113 1.18-3.507 2.168-6.409 3.093-9.125 1.675-4.921 3.142-9.229 5.157-15.409 1.346-4.129 2.421-8.335 3.644-13.12l.363-1.419c1.326-5.179 2.85-10.996 4.95-16.835.021-.061.077-.261.168-.583.608-2.159 2.767-9.823 6.595-18.353 3.526-7.858 12.748-11.366 20.597-7.836zm96.571 94.533c-1.164 2.22-2.03 4.618-2.749 7.207a170.799 170.799 0 01-2.212 7.333c-.962 2.991-1.464 4.552-1.727 7.641l-.086 1.009c-.265 3.104-.376 4.402-.366 5.574.006.751.061 1.434.464 2.895.648 2.355 1.23 3.333 1.62 3.858.394.532 1.188 1.404 3.318 2.757 1.957 1.243 3.23 1.571 4.379 1.69 1.473.153 3.605.043 7.582-.715 3.782-.72 5.319-1.527 10.449-5.193 3.46-2.472 4.578-3.497 6.654-6.199 2.321-3.02 3.015-4.336 4.192-7.898l.12-.365.138-.358c1.164-3.02 2.059-5.198 2.84-7.099 1.26-3.067 2.222-5.409 3.539-9.391 1.73-5.23 2.729-9.23 3.527-13.174-1.986-1.956-4.089-3.566-5.857-4.343l-.018-.005c-.237-.066-2.757-.775-7.142-.803-4.292-.028-8.532.626-11.703 1.896-2.891 1.158-4.711 1.909-6.556 2.965-1.705.976-3.651 2.352-6.02 4.724a24.165 24.165 0 00-3.77 4.885c-.189.375-.394.745-.616 1.109zm188.347 15.707c-1.281 4.713-1.4 7.494-1.307 14.11.127 8.978.726 11.459 2.151 13.696 4.518 1.459 7.942 1.336 13.115 1.149l.149-.006c5.134-.185 6.031-.388 6.455-.517l.009-.003c.207-.063.975-.296 4.685-2.853 3.666-2.527 6.188-6.617 8.631-11.096.168-.308.343-.652.659-1.273l.139-.274c.353-.693.845-1.655 1.408-2.656a35.348 35.348 0 012.071-3.28 2555.957 2555.957 0 006.293-25.027c.431-1.746.825-3.321 1.193-4.786-1.403-.677-2.947-1.321-4.923-2.068-1.183-.447-3.453-1.027-6.035-1.552a102.714 102.714 0 00-2.957-.555l-.278-.047-.026-.001a44.765 44.765 0 00-2.456.026c-2.17.082-4.689.33-6.886.862-1.137.275-3.061 1.07-5.295 2.355a35.832 35.832 0 00-2.679 1.701c-.647.455-.982.733-1.054.792-.016.014-.019.016-.009.007-2.189 2.007-2.78 2.569-3.448 3.324-.746.843-1.736 2.107-4.19 5.481l-.333.46a15.518 15.518 0 01-.535 2.059c-1.057 3.177-2.657 6.566-4.547 9.972zm181.043-23.122c-1.986-1.956-4.089-3.566-5.857-4.343l-.019-.005c-.236-.066-2.757-.775-7.141-.803-4.292-.027-8.532.627-11.703 1.897-2.891 1.157-4.711 1.908-6.557 2.965-1.704.975-3.651 2.352-6.019 4.723-3.724 3.728-5.717 8.092-7.135 13.201-.925 3.334-1.648 5.579-2.212 7.333-.962 2.992-1.464 4.552-1.727 7.641l-.086 1.008c-.265 3.105-.376 4.403-.366 5.575.006.751.061 1.434.463 2.895.648 2.355 1.231 3.333 1.62 3.858.395.533 1.189 1.404 3.319 2.757 1.957 1.244 3.23 1.571 4.379 1.69 1.472.153 3.604.043 7.582-.715 3.782-.72 5.318-1.527 10.448-5.193 3.46-2.472 4.579-3.497 6.655-6.199 2.32-3.02 3.015-4.336 4.191-7.898l.12-.364.138-.358c1.165-3.02 2.06-5.199 2.841-7.099 1.259-3.067 2.221-5.409 3.538-9.391 1.73-5.231 2.73-9.23 3.528-13.175zm-111.826 49.096c-.003-.005 0-.002.006.009a.068.068 0 01-.006-.009zm-36.221-68.565l2.349-15.419-.702-.107-.706-.043-.941 15.569zm-92.319-49.95l-2.544-15.389-5.205.864-3.612 3.851 11.361 10.674z" fill="#FE00F7"/></svg>