<svg width="71" height="32" fill="none" xmlns="http://www.w3.org/2000/svg"><path fill-rule="evenodd" clip-rule="evenodd" d="M36.007.3a16.62 16.62 0 00-1.818.182 15.332 15.332 0 00-6.317 2.488 14.28 14.28 0 00-2.71 2.41c-1.451 1.68-2.434 3.633-2.874 5.718a12.143 12.143 0 00-.214 1.434.504.504 0 00.503.546l5.648-.048a.542.542 0 00.506-.369l.044-.126a.58.58 0 00.027-.125c.139-1.26.506-2.118 1.35-3.156.136-.17.314-.372.408-.467.66-.67 1.263-1.125 2.033-1.535 1.136-.605 2.07-.837 3.415-.898a.545.545 0 00.086-.01l.062-.013a.549.549 0 00.433-.545L36.546.84A.546.546 0 0036 .293c-.127.002.047.005.007.008z" fill="#FE00F7"/><path fill-rule="evenodd" clip-rule="evenodd" d="M36.445.524a.538.538 0 00-.439-.23l.44.23zm.034.054a.556.556 0 01.067.261l.043 4.947a.549.549 0 01-.433.545l-.062.013a.545.545 0 01-.086.01c-1.345.06-2.279.293-3.415.898-.77.41-1.373.865-2.033 1.535a7.982 7.982 0 00-.409.467c-.843 1.038-1.21 1.896-1.349 3.156a.58.58 0 01-.027.125l-.044.126a.542.542 0 01-.506.37l-5.648.047a.479.479 0 01-.277-.082.51.51 0 01-.183-.216m-.02-.477l-.023.227.023-.227zm0 0a12.165 12.165 0 01.191-1.205c.44-2.085 1.423-4.038 2.874-5.718l.407.364c-1.394 1.612-2.332 3.482-2.752 5.47-.09.426-.158.882-.199 1.313l5.602-.048.044-.126v-.004c.151-1.374.564-2.332 1.47-3.446.142-.176.332-.394.444-.507.696-.705 1.342-1.194 2.164-1.632 1.215-.647 2.228-.896 3.642-.96h.002l.061-.013-.042-4.939c-.665.035-1.18.087-1.734.174L34.19.482a15.529 15.529 0 011.284-.148C35.64.32 35.815.31 36 .3h.007c.01-.001.007-.002 0-.002H36l-.016-.001c-.029-.002-.06-.004.016-.005h.006M22.117 12.78a.512.512 0 01-.043-.248v-.002m-.018.246c-.002.024-.002.02 0 0zM34.189.482a15.332 15.332 0 00-6.317 2.488 14.28 14.28 0 00-2.71 2.41l.407.364c.74-.856 1.631-1.65 2.606-2.317a14.797 14.797 0 016.096-2.4L34.19.481zm2.29.096a.57.57 0 00-.034-.054l.034.054z" fill="#FE00F7"/><path d="M35.852 16.18c-.495 1.47-.634 1.703-1.061 2.785-.844 2.139-2.285 5.423-2.285 5.423l-.13-2.35s-.102-1.525-.022-2.497c.09-1.101.197-2.23.514-3.335.189-.658.241-.66.53-1.392.035-.086.313-.685.534-1.114.228-.443.306-.73.617-1.115.312-.387.723-.839.723-.839s.58-.103.83-.007c.136.052.529.273.536 1.105.007.833-.29 1.867-.786 3.337zM9.517 18.785s-.608.382-1.003.618c-1.227.735-3.213 1.756-3.213 1.756s1.068-1.122 1.824-1.744a9.468 9.468 0 011.389-.982c.668-.399 1.08-.582 1.8-.875.924-.377 1.97-1.361 2.414-.834 0 0 .105.294-.163.572-.19.196-.742.321-1.44.662-.635.309-1.608.827-1.608.827zm40.775 3.408c-.544 1.473-.366 1.37-1.325 2.646.338-1.383.523-2.16.847-3.545.252-1.075.408-1.676.635-2.756.177-.844.295-1.001.423-1.852.103-.689.26-1.517.375-2.204.159-.946.383-2.245.567-2.756.081-.228.473-.219.59-.005.3.547-.15 2.328-.27 3.028-.119.7-1.084 4.269-1.236 4.963-.42 1.906-.402 1.93-.606 2.481z" fill="#FE00F7"/><path fill-rule="evenodd" clip-rule="evenodd" d="M7.819 9.794c.958.428 1.394 1.565.974 2.54a8.843 8.843 0 00-.502 1.425c-.052.191-.104.385-.194.648-.184.533-.326 1.094-.482 1.736a186.58 186.58 0 00-.168.691l.108-.065c.782-.466 1.29-.69 2.054-1 .1-.041.241-.115.467-.247l.141-.083c.178-.106.41-.242.614-.35.25-.132.694-.35 1.209-.42.613-.085 1.483.035 2.128.802l.223.266.118.33-1.781.657c1.78-.657 1.782-.655 1.782-.655v.002l.002.004.003.008.006.017.012.037a2.257 2.257 0 01.072.296 2.556 2.556 0 01-1.412 2.732c-.17.085-.347.156-.472.205l-.13.052a8.294 8.294 0 00-.647.274 45.884 45.884 0 00-1.392.714l-.098.053-.046.028a125.424 125.424 0 01-.932.574c-.341.204-.73.425-1.119.64.295.34.592.692.858 1.021a41.82 41.82 0 01.712.916c.217.284.419.546.648.826.173.212.296.37.41.518.14.18.267.344.458.57.295.348.487.519.587.582a.26.26 0 00.155.046c.058.004.143.003.277-.008.138-.01.29-.03.501-.056.176-.023.23-.052.245-.06.022-.011.095-.053.256-.22.3-.31.452-.605.717-1.157.345-.716.69-1.665.959-2.51.29-.913.637-1.773 1.25-2.745a6.83 6.83 0 011.097-1.5c1.077-1.115 2.036-1.515 2.777-1.824l.009-.003c.964-.403 1.996-.533 2.85-.535.813-.002 1.706.113 2.373.404.124.054.244.113.36.175.432-.37 1.02-.54 1.615-.412 1.024.221 1.678 1.245 1.46 2.287-.099.478-.179.954-.26 1.442-.174 1.037-.356 2.125-.758 3.396-.192.608-.384 1.099-.567 1.567l-.07.178c.018.145.029.279.036.4.007.11.012.221.016.308l.002.052c.005.103.009.173.014.234a.75.75 0 00.03.179.7.7 0 00.09.166l.016.016a1.461 1.461 0 00.322.22l.011.005c.092.021.168.045.22.062l.139.048a.83.83 0 00.254.057 4.585 4.585 0 00.648-.33c.103-.064.152-.104.163-.112.002-.002 0 0 0 0a2.78 2.78 0 00.352-.372c.107-.136.232-.31.467-.638l.192-.268.336-.66-.1-1.815v-.011l-.004-.057a24.266 24.266 0 01-.04-.874 17.515 17.515 0 01.025-1.833c.09-1.096.208-2.403.584-3.714.111-.39.196-.628.303-.884.036-.087.066-.154.095-.22.053-.123.104-.24.194-.468a22.7 22.7 0 01.612-1.29l.054-.114c.118-.26.383-.839.778-1.329a20.623 20.623 0 01.716-.836l.056-.062.015-.018.007-.007 1.393 1.308-.326-1.9h.008l.012-.003a4.78 4.78 0 01.142-.022c.084-.011.204-.026.34-.037a4.07 4.07 0 01.498-.01c.159.006.48.029.826.162.335.129.809.4 1.19.945.383.548.564 1.216.57 1.947.01 1.219-.412 2.568-.887 3.978a29.678 29.678 0 01-.805 2.16c-.089.214-.182.44-.29.718a147.143 147.143 0 01-1.481 3.565c-.235.548-.443 1.029-.592 1.373l-.042.096c.01.084.023.174.038.27.032.196.073.383.121.538.042.134.074.197.08.21.002.003.003.003 0 0 .213.316.304.417.355.463.016.014.024.02.03.022a.896.896 0 00.234.064c-.002 0-.003 0 0 0 .01 0 .056-.005.166-.034a.576.576 0 00.08-.052c.082-.061.18-.153.288-.275.106-.119.2-.244.285-.36l.076-.106a4.442 4.442 0 01.118-.164l.002-.002c.019-.026.086-.115.177-.21.13-.134.813-.931 1.54-1.92.412-.56.77-1.092 1.035-1.538v-.001c.087-.316.185-.675.315-.988.193-.461.451-.85.771-1.305.289-.411.504-.71.728-.971.223-.26.435-.462.66-.674l.03-.03c.28-.266.696-.565 1.12-.818.428-.256 1.01-.55 1.636-.71a8.044 8.044 0 011.583-.226 8.994 8.994 0 01.669-.006l.049.002h.023l.005.001-.098 1.926.27-1.909.006.001.013.002.042.007a16.544 16.544 0 01.614.108 8.93 8.93 0 011.322.352l.172.066.008-.057c.07-.466.168-1.02.257-1.523l.124-.715c.08-.473.18-1.056.284-1.59.095-.49.221-1.085.37-1.502.422-1.173 1.51-1.436 2.07-1.434.57.002 1.463.253 1.956 1.152.33.604.343 1.255.341 1.56-.002.388-.05.787-.1 1.126-.061.41-.19 1.06-.257 1.4l-.041.213c-.078.453-.38 1.632-.64 2.642l-.178.686c-.21.815-.385 1.488-.438 1.725l-.202.928c-.212.982-.268 1.241-.478 1.81a30.086 30.086 0 00-.287.814 8.071 8.071 0 01-.271.708 5.933 5.933 0 01-.548.947l.01.121.02.331.002.057c.007.113.012.192.018.262.01.094.019.138.023.154l.016.02c.202.225.283.288.32.313l.001.001c.012.008.05.034.188.062.245.049.348.06.658.03h.008c.06-.005.141-.012.732-.337.34-.188.52-.335.785-.656.03-.073.068-.169.114-.288a80.452 80.452 0 00.489-1.324c.136-.375.274-.754.39-1.06.065-.175.13-.342.185-.479.028-.067.06-.142.093-.214l.002-.005c.02-.043.09-.196.195-.352.06-.087.125-.168.195-.242l.006-.023c.048-.157.09-.295.121-.411.264-1.002.742-2.236 1.81-3.342 1.078-1.116 2.037-1.515 2.778-1.824l.009-.004c.964-.402 1.996-.533 2.85-.535.812-.001 1.706.114 2.373.405.124.054.244.113.36.175.431-.37 1.02-.54 1.615-.412 1.024.22 1.678 1.245 1.46 2.286-.099.479-.179.955-.26 1.443-.174 1.037-.356 2.125-.758 3.396-.192.608-.384 1.098-.567 1.566-.023.06-.046.12-.07.178.018.145.028.28.036.4.007.111.012.222.016.31l.002.05c.005.103.008.174.014.235a.73.73 0 00.03.178.7.7 0 00.09.167l.016.016a1.465 1.465 0 00.322.219l.011.005c.092.022.168.046.219.062.052.017.104.036.131.046l.008.003c.06.021.08.027.1.033.022.006.125.033.373.031 1.046-.009 1.902.847 1.911 1.912.01 1.064-.831 1.935-1.878 1.944a5.037 5.037 0 01-1.372-.159 4.726 4.726 0 01-.387-.123l-.019-.006c-.536-.131-1.024-.407-1.364-.638a4.894 4.894 0 01-.885-.76l-.209.157c-.783.58-1.498 1.061-2.753 1.315-.608.123-1.293.224-2.02.153-.766-.074-1.48-.326-2.179-.77a5.597 5.597 0 01-1.049-.84c-.415.44-.88.813-1.534 1.173-.6.33-1.28.703-2.203.787a5.457 5.457 0 01-1.73-.088 4.186 4.186 0 01-1.539-.623 5.202 5.202 0 01-.926-.813 5.663 5.663 0 01-.504.406c-.481.343-.981.678-1.607.879-.598.19-1.2.219-1.752.244l-.096.004c-.693.033-1.725.081-3.018-.37a2.494 2.494 0 01-.699-.304c-.426-.268-.783-.656-1.1-1.135a5.104 5.104 0 01-.451-.843c-.121.165-.29.386-.497.62-.4.45-1.15 1.187-2.205 1.467-.76.202-1.401.232-2.23.011-1.06-.282-1.716-.852-2.194-1.44a10.26 10.26 0 01-.206.197c-.452.424-1.065.762-1.482.966a7.73 7.73 0 01-.688.298c-.107.04-.229.081-.354.115a2.385 2.385 0 01-.603.09 5.036 5.036 0 01-1.372-.16c-.174-.046-.312-.096-.387-.122l-.018-.007c-.536-.13-1.024-.406-1.364-.637a4.89 4.89 0 01-.885-.761l-.21.158c-.783.579-1.498 1.06-2.752 1.315-.608.123-1.294.223-2.02.153-.767-.074-1.48-.327-2.18-.77a5.433 5.433 0 01-1.184-.987c-.045.05-.09.099-.138.148a4.8 4.8 0 01-1.207.936c-.497.264-1.006.4-1.527.466l-.105.013c-.761.1-2.02.263-3.298-.546-.609-.385-1.107-.926-1.458-1.34-.197-.234-.469-.58-.672-.839-.104-.132-.19-.241-.24-.302a35.378 35.378 0 01-.724-.923l-.036-.047c-.207-.27-.399-.522-.616-.792a25.601 25.601 0 00-.267-.325 53.275 53.275 0 01-.685 2.069c-.128.372-.263.765-.384 1.106-.092.257-.186.511-.274.728a4.197 4.197 0 01-.368.736c-.127.19-.287.38-.475.551a2.395 2.395 0 01-.934.531c-.537.155-1.393.139-2.05-.563-.505-.54-.583-1.184-.602-1.469-.048-.7.173-1.381.284-1.725l.003-.008c.048-.15.092-.28.132-.399.09-.264.16-.474.221-.717l.185-.748a76.63 76.63 0 01.519-2.022c.24-.876.408-1.378.607-1.974.088-.262.182-.543.29-.881.14-.435.258-.795.367-1.131.199-.61.373-1.144.611-1.91.16-.512.286-1.033.43-1.626l.042-.176c.156-.641.335-1.362.584-2.086.002-.007.01-.032.02-.072.071-.267.326-1.217.782-2.275a1.882 1.882 0 012.497-.99zm11.844 11.583a4.54 4.54 0 00-.327.894c-.109.413-.194.691-.261.909-.114.37-.173.564-.202.946l-.01.125c-.028.384-.04.544-.038.69.002.092.009.176.06.356.08.29.153.411.2.476.05.065.147.172.407.337.24.152.395.19.534.204.18.018.439.002.922-.096.459-.093.645-.194 1.265-.653.418-.309.553-.437.802-.773.28-.376.362-.539.502-.98l.014-.046.016-.044c.139-.375.245-.645.338-.88.15-.38.265-.671.42-1.165.205-.648.323-1.144.416-1.632-.244-.24-.501-.437-.717-.53L24 19.513c-.028-.008-.336-.093-.869-.092-.522 0-1.037.086-1.421.247-.35.146-.57.24-.794.373a3.407 3.407 0 00-.727.59 2.978 2.978 0 00-.527.745zm22.92 1.745c-.15.584-.161.928-.143 1.746.025 1.11.1 1.415.276 1.69.55.176.967.157 1.596.128h.018c.624-.029.733-.055.785-.071.026-.008.119-.038.567-.358.444-.316.746-.824 1.038-1.38l.079-.158.017-.034c.042-.086.1-.206.168-.33.058-.106.14-.25.248-.408a320.51 320.51 0 00.88-3.692 7.234 7.234 0 00-.602-.251 5.53 5.53 0 00-.735-.185 12.05 12.05 0 00-.36-.066l-.034-.006h-.004c-.068 0-.172 0-.298.006a4.35 4.35 0 00-.837.114 2.747 2.747 0 00-.641.297 4.297 4.297 0 00-.324.213 2 2 0 00-.127.099h-.001c-.264.25-.336.32-.416.415-.09.105-.21.262-.504.682l-.04.057a1.97 1.97 0 01-.063.255 7.534 7.534 0 01-.542 1.237zm21.992-3.047c-.243-.24-.5-.436-.717-.53h-.002c-.029-.009-.336-.094-.869-.093-.522.001-1.037.087-1.421.247-.35.146-.571.24-.794.373a3.413 3.413 0 00-.727.59c-.45.465-.687 1.007-.854 1.64-.109.413-.195.69-.261.908-.114.371-.173.564-.202.947l-.01.124a8.257 8.257 0 00-.038.69c.001.092.009.177.06.357.08.29.152.41.2.475.049.066.146.172.407.337.24.152.394.191.534.205.18.017.439.001.922-.096.459-.093.645-.195 1.265-.653.418-.31.553-.437.802-.773.28-.376.362-.54.502-.981l.014-.045.016-.045c.139-.374.245-.644.338-.88.15-.38.264-.67.42-1.165a13.59 13.59 0 00.415-1.632zm-18.024-2.251l.27-1.909-.086-.012-.087-.005-.097 1.926zm-11.28-6.078l-.325-1.9-.632.113-.435.48 1.393 1.307z" fill="#FE00F7"/></svg>