<svg width="24" height="19" viewBox="0 0 24 19" fill="none" xmlns="http://www.w3.org/2000/svg">
<path d="M17.7954 6.90424C16.9917 3.57902 15.419 0 13.8653 0C13.7884 0 13.7116 0.00912312 13.6378 0.0268164C13.2991 0.108648 13.0295 0.366582 12.8316 0.785415C12.8106 0.802003 12.7876 0.814719 12.7702 0.836836C11.9005 1.94875 8.78593 5.6212 5.23263 6.47988L2.51782 7.18042C2.50704 7.18291 2.49653 7.18623 2.48602 7.18955C1.65416 7.41818 0.951963 7.94151 0.499955 8.67191C0.0272134 9.43659 -0.116544 10.3401 0.0954984 11.2167C0.307541 12.0931 0.848015 12.8315 1.61767 13.2957C2.38373 13.7579 3.28969 13.8953 4.16799 13.6832L4.73086 13.5472C4.73086 13.5472 4.73113 13.5472 4.73141 13.5472H4.73169L5.40873 13.3836L7.65522 17.9996C7.94771 18.6 8.55094 18.95 9.17822 18.95C9.42621 18.95 9.67806 18.8956 9.91553 18.78C10.7535 18.3717 11.1035 17.3579 10.6954 16.5197L8.8791 12.7875C12.1222 12.7602 15.4342 14.2674 16.1911 14.6345C16.462 14.8364 16.7366 14.9483 17.0105 14.9483C17.0874 14.9483 17.1642 14.9392 17.2381 14.9212C17.9552 14.7479 18.3674 13.7944 18.4301 12.1636C18.4865 10.6992 18.2612 8.83143 17.7954 6.90424ZM3.9988 12.9846C3.30627 13.1525 2.59218 13.0441 1.98868 12.68C1.38489 12.3159 0.960257 11.7359 0.794106 11.0475C0.627679 10.3591 0.740197 9.64919 1.11148 9.04927C1.47723 8.45738 2.05309 8.03744 2.73484 7.86576L2.97425 7.8077L4.21305 12.9327L3.9988 12.9846ZM9.60093 18.1337C9.11934 18.3681 8.53574 18.1668 8.30158 17.685L7.48631 16.0099L9.25812 15.2096L10.0491 16.8346C10.2838 17.3162 10.0825 17.8989 9.60093 18.1337ZM8.94351 14.5629L7.1717 15.3633L6.1242 13.2108L6.95634 13.0095C7.32983 12.9194 7.71189 12.86 8.09783 12.8251L8.94351 14.5629ZM6.78715 12.3109L4.91166 12.764L3.67286 7.63879L5.40209 7.21996C8.39004 6.49785 11.0465 3.93869 12.4755 2.32639C12.4628 2.47319 12.4523 2.62468 12.4459 2.78448C12.4164 3.54695 12.465 4.42027 12.5828 5.35304C12.5845 5.36631 12.5811 5.37903 12.5842 5.39257C12.5853 5.397 12.5886 5.40004 12.5897 5.40446C12.6981 6.24793 12.8617 7.13868 13.0807 8.04408C13.2952 8.93178 13.565 9.83718 13.8741 10.6881C13.8758 10.705 13.8719 10.721 13.8761 10.7379C13.8879 10.7868 13.9112 10.8286 13.9396 10.8664C14.2943 11.8169 14.6988 12.6888 15.1306 13.3822C13.1976 12.6156 9.79362 11.5838 6.78715 12.3109ZM13.3513 5.67014C13.8929 5.81915 14.5357 6.55839 14.808 7.68385C15.0781 8.8024 14.8492 9.74761 14.4395 10.133C14.2045 9.45677 13.98 8.70564 13.7793 7.87488C13.5971 7.12126 13.455 6.38008 13.3513 5.67014ZM17.7122 12.1359C17.6599 13.4825 17.3517 14.1543 17.0691 14.2226C17.0503 14.2273 17.031 14.2293 17.0105 14.2293C16.9469 14.2293 16.8762 14.2096 16.7993 14.1717C16.7692 14.1339 16.7316 14.1013 16.686 14.0775C16.671 14.0697 16.6323 14.0496 16.5743 14.0208C16.0543 13.592 15.3523 12.5069 14.7002 10.8388C15.5102 10.3412 15.8632 8.98984 15.5066 7.51466C15.148 6.03174 14.212 4.98591 13.2565 4.9237C13.1736 4.15985 13.1396 3.4441 13.1639 2.81185C13.2159 1.46522 13.5241 0.793709 13.8067 0.725424C13.8255 0.720724 13.8448 0.718789 13.8653 0.718789C14.5584 0.718789 16.1079 2.98159 17.0968 7.07316C17.5477 8.93786 17.7661 10.7357 17.7122 12.1359Z" fill="#404040"/>
<path d="M20.5402 6.68251C20.3815 6.6792 20.2386 6.57 20.199 6.40855C20.1517 6.21586 20.2698 6.02123 20.4625 5.97396L22.8107 5.39782C23.0031 5.35027 23.198 5.46859 23.2453 5.66128C23.2926 5.85397 23.1745 6.0486 22.9818 6.09587L20.6336 6.67201C20.6024 6.67975 20.5709 6.68334 20.5402 6.68251Z" fill="#404040"/>
<path d="M18.7613 2.75517C18.6651 2.75102 18.5708 2.70817 18.5033 2.62911C18.3745 2.47788 18.393 2.25091 18.5443 2.12236L20.6616 0.321517C20.8126 0.193241 21.0398 0.211211 21.1681 0.362433C21.2969 0.513655 21.2784 0.740626 21.1272 0.869179L19.0098 2.67002C18.9379 2.7314 18.8489 2.75904 18.7613 2.75517Z" fill="#404040"/>
<path d="M23.7016 11.6264C23.6544 11.6344 23.6046 11.6333 23.5546 11.6209L20.9514 10.9778C20.7585 10.9303 20.6412 10.7354 20.6888 10.543C20.7358 10.3503 20.9301 10.2317 21.1237 10.2803L23.7268 10.9234C23.9198 10.9709 24.037 11.1658 23.9894 11.3582C23.9546 11.5012 23.8382 11.6029 23.7016 11.6264Z" fill="#404040"/>
</svg>
