<svg width="55" height="32" viewBox="0 0 55 32" fill="none" xmlns="http://www.w3.org/2000/svg">
<circle cx="16" cy="16" r="15.5" fill="#EDEDED" stroke="#4A00B0"/>
<path d="M22.4405 16.8236C22.7044 16.706 22.8364 16.5883 23.3643 16.4707C24.1561 16.3531 23.8233 16.353 24.4201 16.353C25.143 16.4754 25.0161 17.0904 24.9402 17.2336C24.9396 17.2885 24.1407 17.976 23.2594 18.6801L22.4044 19.3695C22.4445 19.6256 22.2592 19.8118 21.8075 19.9847C21.216 20.2111 20.6558 20.222 19.3236 20.0332C17.7601 19.8116 16.853 19.873 15.8118 20.2707C15.4136 20.4228 15.3004 20.4947 15.3471 20.566C15.3718 20.6036 15.4398 20.5862 15.7109 20.4726C16.4138 20.178 16.9857 20.0683 17.8166 20.0684C18.3805 20.0685 18.5838 20.0855 19.6148 20.2186C19.9727 20.2648 20.3535 20.3111 20.461 20.3214L20.6565 20.3401L20.342 20.5958C20.1689 20.7365 19.7384 21.1265 19.3852 21.4623C18.752 22.0644 18.3421 22.4081 18.0732 22.5625C17.7609 22.7419 16.9342 22.7542 16.0356 22.593C15.5718 22.5098 15.261 22.4363 13.1586 21.9132C12.0318 21.6329 11.586 21.5623 10.9323 21.5606C10.5396 21.5595 10.3405 21.5741 10.1675 21.6167C9.85141 21.6946 9.47058 21.8529 9.22203 22.0099L9.01673 22.1395L8.72951 21.7311C8.10677 20.8457 6.9901 19.1916 7.00007 19.1693C7.00585 19.1564 7.18786 18.9819 7.4045 18.7815C8.09026 18.1474 8.7266 17.7309 9.47665 17.425C10.0569 17.1884 10.2662 17.1557 11.3947 17.1256C12.3507 17.1001 12.4098 17.0946 12.9702 16.9791C13.2904 16.913 13.591 16.8528 13.6381 16.8451C13.6852 16.8375 13.8877 16.8292 14.0881 16.8267C14.7414 16.8185 15.2465 17.0169 16.1773 17.6473C17.0634 18.2474 17.4863 18.4089 18.3133 18.4627C18.577 18.4799 18.8544 18.5029 18.9298 18.5139C18.9729 18.5202 19.1559 18.5301 19.4052 18.5403C19.6259 18.2951 20.1783 18.0891 20.461 17.8824C20.8627 17.635 21.2567 17.4401 21.5225 17.2821C21.9184 17.0468 22.2722 16.8987 22.4405 16.8236Z" fill="#4A00B0" stroke="#4A00B0" stroke-width="0.75"/>
<path d="M15.4826 10.413C16.861 9.68552 18.0801 11.8209 18.0801 11.8209C18.0801 11.8209 19.4428 9.20375 20.9872 10.4004C22.7522 11.7681 19.4616 14.7532 18.3916 15.6515C18.2081 15.8056 17.9427 15.7983 17.7681 15.6343C16.7361 14.6654 13.5356 11.4405 15.4826 10.413Z" fill="#4A00B0" stroke="#4A00B0" stroke-width="0.75" stroke-linejoin="round"/>
<circle cx="39" cy="16" r="15.5" fill="#EDEDED" stroke="#4A00B0"/>
<mask id="path-5-inside-1" fill="white">
<path fill-rule="evenodd" clip-rule="evenodd" d="M38.5065 5.01009C37.3512 5.1669 36.423 5.66542 35.4896 6.63042C34.2065 7.95706 33.3583 9.897 33.2308 11.7969C33.1658 12.765 33.4334 13.3257 34.2198 13.8695C34.4154 14.0047 34.6103 14.1417 34.653 14.1739C34.7261 14.229 34.6858 14.2826 33.9557 15.1023C33.5296 15.5807 33.0995 16.0943 32.9999 16.2437C32.6069 16.8332 32.2976 17.6061 32.0821 18.5368C32.0063 18.8639 31.975 19.1559 31.9435 19.8266C31.8812 21.1538 31.8082 21.4328 31.3141 22.2322C31.1412 22.5117 30.9999 22.7842 31 22.8376C31.0002 22.9864 31.1344 23.1889 31.274 23.2507C31.3923 23.3032 31.4208 23.295 31.7765 23.1059C32.4281 22.7597 32.8489 22.2276 33.3499 21.1163C33.6951 20.3506 33.8533 19.8709 34.0192 19.0865C34.2337 18.0727 34.4121 17.5532 34.7325 17.0099C35.0695 16.4384 35.7792 15.8129 36.4286 15.5149C36.5888 15.4414 36.6151 15.4382 36.595 15.4945C36.5818 15.5312 36.3462 15.9454 36.0714 16.4148C35.7966 16.8841 35.4955 17.4265 35.4023 17.62C35.0471 18.3573 34.8728 19.0564 34.7893 20.0796C34.7305 20.7989 34.7549 21.2148 34.913 22.1946C35.0202 22.8589 35.036 23.044 35.0179 23.421C34.9931 23.9336 34.9458 24.1217 34.6473 24.893C34.4457 25.4141 34.4333 25.4655 34.4796 25.5852C34.5348 25.728 34.7257 25.8732 34.8584 25.8735C34.9776 25.8737 35.5217 25.432 35.7709 25.1329C36.1575 24.6685 36.4792 23.8553 36.7073 22.7655C36.8662 22.006 36.9246 21.4466 36.9255 20.6723C36.9278 18.8926 37.2336 17.9119 38.0808 16.9674C38.3838 16.6295 39.0093 16.0795 39.0458 16.1186C39.0598 16.1336 38.4298 17.2468 38.0242 17.9236C37.804 18.2913 37.5262 18.91 37.3989 19.3169C37.1958 19.9655 37.1141 20.5857 37.1087 21.518C37.1044 22.2766 37.1133 22.3917 37.2208 22.9558C37.3166 23.4584 37.3375 23.6719 37.337 24.1399C37.3363 24.7824 37.2795 25.0277 36.9413 25.8513C36.8461 26.0832 36.7682 26.3054 36.7682 26.3449C36.7682 26.4503 36.9489 26.6626 37.0804 26.7117C37.2212 26.7641 37.3112 26.7186 37.7064 26.3951C38.3652 25.8561 38.7373 25.0595 39.0565 23.5056C39.2094 22.761 39.2572 22.2666 39.2575 21.4246C39.2581 19.5188 39.7171 18.3611 40.8634 17.3741C41.028 17.2323 41.1813 17.1229 41.2039 17.131C41.2555 17.1495 41.4307 17.6157 41.5734 18.1144C41.673 18.4627 41.6822 18.553 41.6832 19.1922C41.6842 19.8378 41.6761 19.9184 41.5744 20.2704C41.4281 20.7765 41.2188 21.2455 40.8592 21.8728C40.4699 22.552 40.2591 23.0446 40.0157 23.8439C39.6822 24.9386 39.6148 25.5826 39.7673 26.2158C39.9348 26.911 40.0667 27.07 40.3967 26.9749C40.5753 26.9235 40.6793 26.799 40.68 26.636C40.6802 26.5772 40.7232 26.3043 40.7756 26.0294C40.9276 25.2318 41.0922 24.9194 41.8253 24.0366C42.0317 23.788 42.2901 23.4457 42.3995 23.2759C42.6459 22.8932 43.0506 22.0281 43.1858 21.5952C43.4069 20.887 43.412 20.8295 43.4443 18.7059C43.4608 17.6128 43.4767 16.7168 43.4795 16.7148C43.4823 16.7128 43.6669 16.7196 43.8896 16.7299C44.6214 16.7639 45.2559 16.5785 45.6427 16.2176C45.8737 16.0021 46.1475 15.5536 46.3114 15.1222C46.5033 14.6172 46.8218 13.2492 46.9252 12.4856C47.0425 11.6197 47.02 10.5746 46.8711 9.96855C46.5651 8.72344 45.8455 7.77117 44.4922 6.82059C43.0746 5.82489 41.7995 5.32344 40.0988 5.09285C39.5853 5.02325 38.7353 4.97906 38.5065 5.01009Z"/>
</mask>
<path fill-rule="evenodd" clip-rule="evenodd" d="M38.5065 5.01009C37.3512 5.1669 36.423 5.66542 35.4896 6.63042C34.2065 7.95706 33.3583 9.897 33.2308 11.7969C33.1658 12.765 33.4334 13.3257 34.2198 13.8695C34.4154 14.0047 34.6103 14.1417 34.653 14.1739C34.7261 14.229 34.6858 14.2826 33.9557 15.1023C33.5296 15.5807 33.0995 16.0943 32.9999 16.2437C32.6069 16.8332 32.2976 17.6061 32.0821 18.5368C32.0063 18.8639 31.975 19.1559 31.9435 19.8266C31.8812 21.1538 31.8082 21.4328 31.3141 22.2322C31.1412 22.5117 30.9999 22.7842 31 22.8376C31.0002 22.9864 31.1344 23.1889 31.274 23.2507C31.3923 23.3032 31.4208 23.295 31.7765 23.1059C32.4281 22.7597 32.8489 22.2276 33.3499 21.1163C33.6951 20.3506 33.8533 19.8709 34.0192 19.0865C34.2337 18.0727 34.4121 17.5532 34.7325 17.0099C35.0695 16.4384 35.7792 15.8129 36.4286 15.5149C36.5888 15.4414 36.6151 15.4382 36.595 15.4945C36.5818 15.5312 36.3462 15.9454 36.0714 16.4148C35.7966 16.8841 35.4955 17.4265 35.4023 17.62C35.0471 18.3573 34.8728 19.0564 34.7893 20.0796C34.7305 20.7989 34.7549 21.2148 34.913 22.1946C35.0202 22.8589 35.036 23.044 35.0179 23.421C34.9931 23.9336 34.9458 24.1217 34.6473 24.893C34.4457 25.4141 34.4333 25.4655 34.4796 25.5852C34.5348 25.728 34.7257 25.8732 34.8584 25.8735C34.9776 25.8737 35.5217 25.432 35.7709 25.1329C36.1575 24.6685 36.4792 23.8553 36.7073 22.7655C36.8662 22.006 36.9246 21.4466 36.9255 20.6723C36.9278 18.8926 37.2336 17.9119 38.0808 16.9674C38.3838 16.6295 39.0093 16.0795 39.0458 16.1186C39.0598 16.1336 38.4298 17.2468 38.0242 17.9236C37.804 18.2913 37.5262 18.91 37.3989 19.3169C37.1958 19.9655 37.1141 20.5857 37.1087 21.518C37.1044 22.2766 37.1133 22.3917 37.2208 22.9558C37.3166 23.4584 37.3375 23.6719 37.337 24.1399C37.3363 24.7824 37.2795 25.0277 36.9413 25.8513C36.8461 26.0832 36.7682 26.3054 36.7682 26.3449C36.7682 26.4503 36.9489 26.6626 37.0804 26.7117C37.2212 26.7641 37.3112 26.7186 37.7064 26.3951C38.3652 25.8561 38.7373 25.0595 39.0565 23.5056C39.2094 22.761 39.2572 22.2666 39.2575 21.4246C39.2581 19.5188 39.7171 18.3611 40.8634 17.3741C41.028 17.2323 41.1813 17.1229 41.2039 17.131C41.2555 17.1495 41.4307 17.6157 41.5734 18.1144C41.673 18.4627 41.6822 18.553 41.6832 19.1922C41.6842 19.8378 41.6761 19.9184 41.5744 20.2704C41.4281 20.7765 41.2188 21.2455 40.8592 21.8728C40.4699 22.552 40.2591 23.0446 40.0157 23.8439C39.6822 24.9386 39.6148 25.5826 39.7673 26.2158C39.9348 26.911 40.0667 27.07 40.3967 26.9749C40.5753 26.9235 40.6793 26.799 40.68 26.636C40.6802 26.5772 40.7232 26.3043 40.7756 26.0294C40.9276 25.2318 41.0922 24.9194 41.8253 24.0366C42.0317 23.788 42.2901 23.4457 42.3995 23.2759C42.6459 22.8932 43.0506 22.0281 43.1858 21.5952C43.4069 20.887 43.412 20.8295 43.4443 18.7059C43.4608 17.6128 43.4767 16.7168 43.4795 16.7148C43.4823 16.7128 43.6669 16.7196 43.8896 16.7299C44.6214 16.7639 45.2559 16.5785 45.6427 16.2176C45.8737 16.0021 46.1475 15.5536 46.3114 15.1222C46.5033 14.6172 46.8218 13.2492 46.9252 12.4856C47.0425 11.6197 47.02 10.5746 46.8711 9.96855C46.5651 8.72344 45.8455 7.77117 44.4922 6.82059C43.0746 5.82489 41.7995 5.32344 40.0988 5.09285C39.5853 5.02325 38.7353 4.97906 38.5065 5.01009Z" fill="#4A00B0"/>
<path d="M38.5065 5.01009L38.4057 4.26691L38.4057 4.26691L38.5065 5.01009ZM35.4896 6.63042L36.0287 7.15185L36.0287 7.15184L35.4896 6.63042ZM33.2308 11.7969L32.4824 11.7466L32.4824 11.7467L33.2308 11.7969ZM34.2198 13.8695L33.7933 14.4864L33.7933 14.4865L34.2198 13.8695ZM34.653 14.1739L34.201 14.7724L34.2013 14.7726L34.653 14.1739ZM33.9557 15.1023L34.5158 15.6011L34.5158 15.6011L33.9557 15.1023ZM32.9999 16.2437L33.624 16.6598L33.624 16.6597L32.9999 16.2437ZM32.0821 18.5368L31.3514 18.3676L31.3514 18.3676L32.0821 18.5368ZM31.9435 19.8266L31.1943 19.7914L31.1943 19.7914L31.9435 19.8266ZM31.3141 22.2322L30.6761 21.8378L30.6761 21.8378L31.3141 22.2322ZM31 22.8376L31.75 22.8366L31.75 22.8365L31 22.8376ZM31.274 23.2507L31.578 22.5651L31.5778 22.565L31.274 23.2507ZM31.7765 23.1059L31.4246 22.4436L31.4246 22.4436L31.7765 23.1059ZM33.3499 21.1163L32.6662 20.8081L32.6662 20.8081L33.3499 21.1163ZM34.0192 19.0865L33.2854 18.9313L33.2854 18.9313L34.0192 19.0865ZM34.7325 17.0099L35.3785 17.3908L35.3785 17.3908L34.7325 17.0099ZM36.4286 15.5149L36.7414 16.1966L36.7414 16.1966L36.4286 15.5149ZM36.595 15.4945L37.3009 15.748L37.3011 15.7473L36.595 15.4945ZM35.4023 17.62L36.078 17.9455L36.078 17.9455L35.4023 17.62ZM34.7893 20.0796L35.5368 20.1407L35.5368 20.1406L34.7893 20.0796ZM34.913 22.1946L34.1725 22.3141L34.1726 22.3142L34.913 22.1946ZM35.0179 23.421L35.767 23.4571L35.767 23.4571L35.0179 23.421ZM34.6473 24.893L33.9479 24.6224L33.9479 24.6224L34.6473 24.893ZM34.4796 25.5852L33.7801 25.8558L33.7801 25.856L34.4796 25.5852ZM34.8584 25.8735L34.857 26.6235H34.8571L34.8584 25.8735ZM35.7709 25.1329L36.3472 25.6129L36.3472 25.6128L35.7709 25.1329ZM36.7073 22.7655L37.4414 22.9192L37.4414 22.9192L36.7073 22.7655ZM36.9255 20.6723L36.1755 20.6714V20.6714L36.9255 20.6723ZM38.0808 16.9674L37.5225 16.4666L37.5225 16.4666L38.0808 16.9674ZM39.0458 16.1186L39.5939 15.6066L39.0458 16.1186ZM38.0242 17.9236L37.3809 17.5381L37.3808 17.5382L38.0242 17.9236ZM37.3989 19.3169L36.6831 19.0929L36.6831 19.0929L37.3989 19.3169ZM37.1087 21.518L36.3587 21.5137L36.3587 21.5138L37.1087 21.518ZM37.2208 22.9558L36.4841 23.0962L36.4841 23.0962L37.2208 22.9558ZM37.337 24.1399L36.587 24.139V24.139L37.337 24.1399ZM36.9413 25.8513L37.6351 26.1363L37.6351 26.1362L36.9413 25.8513ZM37.0804 26.7117L36.8182 27.4143L36.8184 27.4144L37.0804 26.7117ZM37.7064 26.3951L37.2315 25.8147L37.2314 25.8147L37.7064 26.3951ZM39.0565 23.5056L39.7912 23.6565L39.7912 23.6564L39.0565 23.5056ZM39.2575 21.4246L38.5075 21.4243V21.4243L39.2575 21.4246ZM40.8634 17.3741L40.3741 16.8057L40.3741 16.8057L40.8634 17.3741ZM41.2039 17.131L41.4563 16.4248L41.4559 16.4246L41.2039 17.131ZM41.5734 18.1144L42.2945 17.9081L42.2944 17.9081L41.5734 18.1144ZM41.6832 19.1922L42.4332 19.1911V19.1911L41.6832 19.1922ZM41.5744 20.2704L42.2949 20.4786L42.2949 20.4785L41.5744 20.2704ZM40.8592 21.8728L40.2086 21.4998L40.2085 21.4998L40.8592 21.8728ZM40.0157 23.8439L40.7331 24.0624L40.7331 24.0624L40.0157 23.8439ZM39.7673 26.2158L39.0382 26.3914L39.0382 26.3915L39.7673 26.2158ZM40.3967 26.9749L40.1892 26.2542L40.189 26.2543L40.3967 26.9749ZM40.68 26.636L41.43 26.6391L41.43 26.6385L40.68 26.636ZM40.7756 26.0294L40.0388 25.889L40.0388 25.8891L40.7756 26.0294ZM41.8253 24.0366L42.4023 24.5158L41.8253 24.0366ZM42.3995 23.2759L43.0301 23.6819L43.0301 23.6819L42.3995 23.2759ZM43.1858 21.5952L43.9017 21.8187L43.9017 21.8187L43.1858 21.5952ZM43.4443 18.7059L44.1942 18.7173L44.1942 18.7173L43.4443 18.7059ZM43.4795 16.7148L43.9091 17.3296L43.9131 17.3268L43.4795 16.7148ZM43.8896 16.7299L43.9244 15.9807L43.9244 15.9807L43.8896 16.7299ZM45.6427 16.2176L46.1543 16.766L46.1544 16.766L45.6427 16.2176ZM46.3114 15.1222L47.0125 15.3886L47.0125 15.3885L46.3114 15.1222ZM46.9252 12.4856L46.1819 12.3849L46.1819 12.3849L46.9252 12.4856ZM46.8711 9.96855L47.5994 9.7896L47.5994 9.78958L46.8711 9.96855ZM44.4922 6.82059L44.9232 6.20686L44.9232 6.20686L44.4922 6.82059ZM40.0988 5.09285L40.1996 4.34965L40.1996 4.34965L40.0988 5.09285ZM38.4057 4.26691C37.0588 4.4497 35.9824 5.0422 34.9505 6.109L36.0287 7.15184C36.8636 6.28864 37.6436 5.88409 38.6074 5.75328L38.4057 4.26691ZM34.9506 6.109C33.5399 7.56739 32.6215 9.67603 32.4824 11.7466L33.9791 11.8471C34.0952 10.118 34.873 8.34674 36.0287 7.15185L34.9506 6.109ZM32.4824 11.7467C32.4449 12.3065 32.4976 12.8301 32.7291 13.3153C32.9612 13.8017 33.3347 14.1693 33.7933 14.4864L34.6464 13.2526C34.3185 13.0259 34.1649 12.8413 34.0829 12.6693C34.0002 12.4962 33.9517 12.2554 33.9791 11.8471L32.4824 11.7467ZM33.7933 14.4865C33.8897 14.5531 33.9857 14.62 34.0625 14.674C34.1009 14.701 34.1339 14.7243 34.1594 14.7424C34.1721 14.7515 34.1824 14.7589 34.1902 14.7646C34.1988 14.7708 34.2017 14.773 34.201 14.7724L35.1049 13.5754C35.0467 13.5314 34.8362 13.3838 34.6463 13.2526L33.7933 14.4865ZM34.2013 14.7726C34.1859 14.7611 34.0868 14.6883 34.0128 14.5502C33.9239 14.3842 33.9162 14.2147 33.9409 14.0859C33.961 13.9811 34.0001 13.9136 34.0066 13.9023C34.0166 13.8849 34.02 13.8821 34.0058 13.901C33.9377 13.9918 33.7735 14.1792 33.3957 14.6035L34.5158 15.6011C34.868 15.2056 35.089 14.9565 35.2053 14.8018C35.2372 14.7593 35.2742 14.7071 35.3074 14.6492C35.3371 14.5974 35.3892 14.4984 35.4141 14.368C35.4437 14.2137 35.4329 14.0245 35.335 13.8418C35.2521 13.6871 35.1383 13.6005 35.1047 13.5752L34.2013 14.7726ZM33.3957 14.6034C32.9799 15.0703 32.5105 15.6257 32.3759 15.8277L33.624 16.6597C33.6236 16.6603 33.6254 16.6575 33.6305 16.6505C33.6353 16.6438 33.6419 16.6349 33.6505 16.6236C33.6677 16.6008 33.6903 16.5717 33.7182 16.5366C33.7741 16.4664 33.8463 16.3784 33.9304 16.2779C34.0985 16.0772 34.3075 15.835 34.5158 15.6011L33.3957 14.6034ZM32.3759 15.8276C31.9186 16.5135 31.5806 17.3776 31.3514 18.3676L32.8127 18.706C33.0145 17.8345 33.2952 17.1529 33.624 16.6598L32.3759 15.8276ZM31.3514 18.3676C31.2598 18.7634 31.2263 19.1109 31.1943 19.7914L32.6926 19.8617C32.7237 19.2009 32.7529 18.9645 32.8127 18.706L31.3514 18.3676ZM31.1943 19.7914C31.1628 20.4624 31.1303 20.7886 31.0651 21.0375C31.0064 21.2621 30.9129 21.4548 30.6761 21.8378L31.952 22.6265C32.2094 22.2102 32.3995 21.8637 32.5163 21.4172C32.6268 20.9949 32.6619 20.518 32.6927 19.8617L31.1943 19.7914ZM30.6761 21.8378C30.5816 21.9907 30.4934 22.1452 30.4264 22.2743C30.3935 22.3378 30.361 22.4042 30.3347 22.4659C30.3219 22.4961 30.306 22.5356 30.2921 22.5791C30.285 22.6011 30.2498 22.7066 30.25 22.8387L31.75 22.8365C31.7501 22.9076 31.7395 22.9612 31.7349 22.9825C31.7293 23.0085 31.7235 23.0274 31.7207 23.0363C31.7152 23.0536 31.7117 23.0609 31.7148 23.0537C31.7203 23.0405 31.734 23.0113 31.758 22.965C31.8048 22.8747 31.8737 22.7531 31.952 22.6265L30.6761 21.8378ZM30.25 22.8386C30.2504 23.1112 30.3612 23.3427 30.4597 23.4913C30.5593 23.6416 30.7271 23.8287 30.9701 23.9364L31.5778 22.565C31.6369 22.5912 31.6707 22.6203 31.6835 22.6322C31.6981 22.6458 31.7057 22.6561 31.7098 22.6623C31.7139 22.6685 31.721 22.6804 31.7285 22.701C31.735 22.7191 31.7499 22.766 31.75 22.8366L30.25 22.8386ZM30.9699 23.9363C31.0052 23.952 31.1095 23.9992 31.2433 24.0189C31.3962 24.0413 31.5317 24.0219 31.6438 23.9896C31.8046 23.9433 31.9851 23.8445 32.1285 23.7682L31.4246 22.4436C31.3341 22.4917 31.2771 22.5215 31.2365 22.5413C31.2172 22.5507 31.2074 22.5549 31.2042 22.5562C31.2008 22.5577 31.2101 22.5535 31.2286 22.5482C31.2479 22.5427 31.2807 22.5348 31.3235 22.5309C31.3682 22.5268 31.4149 22.528 31.4615 22.5348C31.5063 22.5414 31.5406 22.5518 31.5602 22.5586C31.5774 22.5645 31.5868 22.569 31.578 22.5651L30.9699 23.9363ZM32.1285 23.7683C32.9954 23.3076 33.5052 22.5968 34.0336 21.4246L32.6662 20.8081C32.1926 21.8585 31.8608 22.2119 31.4246 22.4436L32.1285 23.7683ZM34.0336 21.4246C34.3999 20.6121 34.5754 20.0812 34.753 19.2417L33.2854 18.9313C33.1312 19.6606 32.9903 20.0891 32.6662 20.8081L34.0336 21.4246ZM34.753 19.2417C34.9599 18.2632 35.1174 17.8337 35.3785 17.3908L34.0864 16.6289C33.7068 17.2727 33.5074 17.8822 33.2854 18.9313L34.753 19.2417ZM35.3785 17.3908C35.6316 16.9616 36.2198 16.4359 36.7414 16.1966L36.1159 14.8332C35.3385 15.1899 34.5073 15.9152 34.0864 16.6289L35.3785 17.3908ZM36.7414 16.1966C36.7793 16.1792 36.7958 16.1722 36.8008 16.1703C36.8232 16.1614 36.7626 16.1892 36.6707 16.2005C36.6264 16.2059 36.4908 16.2195 36.3297 16.1589C36.1238 16.0816 35.9591 15.9143 35.888 15.6992C35.8324 15.5312 35.8536 15.3922 35.8612 15.3479C35.8709 15.2921 35.885 15.2524 35.8889 15.2417L37.3011 15.7473C37.31 15.7225 37.3277 15.6706 37.3391 15.6045C37.3486 15.5499 37.3698 15.4025 37.312 15.228C37.2387 15.0065 37.0698 14.8346 36.8572 14.7548C36.6893 14.6917 36.5444 14.7047 36.4881 14.7116C36.3721 14.7258 36.2762 14.7647 36.2493 14.7753C36.2049 14.7929 36.158 14.8139 36.1158 14.8333L36.7414 16.1966ZM35.8891 15.241C35.8981 15.2159 35.9064 15.1974 35.9088 15.1921C35.9122 15.1844 35.9148 15.1791 35.9157 15.1772C35.9176 15.1734 35.9179 15.173 35.9154 15.1777C35.9107 15.1867 35.9022 15.2025 35.8891 15.2262C35.8634 15.273 35.8261 15.3394 35.7794 15.4215C35.6864 15.585 35.5603 15.8032 35.4241 16.0359L36.7186 16.7937C36.8572 16.557 36.9864 16.3334 37.0831 16.1633C37.1313 16.0786 37.1726 16.0052 37.2033 15.9493C37.2185 15.9218 37.2327 15.8955 37.2445 15.873C37.2446 15.8728 37.278 15.8117 37.3009 15.748L35.8891 15.241ZM35.4241 16.0359C35.1499 16.5042 34.8345 17.0704 34.7266 17.2944L36.078 17.9455C36.1565 17.7825 36.4432 17.2641 36.7186 16.7937L35.4241 16.0359ZM34.7266 17.2944C34.3227 18.1329 34.131 18.926 34.0418 20.0186L35.5368 20.1406C35.6147 19.1868 35.7715 18.5817 36.078 17.9455L34.7266 17.2944ZM34.0418 20.0185C33.9766 20.8158 34.0081 21.2952 34.1725 22.3141L35.6534 22.0752C35.5016 21.1344 35.4844 20.782 35.5368 20.1407L34.0418 20.0185ZM34.1726 22.3142C34.2769 22.9603 34.2832 23.0853 34.2687 23.3849L35.767 23.4571C35.7889 23.0027 35.7635 22.7575 35.6534 22.0751L34.1726 22.3142ZM34.2687 23.3848C34.2574 23.6191 34.2428 23.7384 34.2079 23.8769C34.1684 24.0338 34.0984 24.2334 33.9479 24.6224L35.3468 25.1637C35.4947 24.7814 35.5976 24.5013 35.6626 24.2431C35.7322 23.9666 35.7536 23.7355 35.767 23.4571L34.2687 23.3848ZM33.9479 24.6224C33.8553 24.8615 33.7786 25.0602 33.7416 25.213C33.7195 25.3039 33.7 25.4207 33.7099 25.5549C33.7201 25.6927 33.7579 25.7984 33.7801 25.8558L35.1791 25.3147C35.1781 25.3121 35.2001 25.3665 35.2059 25.4447C35.2085 25.4812 35.207 25.5119 35.2045 25.5342C35.2033 25.5449 35.202 25.5531 35.201 25.5584C35.2005 25.561 35.2001 25.563 35.1998 25.5643C35.1997 25.565 35.1996 25.5655 35.1995 25.5658C35.1994 25.5659 35.1994 25.5661 35.1994 25.5661C35.1994 25.5662 35.1994 25.5663 35.1994 25.5663C35.1994 25.5663 35.1994 25.5662 35.1994 25.5661C35.1994 25.5661 35.1994 25.5659 35.1995 25.5658C35.1996 25.5655 35.1997 25.565 35.1998 25.5644C35.2002 25.5631 35.2007 25.5613 35.2014 25.5589C35.2028 25.5539 35.2049 25.547 35.2079 25.5376C35.214 25.5186 35.2227 25.493 35.2352 25.4583C35.2606 25.3877 35.2962 25.2945 35.3468 25.1637L33.9479 24.6224ZM33.7801 25.856C33.873 26.0958 34.0433 26.2713 34.1858 26.3796C34.317 26.4795 34.5566 26.6229 34.857 26.6235L34.8598 25.1235C34.9562 25.1237 35.0207 25.1481 35.044 25.158C35.0717 25.1698 35.0872 25.1807 35.0941 25.1859C35.1015 25.1916 35.1109 25.1998 35.1224 25.2138C35.1325 25.226 35.1573 25.2585 35.179 25.3144L33.7801 25.856ZM34.8571 26.6235C35.0518 26.6238 35.2042 26.5499 35.2418 26.5322C35.3091 26.5004 35.3713 26.4633 35.4217 26.4309C35.5245 26.3648 35.6349 26.2819 35.7386 26.1978C35.9416 26.033 36.1801 25.8134 36.3472 25.6129L35.1946 24.6529C35.1125 24.7515 34.9543 24.9024 34.7933 25.0331C34.7149 25.0967 34.6512 25.143 34.6108 25.169C34.5895 25.1826 34.5876 25.1823 34.6014 25.1758C34.6085 25.1724 34.6301 25.1625 34.6627 25.1523C34.6894 25.1441 34.7614 25.1233 34.8597 25.1235L34.8571 26.6235ZM36.3472 25.6128C36.8537 25.0046 37.206 24.0437 37.4414 22.9192L35.9732 22.6119C35.7524 23.6668 35.4613 24.3325 35.1945 24.653L36.3472 25.6128ZM37.4414 22.9192C37.6108 22.1096 37.6745 21.4989 37.6755 20.6732L36.1755 20.6714C36.1746 21.3942 36.1216 21.9025 35.9732 22.6119L37.4414 22.9192ZM37.6755 20.6732C37.6766 19.8205 37.7512 19.2145 37.9023 18.7299C38.0491 18.2592 38.2783 17.8704 38.6391 17.4682L37.5225 16.4666C37.0361 17.0089 36.6888 17.5827 36.4703 18.2834C36.2561 18.9702 36.1767 19.7444 36.1755 20.6714L37.6755 20.6732ZM38.6391 17.4682C38.7637 17.3292 38.9721 17.1287 39.1586 16.9648C39.2514 16.8831 39.3259 16.8219 39.372 16.7874C39.3988 16.7673 39.3965 16.771 39.3747 16.7833C39.3693 16.7863 39.3194 16.8153 39.2439 16.8375C39.2077 16.8482 39.1216 16.8708 39.0085 16.866C38.8912 16.8609 38.6755 16.8209 38.4978 16.6306L39.5939 15.6066C39.4139 15.4139 39.1947 15.3726 39.0729 15.3673C38.9553 15.3623 38.8636 15.3858 38.8207 15.3985C38.7319 15.4246 38.6645 15.4617 38.6379 15.4767C38.5737 15.5129 38.5141 15.5558 38.4725 15.587C38.3815 15.6552 38.2739 15.7453 38.1679 15.8384C37.9567 16.0242 37.7009 16.2677 37.5225 16.4666L38.6391 17.4682ZM38.4978 16.6306C38.3432 16.4652 38.3107 16.2834 38.3018 16.2116C38.2914 16.128 38.2976 16.0616 38.3015 16.0299C38.3094 15.9647 38.3243 15.9159 38.3288 15.9014C38.3401 15.865 38.3515 15.8392 38.3525 15.8367C38.3575 15.8253 38.3591 15.8227 38.3525 15.8359C38.3411 15.8585 38.3205 15.8977 38.2898 15.9544C38.2295 16.0656 38.1419 16.2228 38.0397 16.4035C37.8353 16.7646 37.5796 17.2065 37.3809 17.5381L38.6676 18.3091C38.8744 17.9639 39.1365 17.5108 39.3451 17.1423C39.4493 16.9582 39.5419 16.792 39.6085 16.6692C39.6412 16.6088 39.6707 16.5533 39.6927 16.5095C39.7027 16.4896 39.7169 16.4608 39.7297 16.4311C39.7347 16.4195 39.7489 16.3866 39.7618 16.345C39.767 16.3279 39.7825 16.2771 39.7906 16.2104C39.7945 16.1779 39.8008 16.1108 39.7903 16.0268C39.7814 15.9545 39.7487 15.7723 39.5939 15.6066L38.4978 16.6306ZM37.3808 17.5382C37.1303 17.9563 36.8283 18.6291 36.6831 19.0929L38.1146 19.5409C38.2242 19.1908 38.4776 18.6262 38.6676 18.3091L37.3808 17.5382ZM36.6831 19.0929C36.4513 19.8335 36.3644 20.5324 36.3587 21.5137L37.8587 21.5224C37.8638 20.6389 37.9404 20.0976 38.1146 19.5409L36.6831 19.0929ZM36.3587 21.5138C36.3542 22.3064 36.3652 22.4721 36.4841 23.0962L37.9576 22.8155C37.9042 22.5353 37.8822 22.4009 37.8706 22.2516C37.8583 22.094 37.8565 21.9069 37.8587 21.5223L36.3587 21.5138ZM36.4841 23.0962C36.5718 23.5565 36.5875 23.7226 36.587 24.139L38.087 24.1408C38.0876 23.6212 38.0614 23.3604 37.9576 22.8154L36.4841 23.0962ZM36.587 24.139C36.5866 24.4373 36.5729 24.5945 36.535 24.7588C36.4935 24.9381 36.4163 25.1554 36.2475 25.5664L37.6351 26.1362C37.8045 25.7236 37.9248 25.4065 37.9964 25.0966C38.0715 24.7717 38.0866 24.4849 38.087 24.1407L36.587 24.139ZM36.2476 25.5664C36.1958 25.6924 36.1477 25.8182 36.1113 25.922C36.0934 25.9731 36.076 26.0254 36.0621 26.0729C36.0552 26.0961 36.0471 26.1257 36.0399 26.1576C36.0366 26.1724 36.0182 26.2503 36.0182 26.3449H37.5182C37.5182 26.3966 37.5125 26.4356 37.5103 26.4495C37.5076 26.4675 37.5047 26.4805 37.5035 26.4862C37.5009 26.4974 37.4996 26.5013 37.5016 26.4946C37.5052 26.482 37.5133 26.4569 37.5267 26.4185C37.5531 26.3433 37.5916 26.2422 37.6351 26.1363L36.2476 25.5664ZM36.0182 26.3449C36.0182 26.5558 36.0979 26.7203 36.1372 26.7938C36.1868 26.8864 36.2466 26.9683 36.3039 27.0357C36.3994 27.1477 36.5777 27.3246 36.8182 27.4143L37.3426 26.009C37.3808 26.0232 37.4069 26.038 37.4202 26.0461C37.4342 26.0547 37.4426 26.0611 37.4456 26.0636C37.4507 26.0677 37.4493 26.0671 37.446 26.0632C37.4417 26.0581 37.448 26.0641 37.4596 26.0858C37.4657 26.0971 37.4778 26.1213 37.4894 26.157C37.5001 26.1899 37.5182 26.256 37.5182 26.3449H36.0182ZM36.8184 27.4144C36.9134 27.4498 37.0528 27.4883 37.2243 27.4786C37.3921 27.4692 37.5311 27.417 37.6364 27.3637C37.8133 27.2742 38.0004 27.1237 38.1814 26.9755L37.2314 25.8147C37.1347 25.8939 37.0667 25.9478 37.0159 25.9853C36.9624 26.0248 36.949 26.0304 36.9596 26.0251C36.9754 26.0171 37.0407 25.9866 37.1398 25.981C37.2424 25.9752 37.3178 25.9997 37.3425 26.0089L36.8184 27.4144ZM38.1814 26.9756C39.0478 26.2666 39.4635 25.2518 39.7912 23.6565L38.3218 23.3547C38.0112 24.8672 37.6826 25.4456 37.2315 25.8147L38.1814 26.9756ZM39.7912 23.6564C39.9553 22.8574 40.0072 22.3121 40.0075 21.4248L38.5075 21.4243C38.5072 22.2211 38.4635 22.6647 38.3218 23.3547L39.7912 23.6564ZM40.0075 21.4248C40.0078 20.5283 40.1165 19.8647 40.328 19.3312C40.5354 18.8081 40.8582 18.3683 41.3528 17.9424L40.3741 16.8057C39.7223 17.3669 39.2424 17.9994 38.9336 18.7784C38.6289 19.5469 38.5078 20.4151 38.5075 21.4243L40.0075 21.4248ZM41.3528 17.9425C41.4224 17.8825 41.4837 17.8346 41.5227 17.8068C41.5444 17.7913 41.5461 17.7914 41.5324 17.7991C41.528 17.8016 41.4979 17.8187 41.452 17.8359C41.4296 17.8443 41.3822 17.8608 41.3188 17.8711C41.286 17.8765 41.2386 17.8819 41.1814 17.8803C41.1251 17.8788 41.0439 17.8702 40.9519 17.8374L41.4559 16.4246C41.2807 16.3621 41.1318 16.3818 41.0775 16.3906C41.0093 16.4018 40.9562 16.4199 40.927 16.4308C40.8677 16.4529 40.8207 16.4784 40.7962 16.4922C40.7423 16.5226 40.6911 16.5574 40.6511 16.586C40.5667 16.6463 40.4691 16.7239 40.3741 16.8057L41.3528 17.9425ZM40.9515 17.8373C40.8554 17.8029 40.7872 17.7561 40.7486 17.7261C40.708 17.6945 40.6788 17.6647 40.661 17.6452C40.6265 17.6074 40.6058 17.576 40.5988 17.5651C40.5838 17.542 40.5797 17.5312 40.5869 17.5463C40.5993 17.5721 40.6217 17.6247 40.6524 17.7064C40.7123 17.8659 40.7856 18.0876 40.8523 18.3208L42.2944 17.9081C42.2185 17.6425 42.1328 17.3818 42.0566 17.1788C42.0192 17.0794 41.9792 16.9808 41.9398 16.8984C41.9211 16.8594 41.8937 16.8053 41.8587 16.7511C41.8417 16.7248 41.8117 16.6809 41.7689 16.634C41.7411 16.6035 41.6359 16.489 41.4563 16.4248L40.9515 17.8373ZM40.8523 18.3207C40.8986 18.4826 40.9111 18.5413 40.9192 18.6202C40.9295 18.7218 40.9327 18.8646 40.9332 19.1934L42.4332 19.1911C42.4327 18.8806 42.4309 18.6587 42.4114 18.4682C42.3897 18.255 42.3478 18.0945 42.2945 17.9081L40.8523 18.3207ZM40.9332 19.1934C40.9337 19.5267 40.9311 19.667 40.9211 19.7661C40.9135 19.8412 40.9017 19.8965 40.8539 20.0622L42.2949 20.4785C42.3487 20.2923 42.3919 20.1312 42.4135 19.9167C42.4328 19.7261 42.4337 19.5033 42.4332 19.1911L40.9332 19.1934ZM40.8539 20.0622C40.7291 20.494 40.5486 20.9066 40.2086 21.4998L41.5099 22.2458C41.8891 21.5843 42.1272 21.0591 42.2949 20.4786L40.8539 20.0622ZM40.2085 21.4998C39.7895 22.231 39.557 22.7758 39.2982 23.6253L40.7331 24.0624C40.9613 23.3133 41.1504 22.873 41.5099 22.2458L40.2085 21.4998ZM39.2982 23.6253C38.9514 24.764 38.8387 25.5633 39.0382 26.3914L40.4965 26.0401C40.3909 25.6019 40.413 25.1133 40.7331 24.0624L39.2982 23.6253ZM39.0382 26.3915C39.0827 26.5764 39.1304 26.7494 39.1864 26.901C39.2403 27.0468 39.3182 27.219 39.4437 27.3704C39.5841 27.5397 39.7809 27.6782 40.0343 27.7294C40.2628 27.7755 40.4662 27.7354 40.6045 27.6955L40.189 26.2543C40.1622 26.262 40.2254 26.2377 40.3312 26.259C40.3881 26.2705 40.4451 26.2928 40.4969 26.3255C40.547 26.3571 40.5799 26.3907 40.5985 26.413C40.6289 26.4497 40.6217 26.4577 40.5935 26.3811C40.5673 26.3103 40.5356 26.2027 40.4964 26.0401L39.0382 26.3915ZM40.6043 27.6956C41.0425 27.5694 41.4277 27.1942 41.43 26.6391L39.93 26.6329C39.9303 26.5475 39.961 26.4484 40.0295 26.3664C40.0939 26.2894 40.162 26.262 40.1892 26.2542L40.6043 27.6956ZM41.43 26.6385C41.4299 26.6665 41.4279 26.6833 41.4286 26.6755C41.4289 26.6726 41.4297 26.6646 41.4316 26.6503C41.4352 26.6219 41.441 26.5814 41.4491 26.5305C41.465 26.4294 41.4875 26.3003 41.5123 26.1697L40.0388 25.8891C40.0113 26.0334 39.9861 26.1782 39.9674 26.2969C39.9538 26.3831 39.9303 26.5329 39.93 26.6334L41.43 26.6385ZM41.5123 26.1698C41.5819 25.8049 41.6435 25.6092 41.7461 25.4145C41.8582 25.2016 42.0376 24.9548 42.4023 24.5158L41.2483 23.5574C40.8798 24.0011 40.6104 24.3519 40.4189 24.7154C40.2179 25.097 40.1213 25.4563 40.0388 25.889L41.5123 26.1698ZM42.4023 24.5158C42.6181 24.2559 42.8976 23.8876 43.0301 23.6819L41.7689 22.8698C41.6826 23.0038 41.4454 23.3201 41.2483 23.5574L42.4023 24.5158ZM43.0301 23.6819C43.3128 23.2428 43.7464 22.3162 43.9017 21.8187L42.4699 21.3717C42.3549 21.7399 41.9789 22.5437 41.7689 22.8698L43.0301 23.6819ZM43.9017 21.8187C44.0171 21.4492 44.0927 21.1971 44.1329 20.7481C44.1689 20.3448 44.1783 19.7636 44.1942 18.7173L42.6943 18.6945C42.678 19.7718 42.6686 20.2812 42.6388 20.6145C42.6131 20.9022 42.5756 21.033 42.4699 21.3717L43.9017 21.8187ZM44.1942 18.7173C44.2024 18.1712 44.2105 17.6745 44.2169 17.3145C44.2201 17.1343 44.2229 16.989 44.225 16.8889C44.2261 16.8386 44.2269 16.8011 44.2276 16.7767C44.228 16.764 44.2282 16.7575 44.2283 16.7553C44.2283 16.7533 44.2282 16.7579 44.2277 16.7653C44.2276 16.7674 44.2268 16.7802 44.225 16.7969C44.2243 16.8029 44.2218 16.8264 44.2161 16.8561C44.2137 16.8686 44.2066 16.9046 44.192 16.9491C44.1838 16.9727 44.1596 17.0311 44.1426 17.0653C44.1106 17.1201 43.9977 17.2571 43.9091 17.3296L43.05 16.1C42.9614 16.1725 42.8484 16.3095 42.8165 16.3643C42.7995 16.3985 42.7752 16.4569 42.767 16.4806C42.7524 16.5252 42.7453 16.5613 42.7429 16.5739C42.7371 16.6039 42.7345 16.6277 42.7338 16.6341C42.7319 16.6518 42.731 16.6659 42.7308 16.6698C42.7301 16.6808 42.7296 16.6907 42.7295 16.6956C42.729 16.7073 42.7286 16.7213 42.7282 16.7354C42.7274 16.7647 42.7264 16.8061 42.7253 16.8571C42.7231 16.9598 42.7204 17.1072 42.7172 17.2879C42.7107 17.6496 42.7026 18.1476 42.6943 18.6946L44.1942 18.7173ZM43.9131 17.3268C43.8636 17.3619 43.8191 17.3843 43.7898 17.3976C43.7592 17.4115 43.7327 17.421 43.7136 17.4273C43.6764 17.4395 43.6458 17.4463 43.6289 17.4497C43.5948 17.4566 43.5678 17.4596 43.5571 17.4607C43.5331 17.4632 43.5145 17.4638 43.5094 17.464C43.4961 17.4645 43.4867 17.4644 43.4867 17.4644C43.4842 17.4644 43.486 17.4644 43.4951 17.4646C43.5116 17.465 43.5384 17.4659 43.5745 17.4672C43.6458 17.4699 43.7452 17.474 43.8549 17.4791L43.9244 15.9807C43.8114 15.9755 43.7071 15.9711 43.6298 15.9683C43.5916 15.9668 43.5577 15.9657 43.5319 15.9651C43.5198 15.9648 43.505 15.9645 43.4909 15.9644C43.4852 15.9644 43.4713 15.9644 43.4549 15.965C43.4483 15.9653 43.4285 15.966 43.4036 15.9686C43.3924 15.9697 43.365 15.9727 43.3307 15.9797C43.3137 15.9831 43.283 15.9899 43.2457 16.0022C43.2184 16.0111 43.1359 16.0391 43.0459 16.1028L43.9131 17.3268ZM43.8549 17.4791C44.709 17.5188 45.5704 17.3107 46.1543 16.766L45.1311 15.6692C44.9414 15.8462 44.5338 16.009 43.9244 15.9807L43.8549 17.4791ZM46.1544 16.766C46.4988 16.4446 46.8252 15.8816 47.0125 15.3886L45.6103 14.8558C45.4698 15.2256 45.2485 15.5596 45.1311 15.6692L46.1544 16.766ZM47.0125 15.3885C47.2313 14.8128 47.5603 13.3846 47.6684 12.5862L46.1819 12.3849C46.0833 13.1137 45.7753 14.4215 45.6103 14.8558L47.0125 15.3885ZM47.6684 12.5863C47.7936 11.6617 47.7778 10.5158 47.5994 9.7896L46.1427 10.1475C46.2621 10.6334 46.2913 11.5778 46.1819 12.3849L47.6684 12.5863ZM47.5994 9.78958C47.2389 8.32231 46.3809 7.23071 44.9232 6.20686L44.0611 7.43431C45.3101 8.31162 45.8914 9.12457 46.1427 10.1475L47.5994 9.78958ZM44.9232 6.20686C43.4085 5.14288 42.0203 4.59652 40.1996 4.34965L39.9981 5.83605C41.5787 6.05037 42.7407 6.5069 44.0611 7.43432L44.9232 6.20686ZM40.1996 4.34965C39.9159 4.3112 39.5531 4.28129 39.2348 4.26474C38.9444 4.24965 38.6022 4.24024 38.4057 4.26691L38.6074 5.75328C38.6067 5.75338 38.6554 5.74927 38.7742 5.75012C38.8799 5.75089 39.012 5.75519 39.157 5.76272C39.4492 5.77791 39.7682 5.8049 39.9981 5.83606L40.1996 4.34965Z" fill="#4A00B0" mask="url(#path-5-inside-1)"/>
</svg>
