<svg width="55" height="32" fill="none" xmlns="http://www.w3.org/2000/svg"><circle cx="16" cy="16" r="15.5" fill="#EDEDED" stroke="#C300BE"/><path d="M22.44 16.824c.264-.118.396-.236.924-.353.792-.118.46-.118 1.056-.118.723.122.596.737.52.88 0 .055-.8.743-1.68 1.447l-.856.69c.04.256-.145.442-.596.615-.592.226-1.152.237-2.484.048-1.564-.221-2.471-.16-3.512.238-.398.152-.512.224-.465.295.025.038.093.02.364-.093.703-.295 1.275-.405 2.106-.405.564 0 .767.017 1.798.15.358.047.739.093.846.103l.196.02-.315.255c-.173.14-.604.53-.957.866-.633.602-1.043.946-1.312 1.1-.312.18-1.139.192-2.037.031-.464-.083-.775-.157-2.877-.68-1.127-.28-1.573-.35-2.227-.352-.392-.002-.591.013-.764.056a3.548 3.548 0 00-.946.393l-.205.13-.287-.409c-.623-.885-1.74-2.54-1.73-2.562.006-.013.188-.187.404-.387.686-.635 1.323-1.051 2.073-1.357.58-.237.79-.27 1.918-.3.956-.025 1.015-.03 1.575-.146.32-.066.621-.126.668-.134.047-.008.25-.016.45-.018.653-.009 1.159.19 2.09.82.885.6 1.308.762 2.135.816.264.017.541.04.617.05.043.007.226.017.475.027.22-.245.773-.45 1.056-.658.402-.247.796-.442 1.062-.6.395-.235.75-.383.918-.458z" fill="#C300BE" stroke="#C300BE" stroke-width=".75"/><path d="M15.483 10.413c1.378-.727 2.597 1.408 2.597 1.408s1.363-2.617 2.907-1.42c1.765 1.367-1.525 4.352-2.595 5.25a.467.467 0 01-.624-.017c-1.032-.969-4.232-4.194-2.285-5.221z" fill="#C300BE" stroke="#C300BE" stroke-width=".75" stroke-linejoin="round"/><circle cx="39" cy="16" r="15.5" fill="#EDEDED" stroke="#C300BE"/><mask id="a" fill="#fff"><path fill-rule="evenodd" clip-rule="evenodd" d="M38.507 5.01c-1.156.157-2.084.655-3.017 1.62-1.284 1.327-2.132 3.267-2.26 5.167-.064.968.203 1.529.99 2.072.195.136.39.273.433.305.073.055.033.109-.697.928-.426.479-.857.992-.956 1.142-.393.59-.702 1.362-.918 2.293-.076.327-.107.619-.139 1.29-.062 1.327-.135 1.606-.629 2.405-.173.28-.314.552-.314.606a.53.53 0 00.274.413c.118.052.147.044.502-.145.652-.346 1.073-.878 1.574-1.99a8.676 8.676 0 00.67-2.03c.214-1.013.392-1.533.712-2.076.337-.572 1.047-1.197 1.697-1.495.16-.074.186-.077.166-.02-.013.036-.249.45-.524.92-.274.47-.575 1.012-.669 1.205-.355.737-.53 1.436-.613 2.46-.059.719-.034 1.135.124 2.115.107.664.123.849.105 1.226-.025.513-.072.7-.37 1.472-.202.521-.215.572-.168.692.055.143.246.288.378.288.12 0 .664-.441.913-.74.386-.464.708-1.278.936-2.367.16-.76.218-1.32.218-2.094.003-1.78.309-2.76 1.156-3.705.303-.337.928-.887.965-.848.014.015-.616 1.128-1.022 1.805-.22.367-.498.986-.625 1.393-.203.648-.285 1.269-.29 2.201-.005.759.004.874.112 1.438.096.502.117.716.116 1.184 0 .642-.058.888-.396 1.711-.095.232-.173.454-.173.494 0 .105.18.318.312.367.141.052.231.007.626-.317.66-.539 1.031-1.335 1.35-2.89.153-.744.201-1.238.202-2.08 0-1.906.46-3.064 1.605-4.05.165-.143.318-.252.34-.244.052.018.228.485.37.983.1.349.11.439.11 1.078.001.646-.007.726-.109 1.078-.146.506-.355.976-.715 1.603-.39.679-.6 1.172-.843 1.97-.334 1.096-.401 1.74-.249 2.373.168.695.3.854.63.759.178-.052.282-.176.283-.339 0-.059.043-.332.096-.607.152-.797.316-1.11 1.05-1.992.206-.249.464-.591.574-.761a9.43 9.43 0 00.786-1.68c.22-.709.226-.767.258-2.89a196.6 196.6 0 01.035-1.991c.003-.002.188.005.41.015.732.034 1.367-.152 1.754-.512.23-.216.505-.664.668-1.096.192-.505.51-1.873.614-2.636.117-.866.095-1.911-.054-2.517-.306-1.246-1.026-2.198-2.379-3.148-1.417-.996-2.692-1.498-4.393-1.728-.514-.07-1.364-.114-1.592-.083z"/></mask><path fill-rule="evenodd" clip-rule="evenodd" d="M38.507 5.01c-1.156.157-2.084.655-3.017 1.62-1.284 1.327-2.132 3.267-2.26 5.167-.064.968.203 1.529.99 2.072.195.136.39.273.433.305.073.055.033.109-.697.928-.426.479-.857.992-.956 1.142-.393.59-.702 1.362-.918 2.293-.076.327-.107.619-.139 1.29-.062 1.327-.135 1.606-.629 2.405-.173.28-.314.552-.314.606a.53.53 0 00.274.413c.118.052.147.044.502-.145.652-.346 1.073-.878 1.574-1.99a8.676 8.676 0 00.67-2.03c.214-1.013.392-1.533.712-2.076.337-.572 1.047-1.197 1.697-1.495.16-.074.186-.077.166-.02-.013.036-.249.45-.524.92-.274.47-.575 1.012-.669 1.205-.355.737-.53 1.436-.613 2.46-.059.719-.034 1.135.124 2.115.107.664.123.849.105 1.226-.025.513-.072.7-.37 1.472-.202.521-.215.572-.168.692.055.143.246.288.378.288.12 0 .664-.441.913-.74.386-.464.708-1.278.936-2.367.16-.76.218-1.32.218-2.094.003-1.78.309-2.76 1.156-3.705.303-.337.928-.887.965-.848.014.015-.616 1.128-1.022 1.805-.22.367-.498.986-.625 1.393-.203.648-.285 1.269-.29 2.201-.005.759.004.874.112 1.438.096.502.117.716.116 1.184 0 .642-.058.888-.396 1.711-.095.232-.173.454-.173.494 0 .105.18.318.312.367.141.052.231.007.626-.317.66-.539 1.031-1.335 1.35-2.89.153-.744.201-1.238.202-2.08 0-1.906.46-3.064 1.605-4.05.165-.143.318-.252.34-.244.052.018.228.485.37.983.1.349.11.439.11 1.078.001.646-.007.726-.109 1.078-.146.506-.355.976-.715 1.603-.39.679-.6 1.172-.843 1.97-.334 1.096-.401 1.74-.249 2.373.168.695.3.854.63.759.178-.052.282-.176.283-.339 0-.059.043-.332.096-.607.152-.797.316-1.11 1.05-1.992.206-.249.464-.591.574-.761a9.43 9.43 0 00.786-1.68c.22-.709.226-.767.258-2.89a196.6 196.6 0 01.035-1.991c.003-.002.188.005.41.015.732.034 1.367-.152 1.754-.512.23-.216.505-.664.668-1.096.192-.505.51-1.873.614-2.636.117-.866.095-1.911-.054-2.517-.306-1.246-1.026-2.198-2.379-3.148-1.417-.996-2.692-1.498-4.393-1.728-.514-.07-1.364-.114-1.592-.083z" fill="#C300BE"/><path d="M38.507 5.01l-.101-.743.1.743zM35.49 6.63l.539.522-.54-.522zm-2.26 5.167l-.748-.05.749.05zm.99 2.072l-.427.617.427-.617zm.433.305l-.452.598.452-.598zm-.697.928l.56.5-.56-.5zM33 16.244l.624.416-.624-.416zm-.918 2.293l-.73-.17.73.17zm-.139 1.29l-.749-.036.75.036zm-.629 2.405l-.638-.394.638.394zm-.314.606l.75-.001H31zm.274.413l.304-.686-.304.686zm.502-.145l-.351-.662.351.662zm1.574-1.99l-.684-.308.684.308zm.67-2.03l-.735-.155.734.155zm.712-2.076l.647.38-.646-.38zm1.697-1.495l.312.682-.312-.682zm.166-.02l.706.253-.706-.253zm-1.193 2.125l.676.325-.676-.325zm-.613 2.46l.748.06-.748-.06zm.124 2.115l-.74.12.74-.12zm.105 1.226l.749.036-.75-.036zm-.37 1.472l-.7-.27.7.27zm-.168.692l-.7.27v.001l.7-.27zm.378.288l-.001.75.001-.75zm.913-.74l.576.48-.576-.48zm.936-2.367l.734.153-.734-.154zm.218-2.094h-.75.75zm1.156-3.705l-.559-.5.559.5zm.965-.848l.548-.512-.548.512zm-1.022 1.805l-.643-.386.643.386zm-.625 1.393l-.716-.224.716.224zm-.29 2.201l-.75-.004.75.004zm.112 1.438l-.737.14.737-.14zm.116 1.184l-.75-.001h.75zm-.396 1.711l.694.285-.694-.285zm.14.86l-.263.703.262-.702zm.625-.316l-.475-.58.475.58zm1.35-2.89l.735.152-.734-.151zm.202-2.08h-.75.75zm1.605-4.05l-.489-.57.49.57zm.34-.244l.253-.706-.252.706zm.37.983l.721-.206-.72.206zm.11 1.078h.75-.75zm-.109 1.078l.72.209-.72-.209zm-.715 1.603l-.65-.373.65.373zm-.843 1.97l.717.22-.717-.22zm-.249 2.373l-.729.175.73-.175zm.63.759l-.208-.72.208.72zm.283-.339l.75.003-.75-.003zm.096-.607l-.737-.14.737.14zm1.05-1.992l.576.479-.577-.48zm.574-.761l.63.406-.63-.406zm.786-1.68l.716.223-.716-.224zm.258-2.89l.75.011-.75-.011zm.035-1.991l.43.615.004-.003-.433-.612zm.41.015l.035-.75-.034.75zm1.754-.512l.511.548-.511-.548zm.668-1.096l.702.267-.702-.267zm.614-2.636l-.743-.101.743.1zm-.054-2.517l.728-.18-.728.18zM44.492 6.82l.431-.614-.43.614zM40.1 5.093l.1-.743-.1.743zm-1.693-.826c-1.347.183-2.424.775-3.456 1.842l1.079 1.043c.835-.863 1.615-1.268 2.578-1.399l-.201-1.486zM34.95 6.109c-1.411 1.458-2.33 3.567-2.469 5.638l1.497.1c.116-1.729.894-3.5 2.05-4.695L34.95 6.109zm-2.469 5.638c-.037.56.016 1.083.247 1.568.232.487.606.854 1.064 1.171l.853-1.233c-.328-.227-.481-.412-.563-.584-.083-.173-.131-.414-.104-.822l-1.497-.1zm1.311 2.74a41.458 41.458 0 01.397.278l.011.007.904-1.197a22.267 22.267 0 00-.459-.322l-.853 1.233zm.408.286c-.015-.012-.114-.085-.188-.223a.706.706 0 01-.072-.464c.02-.105.06-.172.066-.184.01-.017.013-.02-.001-.001-.068.09-.233.278-.61.703l1.12.997c.352-.395.573-.645.69-.8a1.54 1.54 0 00.101-.152.908.908 0 00.107-.281.794.794 0 00-.31-.793l-.903 1.198zm-.805-.17c-.416.467-.886 1.023-1.02 1.225l1.248.832.006-.01.02-.026.068-.087a30.676 30.676 0 01.798-.935l-1.12-.999zm-1.02 1.225c-.457.686-.795 1.55-1.025 2.54l1.462.338c.201-.872.482-1.553.811-2.046l-1.248-.832zm-1.025 2.54c-.091.395-.125.743-.157 1.423l1.499.07c.03-.66.06-.896.12-1.155l-1.462-.338zm-.157 1.423c-.031.671-.064.998-.129 1.247-.059.224-.152.417-.389.8l1.276.788c.257-.416.448-.762.564-1.209.11-.422.146-.899.177-1.555l-1.499-.07zm-.518 2.047a6.978 6.978 0 00-.25.436c-.032.064-.065.13-.091.192-.013.03-.029.07-.043.113-.007.022-.042.128-.042.26l1.5-.002a.689.689 0 01-.03.2l-.005.017a5.425 5.425 0 01.237-.427l-1.276-.79zm-.426 1c0 .273.111.505.21.653.1.15.267.338.51.445l.608-1.371a.38.38 0 01.105.067.166.166 0 01.046.069.402.402 0 01.021.136l-1.5.002zm.72 1.098a.94.94 0 00.674.053c.16-.046.341-.144.485-.22l-.704-1.325a6.794 6.794 0 01-.22.112c-.004.002.005-.003.024-.008a.52.52 0 01.233-.013.476.476 0 01.098.024l.018.006-.608 1.371zm1.159-.168c.866-.46 1.376-1.171 1.905-2.343l-1.368-.617c-.473 1.05-.805 1.404-1.241 1.636l.704 1.324zm1.905-2.343a9.417 9.417 0 00.719-2.183l-1.468-.31a7.94 7.94 0 01-.619 1.876l1.368.617zm.719-2.183c.207-.979.364-1.408.626-1.851l-1.293-.762c-.38.644-.579 1.253-.8 2.302l1.467.31zm.626-1.851c.253-.43.84-.955 1.362-1.194l-.625-1.364c-.777.357-1.609 1.082-2.03 1.796l1.293.762zm1.362-1.194l.06-.027c.022-.009-.038.02-.13.03a.74.74 0 01-.81-.853.631.631 0 01.028-.105l1.412.505a.774.774 0 00.01-.52.76.76 0 00-.823-.515c-.116.014-.212.053-.239.063a2.794 2.794 0 00-.133.058l.625 1.364zm-.852-.956a.662.662 0 01.02-.049l.007-.015c.002-.004.002-.004 0 0a60.495 60.495 0 01-.491.858l1.294.759a59.806 59.806 0 00.484-.845c.015-.027.03-.053.041-.076 0 0 .034-.061.057-.125l-1.412-.507zm-.465.795a24.2 24.2 0 00-.697 1.258l1.351.651c.078-.163.365-.68.64-1.151l-1.294-.758zm-.697 1.258c-.404.839-.596 1.632-.685 2.725l1.495.122c.078-.954.235-1.56.541-2.195l-1.351-.652zm-.685 2.724c-.065.798-.034 1.277.13 2.296l1.481-.239c-.151-.94-.169-1.293-.116-1.934l-1.495-.122zm.13 2.296c.105.646.111.771.097 1.07l1.498.073c.022-.454-.004-.7-.114-1.382l-1.48.24zm.097 1.07a2.292 2.292 0 01-.061.493c-.04.157-.11.356-.26.745l1.399.542c.148-.383.25-.663.316-.92.07-.277.09-.509.104-.787l-1.498-.072zm-.321 1.238c-.093.24-.17.438-.206.591a1.033 1.033 0 00.038.643l1.4-.541c-.002-.003.02.051.026.13a.496.496 0 01-.007.12v-.001l.002-.005a14.414 14.414 0 01.145-.395l-1.398-.542zm-.168 1.234c.093.24.263.415.406.524.131.1.37.243.671.244l.003-1.5c.096 0 .16.024.184.034a.233.233 0 01.05.028.17.17 0 01.028.028c.01.012.035.045.057.1l-1.399.542zm1.077.767c.195 0 .347-.073.385-.09a1.61 1.61 0 00.18-.102 4.702 4.702 0 00.925-.818l-1.152-.96a3.258 3.258 0 01-.584.516c-.021.014-.023.013-.01.007a.663.663 0 01.258-.052l-.002 1.5zm1.49-1.01c.507-.608.859-1.57 1.094-2.694l-1.468-.307c-.22 1.055-.512 1.72-.779 2.041l1.153.96zm1.094-2.694c.17-.81.233-1.42.234-2.246l-1.5-.002c0 .723-.053 1.232-.202 1.94l1.468.308zm.234-2.246c.002-.852.076-1.458.227-1.943.147-.47.376-.86.737-1.262l-1.117-1.001a4.78 4.78 0 00-1.052 1.816c-.214.687-.293 1.461-.294 2.388l1.5.002zm.964-3.205a6.9 6.9 0 01.733-.68c.027-.02.025-.017.003-.005-.006.003-.056.032-.131.054a.743.743 0 01-.746-.207l1.096-1.023a.757.757 0 00-.773-.208.877.877 0 00-.183.078 1.647 1.647 0 00-.166.11 8.385 8.385 0 00-.95.88l1.117 1.001zm-.141-.837a.748.748 0 01-.17-.73.805.805 0 01.024-.064 5.133 5.133 0 01-.063.118 58.04 58.04 0 01-.909 1.584l1.288.77a59.818 59.818 0 00.94-1.64 6.264 6.264 0 00.122-.238c.005-.012.019-.044.032-.086.005-.017.02-.068.029-.135a.753.753 0 00-.197-.603l-1.096 1.024zm-1.117.907a8.455 8.455 0 00-.698 1.555l1.432.448c.11-.35.363-.915.553-1.232l-1.287-.77zm-.698 1.555c-.232.74-.319 1.44-.324 2.42l1.5.01c.005-.884.081-1.425.256-1.982l-1.432-.448zm-.324 2.42c-.005.793.006.96.125 1.583l1.474-.28a4.925 4.925 0 01-.087-.564 9.217 9.217 0 01-.012-.73l-1.5-.008zm.125 1.583c.088.46.103.627.103 1.043l1.5.002c0-.52-.026-.78-.13-1.326l-1.473.281zm.103 1.043c0 .298-.014.456-.052.62-.041.18-.119.396-.287.807l1.387.57c.17-.412.29-.73.361-1.04.075-.324.09-.611.091-.955l-1.5-.002zm-.34 1.427a7.494 7.494 0 00-.185.507 1.327 1.327 0 00-.022.085c-.003.014-.022.092-.022.187h1.5c0 .052-.005.09-.008.105l-.006.036-.002.009a6.104 6.104 0 01.133-.358l-1.387-.57zm-.229.779c0 .21.08.375.12.449.049.092.109.174.166.242a1.3 1.3 0 00.514.378l.525-1.405a.45.45 0 01.103.055c.005.004.003.003 0 0-.004-.006.002 0 .014.022a.607.607 0 01.059.26h-1.5zm.8 1.07a.992.992 0 00.818-.051c.177-.09.364-.24.545-.389l-.95-1.16a4.835 4.835 0 01-.215.17c-.054.04-.067.045-.056.04a.512.512 0 01.383-.016l-.525 1.405zm1.363-.44c.867-.708 1.283-1.723 1.61-3.319l-1.47-.301c-.31 1.512-.638 2.09-1.09 2.46l.95 1.16zm1.61-3.319c.164-.799.216-1.344.217-2.231h-1.5c0 .796-.044 1.24-.186 1.93l1.47.301zm.217-2.231c0-.897.108-1.56.32-2.094.207-.523.53-.963 1.025-1.389l-.979-1.136c-.652.56-1.132 1.193-1.44 1.972-.305.769-.426 1.637-.426 2.646h1.5zm1.345-3.483a2.4 2.4 0 01.17-.135c.021-.016.023-.016.01-.008a.7.7 0 01-.351.081.742.742 0 01-.23-.043l.504-1.412a.762.762 0 00-.529.006.927.927 0 00-.13.061c-.055.03-.106.065-.146.094-.084.06-.182.138-.277.22l.979 1.136zm-.401-.105a.733.733 0 01-.353-.272c-.015-.023-.02-.034-.012-.019.012.026.035.079.065.16.06.16.134.382.2.615l1.442-.413a9.93 9.93 0 00-.237-.73 3.665 3.665 0 00-.117-.28 1.346 1.346 0 00-.081-.147.779.779 0 00-.402-.326l-.505 1.412zm-.1.484c.047.162.06.22.067.3.01.1.014.244.014.572l1.5-.002c0-.31-.002-.532-.022-.723a3.002 3.002 0 00-.117-.56l-1.442.413zm.081.872c0 .334-.002.474-.012.573-.008.075-.02.13-.067.296l1.44.416c.055-.186.098-.347.12-.561.019-.19.02-.414.02-.726l-1.5.002zm-.08.87c-.124.431-.304.844-.644 1.437l1.3.746c.38-.662.618-1.187.786-1.767l-1.441-.417zm-.645 1.437a9.228 9.228 0 00-.91 2.125l1.435.437c.228-.749.417-1.189.777-1.816l-1.301-.746zm-.91 2.125c-.347 1.139-.46 1.938-.26 2.766l1.459-.35c-.106-.44-.084-.928.236-1.979l-1.435-.437zm-.26 2.767a4.8 4.8 0 00.148.509c.054.146.132.318.258.47.14.169.337.307.59.358.229.047.432.006.57-.034l-.415-1.44c-.027.007.036-.017.142.004a.497.497 0 01.267.154c.03.037.024.045-.005-.032a3.193 3.193 0 01-.097-.34l-1.458.35zm1.566 1.304c.438-.127.824-.502.826-1.057l-1.5-.006c0-.085.031-.185.1-.267a.342.342 0 01.16-.112l.414 1.442zm.826-1.058l-.001.037c0-.002 0-.01.003-.025l.017-.12c.016-.1.038-.23.063-.36l-1.473-.28c-.028.143-.053.288-.072.407a2.583 2.583 0 00-.037.336l1.5.006zm.082-.468c.07-.365.132-.56.234-.756.112-.212.292-.46.656-.898l-1.154-.959c-.368.444-.638.795-.83 1.158-.2.382-.297.741-.38 1.174l1.474.28zm.89-1.654c.216-.26.496-.628.628-.834l-1.261-.812a9.53 9.53 0 01-.52.687l1.153.959zm.628-.834c.283-.44.716-1.366.872-1.863l-1.432-.447a8.797 8.797 0 01-.701 1.498l1.261.812zm.872-1.863c.115-.37.19-.622.23-1.07.037-.404.046-.985.062-2.032l-1.5-.022c-.016 1.077-.025 1.586-.055 1.92-.026.287-.063.418-.17.757l1.433.447zm.292-3.102a536.307 536.307 0 01.031-1.828l.003-.112v-.022.01l-.003.032a.757.757 0 01-.082.268 1.34 1.34 0 01-.234.265l-.859-1.23c-.089.072-.202.21-.233.264a.756.756 0 00-.074.21l-.01.06a.727.727 0 00-.005.101l-.003.122-.008.43-.023 1.408 1.5.022zm-.28-1.39a.746.746 0 01-.357.134l-.048.003h-.013l.08.003.28.012.07-1.498a32.057 32.057 0 00-.434-.017l-.036.001a.725.725 0 00-.21.037.75.75 0 00-.2.1l.868 1.225zm-.06.152c.855.04 1.716-.168 2.3-.713l-1.023-1.097c-.19.177-.597.34-1.207.312l-.07 1.498zm2.3-.713c.345-.321.671-.884.858-1.377l-1.402-.533c-.14.37-.361.704-.479.813l1.023 1.097zm.858-1.377c.22-.576.548-2.004.656-2.803l-1.486-.201c-.099.729-.407 2.037-.572 2.47l1.403.534zm.656-2.803c.126-.924.11-2.07-.069-2.796l-1.456.358c.12.485.148 1.43.039 2.237l1.486.201zM47.6 9.79c-.36-1.468-1.218-2.56-2.676-3.583l-.862 1.227c1.25.878 1.83 1.69 2.082 2.714L47.6 9.79zm-2.676-3.583C43.408 5.143 42.02 4.597 40.2 4.35l-.202 1.486c1.58.214 2.743.67 4.063 1.598l.862-1.227zM40.2 4.35a12.58 12.58 0 00-.965-.085c-.29-.015-.633-.025-.83.002l.202 1.486s.048-.004.167-.003a11.116 11.116 0 011.224.086L40.2 4.35z" fill="#C300BE" mask="url(#a)"/></svg>