<svg width="16" height="22" fill="none" xmlns="http://www.w3.org/2000/svg"><mask id="a" fill="#fff"><path fill-rule="evenodd" clip-rule="evenodd" d="M7.507.01C6.35.167 5.423.665 4.49 1.63 3.206 2.957 2.358 4.897 2.23 6.797c-.064.968.203 1.529.99 2.073.195.135.39.272.433.304.073.055.033.109-.697.928-.426.479-.856.992-.956 1.142-.393.59-.702 1.362-.918 2.293-.076.327-.107.619-.139 1.29-.062 1.327-.135 1.606-.629 2.405-.173.28-.314.552-.314.606a.53.53 0 00.274.413c.118.052.147.044.503-.145.651-.346 1.072-.878 1.573-1.99a8.675 8.675 0 00.67-2.03c.214-1.013.392-1.533.712-2.076.337-.572 1.047-1.197 1.697-1.495.16-.074.186-.077.166-.02-.013.036-.249.45-.524.92a25.76 25.76 0 00-.669 1.205c-.355.737-.53 1.436-.613 2.46-.058.719-.034 1.135.124 2.115.107.664.123.849.105 1.226-.025.513-.072.7-.37 1.472-.202.521-.215.572-.168.692.055.143.246.288.378.288.12 0 .664-.441.913-.74.386-.464.708-1.278.936-2.367.16-.76.218-1.32.219-2.094.002-1.78.308-2.76 1.155-3.705.303-.338.928-.888.965-.848.014.015-.616 1.128-1.022 1.805-.22.367-.498.986-.625 1.393-.203.649-.285 1.269-.29 2.201-.005.759.004.874.112 1.438.096.502.117.716.116 1.184 0 .642-.057.888-.396 1.711-.095.232-.173.454-.173.494 0 .105.18.318.312.367.141.052.231.007.626-.317.66-.539 1.031-1.335 1.35-2.89.153-.744.201-1.238.201-2.08.001-1.906.46-3.064 1.606-4.05.165-.143.318-.252.34-.244.053.018.228.485.37.983.1.349.11.439.11 1.078.001.646-.007.726-.109 1.078-.146.507-.355.976-.715 1.603-.39.679-.6 1.172-.843 1.97-.334 1.096-.401 1.74-.249 2.373.168.695.3.854.63.759.178-.052.282-.176.283-.339 0-.059.043-.332.096-.607.152-.797.316-1.11 1.05-1.992.206-.249.464-.591.573-.761a9.43 9.43 0 00.787-1.68c.22-.709.226-.767.258-2.89a196.6 196.6 0 01.035-1.991c.003-.002.188.005.41.015.732.034 1.367-.152 1.754-.512.23-.216.505-.664.668-1.096.192-.505.51-1.873.614-2.636.117-.866.095-1.911-.054-2.517-.306-1.246-1.026-2.198-2.379-3.148C12.075.825 10.8.323 9.1.093 8.585.023 7.735-.021 7.507.01z"/></mask><path fill-rule="evenodd" clip-rule="evenodd" d="M7.507.01C6.35.167 5.423.665 4.49 1.63 3.206 2.957 2.358 4.897 2.23 6.797c-.064.968.203 1.529.99 2.073.195.135.39.272.433.304.073.055.033.109-.697.928-.426.479-.856.992-.956 1.142-.393.59-.702 1.362-.918 2.293-.076.327-.107.619-.139 1.29-.062 1.327-.135 1.606-.629 2.405-.173.28-.314.552-.314.606a.53.53 0 00.274.413c.118.052.147.044.503-.145.651-.346 1.072-.878 1.573-1.99a8.675 8.675 0 00.67-2.03c.214-1.013.392-1.533.712-2.076.337-.572 1.047-1.197 1.697-1.495.16-.074.186-.077.166-.02-.013.036-.249.45-.524.92a25.76 25.76 0 00-.669 1.205c-.355.737-.53 1.436-.613 2.46-.058.719-.034 1.135.124 2.115.107.664.123.849.105 1.226-.025.513-.072.7-.37 1.472-.202.521-.215.572-.168.692.055.143.246.288.378.288.12 0 .664-.441.913-.74.386-.464.708-1.278.936-2.367.16-.76.218-1.32.219-2.094.002-1.78.308-2.76 1.155-3.705.303-.338.928-.888.965-.848.014.015-.616 1.128-1.022 1.805-.22.367-.498.986-.625 1.393-.203.649-.285 1.269-.29 2.201-.005.759.004.874.112 1.438.096.502.117.716.116 1.184 0 .642-.057.888-.396 1.711-.095.232-.173.454-.173.494 0 .105.18.318.312.367.141.052.231.007.626-.317.66-.539 1.031-1.335 1.35-2.89.153-.744.201-1.238.201-2.08.001-1.906.46-3.064 1.606-4.05.165-.143.318-.252.34-.244.053.018.228.485.37.983.1.349.11.439.11 1.078.001.646-.007.726-.109 1.078-.146.507-.355.976-.715 1.603-.39.679-.6 1.172-.843 1.97-.334 1.096-.401 1.74-.249 2.373.168.695.3.854.63.759.178-.052.282-.176.283-.339 0-.059.043-.332.096-.607.152-.797.316-1.11 1.05-1.992.206-.249.464-.591.573-.761a9.43 9.43 0 00.787-1.68c.22-.709.226-.767.258-2.89a196.6 196.6 0 01.035-1.991c.003-.002.188.005.41.015.732.034 1.367-.152 1.754-.512.23-.216.505-.664.668-1.096.192-.505.51-1.873.614-2.636.117-.866.095-1.911-.054-2.517-.306-1.246-1.026-2.198-2.379-3.148C12.075.825 10.8.323 9.1.093 8.585.023 7.735-.021 7.507.01z" fill="#c300be" stroke="#C300BE" stroke-width="1.5" stroke-linejoin="round" mask="url(#a)"/></svg>