<svg width="20" height="15" fill="none" xmlns="http://www.w3.org/2000/svg"><path d="M17.364 7.47c-.528.118-.66.236-.924.354-.168.075-.522.223-.918.458-.265.158-.66.353-1.061.6-.283.207-.835.413-1.056.658l1.102.037.35.018.368.05.424.114c.495.129.514.171.704.446l.051.164.855-.689c.882-.704 1.68-1.392 1.681-1.446.076-.144.203-.759-.52-.881-.597 0-.264 0-1.056.118zm-9.726.375c-.047.008-.348.068-.668.134-.56.116-.62.121-1.575.147-1.129.03-1.338.062-1.918.299-.75.306-1.387.722-2.072 1.356-.217.2-.4.375-.405.388-.01.022 1.107 1.677 1.73 2.562l.287.409.205-.13a3.53 3.53 0 01.946-.393c.173-.043.372-.058.764-.057.654.002 1.1.073 2.227.353 2.102.523 2.413.597 2.877.68.898.161 1.725.149 2.037-.03.27-.155.679-.499 1.312-1.1.353-.337.784-.727.957-.867l.314-.256-.195-.019c-.107-.01-.488-.056-.846-.102-1.031-.134-1.235-.15-1.798-.15-.831 0-1.403.109-2.106.403-.271.114-.34.132-.364.094-.047-.071.067-.143.465-.295 1.041-.398 1.948-.46 3.512-.238 1.332.189 1.892.178 2.483-.048.535-.205.696-.428.553-.764-.102-.24-.36-.378-1.013-.546-.295-.076-.426-.087-1.304-.113a24.322 24.322 0 01-1.113-.048 12.886 12.886 0 00-.617-.051c-.827-.054-1.25-.216-2.136-.816-.93-.63-1.436-.829-2.089-.82-.2.002-.403.01-.45.018z" fill="#C300BE" stroke="#C300BE" stroke-width=".75"/><path d="M9.483 1.413C10.86.686 12.08 2.821 12.08 2.821S13.443.204 14.987 1.4c1.765 1.367-1.525 4.352-2.595 5.25a.467.467 0 01-.624-.017c-1.032-.969-4.232-4.193-2.285-5.221z" stroke="#C300BE" fill="#C300BE" stroke-width=".75" stroke-linejoin="round"/></svg>