<svg width="282" height="202" viewBox="0 0 282 202" fill="none" xmlns="http://www.w3.org/2000/svg">
<path fill-rule="evenodd" clip-rule="evenodd" d="M91.4926 20.3615C83.6761 24.2332 78.2866 29.9849 73.9747 39.0561C68.0467 51.5268 66.6681 67.3063 70.3022 81.0806C72.1541 88.0992 75.3908 91.4353 82.2657 93.412C83.9751 93.9032 85.6841 94.4087 86.0636 94.5352C86.7135 94.7516 86.5562 95.2272 83.3384 102.783C81.4601 107.193 79.6379 111.861 79.2889 113.158C77.9106 118.276 77.5638 124.495 78.2594 131.608C78.504 134.108 78.979 136.253 80.3579 141.083C83.0872 150.642 83.236 152.794 81.6424 159.641C81.085 162.036 80.734 164.305 80.8621 164.684C81.2191 165.739 82.6546 166.853 83.7913 166.959C84.7556 167.048 84.938 166.922 87.0086 164.731C90.801 160.72 92.513 155.943 93.4102 146.867C94.0284 140.614 94.0037 136.835 93.3062 130.878C92.4047 123.178 92.4288 119.068 93.4022 114.451C94.4261 109.595 97.9633 103.465 101.856 99.8007C102.816 98.897 102.995 98.8113 102.987 99.2584C102.981 99.5505 102.3 103.049 101.473 107.034C100.646 111.018 99.8068 115.582 99.6082 117.176C98.8512 123.252 99.286 128.625 101.138 136.079C102.44 141.319 103.606 144.209 107.068 150.778C109.415 155.231 109.969 156.506 110.741 159.222C111.79 162.915 111.904 164.362 111.63 170.543C111.446 174.719 111.48 175.113 112.095 175.851C112.828 176.731 114.528 177.305 115.469 176.99C116.315 176.707 119.117 172.276 120.169 169.56C121.801 165.344 122.139 158.81 121.152 150.539C120.465 144.775 119.542 140.669 117.699 135.177C113.464 122.555 113.289 114.871 117.039 106.151C118.38 103.032 121.5 97.6381 121.853 97.8284C121.988 97.9011 120.18 107.298 118.922 113.066C118.239 116.198 117.748 121.248 117.817 124.437C117.927 129.521 118.829 134.113 121.018 140.736C122.8 146.124 123.138 146.919 125.248 150.661C127.127 153.996 127.786 155.459 128.9 158.778C130.43 163.335 130.613 165.21 130.183 171.857C130.062 173.729 130.04 175.49 130.135 175.77C130.387 176.517 132.175 177.59 133.225 177.624C134.348 177.66 134.877 177.122 136.907 173.885C140.289 168.489 141.025 161.953 139.575 150.173C138.881 144.53 138.038 140.91 136.029 134.94C131.481 121.427 131.969 112.123 137.738 102.387C138.567 100.989 139.392 99.8473 139.571 99.8505C139.981 99.858 142.337 102.745 144.54 105.94C146.079 108.171 146.36 108.789 147.894 113.319C149.443 117.893 149.578 118.484 149.698 121.222C149.87 125.16 149.506 128.985 148.455 134.291C147.318 140.036 147 144.032 147.184 150.28C147.435 158.839 148.495 163.565 151.089 167.69C153.938 172.218 155.253 173.031 157.365 171.568C158.508 170.777 158.948 169.646 158.563 168.489C158.424 168.071 158.078 166.034 157.792 163.96C156.964 157.942 157.385 155.334 160.474 147.324C161.343 145.069 162.357 142.024 162.727 140.559C163.56 137.258 164.363 130.157 164.287 126.765C164.162 121.216 164.061 120.796 159.217 105.664C156.723 97.8746 154.695 91.4842 154.711 91.4633C154.726 91.4425 156.051 91.0499 157.654 90.591C162.923 89.0836 166.979 86.2532 168.859 82.7706C169.981 80.6915 170.851 76.8573 170.983 73.4071C171.137 69.3686 170.127 58.9092 169.035 53.2487C167.799 46.83 165.143 39.4741 162.639 35.5331C157.495 27.4366 150.119 22.4046 138.253 18.8982C125.825 15.2255 115.587 14.7165 102.979 17.1444C99.172 17.8777 93.04 19.5951 91.4926 20.3615Z" fill="url(#paint0_linear)" fill-opacity="0.7"/>
<path d="M114.21 79.5512H126.735C126.735 80.1365 126.096 80.9966 125.81 81.4819C124.85 83.1142 122.504 83.9952 120.777 84.2377C118.729 84.5255 115.85 84.3845 114.21 83.0496C113.227 82.2494 112.673 81.4798 112.064 80.4093C112.006 80.3069 111.527 79.413 111.734 79.4027C112.528 79.363 113.404 79.5512 114.21 79.5512Z" fill="#4A00B0" stroke="#4A00B0" stroke-linecap="round" stroke-linejoin="round"/>
<path d="M105.794 64.1053C104.313 64.1382 103.126 64.8856 101.792 65.4667C99.1644 66.6114 96.3433 67.4631 93.4503 67.3727C91.3698 67.3076 89.5899 65.7662 88.4914 64.1795C88.0754 63.5787 87.8762 62.8697 87.5261 62.2571C87.351 61.9507 87.0889 61.7458 86.932 61.432" stroke="#4A00B0" stroke-linecap="round" stroke-linejoin="round"/>
<path d="M128.962 65.1451C130.265 66.2052 131.15 67.5468 132.246 68.792C132.932 69.5712 133.697 69.677 134.688 69.8234C136.326 70.065 137.998 70.1321 139.647 69.9554C142.182 69.6838 144.833 68.6933 146.999 67.3398C147.659 66.9274 148.652 66.3117 149.012 65.5906" stroke="#4A00B0" stroke-linecap="round" stroke-linejoin="round"/>
<path fill-rule="evenodd" clip-rule="evenodd" d="M202.142 79.2698C196.629 82.0004 192.828 86.057 189.787 92.4547C185.606 101.25 184.634 112.379 187.197 122.094C188.503 127.044 190.786 129.397 195.635 130.791C196.84 131.137 198.046 131.494 198.313 131.583C198.772 131.735 198.661 132.071 196.391 137.4C195.067 140.51 193.781 143.803 193.535 144.717C192.563 148.327 192.319 152.713 192.809 157.729C192.982 159.493 193.317 161.005 194.289 164.412C196.214 171.153 196.319 172.671 195.195 177.501C194.802 179.19 194.554 180.79 194.645 181.057C194.897 181.801 195.909 182.587 196.711 182.661C197.391 182.724 197.519 182.635 198.98 181.091C201.654 178.262 202.862 174.892 203.495 168.491C203.931 164.081 203.913 161.416 203.421 157.214C202.785 151.784 202.802 148.885 203.489 145.629C204.211 142.204 206.706 137.88 209.451 135.296C210.128 134.659 210.255 134.599 210.249 134.914C210.245 135.12 209.764 137.588 209.181 140.398C208.598 143.208 208.006 146.427 207.866 147.551C207.332 151.836 207.639 155.625 208.945 160.882C209.863 164.578 210.685 166.616 213.127 171.25C214.782 174.39 215.173 175.289 215.718 177.205C216.458 179.81 216.538 180.83 216.345 185.19C216.215 188.134 216.239 188.413 216.672 188.933C217.189 189.554 218.388 189.959 219.052 189.736C219.649 189.536 221.625 186.411 222.367 184.496C223.518 181.523 223.756 176.914 223.061 171.081C222.576 167.016 221.925 164.12 220.625 160.247C217.638 151.344 217.515 145.925 220.159 139.775C221.105 137.575 223.306 133.771 223.555 133.905C223.65 133.957 222.375 140.584 221.488 144.652C221.006 146.861 220.66 150.423 220.708 152.672C220.786 156.258 221.422 159.496 222.966 164.167C224.222 167.967 224.461 168.528 225.949 171.167C227.275 173.519 227.739 174.551 228.525 176.892C229.604 180.106 229.733 181.428 229.43 186.116C229.344 187.436 229.329 188.678 229.396 188.876C229.573 189.403 230.834 190.16 231.575 190.183C232.367 190.209 232.74 189.83 234.172 187.546C236.557 183.741 237.076 179.131 236.054 170.823C235.564 166.843 234.97 164.29 233.552 160.079C230.345 150.549 230.689 143.987 234.758 137.121C235.343 136.134 235.924 135.329 236.051 135.332C236.34 135.337 238.002 137.373 239.555 139.626C240.64 141.2 240.839 141.636 241.921 144.83C243.013 148.057 243.108 148.473 243.193 150.404C243.314 153.182 243.058 155.879 242.317 159.622C241.515 163.674 241.29 166.492 241.42 170.899C241.597 176.935 242.345 180.268 244.174 183.177C246.183 186.371 247.111 186.944 248.6 185.912C249.407 185.354 249.717 184.557 249.446 183.74C249.348 183.446 249.103 182.009 248.902 180.546C248.318 176.302 248.614 174.463 250.793 168.813C251.406 167.223 252.122 165.076 252.382 164.042C252.969 161.714 253.536 156.706 253.482 154.314C253.394 150.4 253.323 150.104 249.907 139.432C248.148 133.938 246.717 129.431 246.728 129.416C246.739 129.402 247.673 129.125 248.804 128.801C252.52 127.738 255.381 125.742 256.707 123.286C257.499 121.819 258.112 119.115 258.205 116.682C258.313 113.833 257.601 106.457 256.831 102.464C255.959 97.9374 254.086 92.7495 252.32 89.97C248.693 84.2597 243.49 80.7107 235.121 78.2378C226.356 75.6475 219.135 75.2885 210.243 77.0009C207.558 77.5181 203.234 78.7293 202.142 79.2698Z" fill="url(#paint1_linear)" fill-opacity="0.7"/>
<path d="M212.228 110.121C211.184 110.144 210.347 110.672 209.406 111.081C207.553 111.889 205.563 112.489 203.523 112.426C202.056 112.38 200.8 111.293 200.025 110.174C199.732 109.75 199.592 109.25 199.345 108.818C199.221 108.602 199.036 108.457 198.926 108.236" stroke="#4A00B0" stroke-linecap="round" stroke-linejoin="round"/>
<path d="M228.569 110.854C229.487 111.602 230.112 112.548 230.885 113.427C231.368 113.976 231.908 114.051 232.607 114.154C233.762 114.324 234.941 114.372 236.104 114.247C237.892 114.055 239.762 113.357 241.289 112.402C241.755 112.111 242.455 111.677 242.709 111.169" stroke="#4A00B0" stroke-linecap="round" stroke-linejoin="round"/>
<path fill-rule="evenodd" clip-rule="evenodd" d="M24.1664 115.879C20.6185 117.636 18.1723 120.247 16.2151 124.364C13.5245 130.024 12.8987 137.187 14.5482 143.439C15.3888 146.624 16.8579 148.138 19.9783 149.036C20.7542 149.259 21.5299 149.488 21.7022 149.546C21.9971 149.644 21.9258 149.86 20.4652 153.289C19.6127 155.291 18.7856 157.41 18.6272 157.998C18.0016 160.321 17.8442 163.144 18.1599 166.372C18.2709 167.507 18.4865 168.481 19.1124 170.673C20.3512 175.012 20.4188 175.989 19.6954 179.097C19.4424 180.184 19.2831 181.214 19.3413 181.385C19.5033 181.864 20.1548 182.37 20.6708 182.418C21.1085 182.458 21.1912 182.401 22.1311 181.407C23.8524 179.586 24.6295 177.418 25.0367 173.298C25.3173 170.46 25.3061 168.745 24.9895 166.041C24.5803 162.546 24.5913 160.681 25.0331 158.585C25.4978 156.381 27.1033 153.598 28.8701 151.935C29.3058 151.525 29.3871 151.486 29.3833 151.689C29.3807 151.822 29.0715 153.41 28.6962 155.218C28.321 157.027 27.9401 159.098 27.85 159.822C27.5064 162.58 27.7037 165.018 28.5443 168.402C29.1352 170.78 29.6644 172.092 31.2357 175.074C32.301 177.095 32.5527 177.673 32.903 178.906C33.3793 180.583 33.4309 181.239 33.3067 184.045C33.2229 185.94 33.2386 186.119 33.5174 186.454C33.8501 186.854 34.6218 187.114 35.0491 186.971C35.4329 186.842 36.7049 184.831 37.1823 183.598C37.9229 181.685 38.0763 178.719 37.6286 174.965C37.3166 172.349 36.8977 170.485 36.0612 167.993C34.1388 162.263 34.0596 158.776 35.7616 154.818C36.3704 153.402 37.7865 150.954 37.9467 151.04C38.008 151.073 37.1875 155.338 36.6164 157.956C36.3062 159.378 36.0835 161.67 36.1148 163.118C36.1648 165.425 36.5741 167.509 37.5678 170.516C38.3764 172.961 38.53 173.322 39.4875 175.021C40.3406 176.534 40.6395 177.198 41.1451 178.705C41.8395 180.773 41.923 181.624 41.7277 184.641C41.6726 185.491 41.6628 186.29 41.7057 186.417C41.82 186.756 42.6316 187.243 43.1082 187.259C43.618 187.275 43.8582 187.031 44.7795 185.561C46.3147 183.112 46.6485 180.146 45.9907 174.799C45.6754 172.238 45.293 170.595 44.3809 167.885C42.3165 161.752 42.5383 157.528 45.1568 153.109C45.5329 152.475 45.9073 151.957 45.9889 151.958C46.1749 151.961 47.2442 153.272 48.2442 154.722C48.9424 155.734 49.07 156.015 49.7663 158.071C50.4695 160.147 50.5307 160.416 50.585 161.658C50.6632 163.446 50.4982 165.182 50.0213 167.59C49.505 170.198 49.3608 172.012 49.444 174.848C49.5579 178.732 50.0392 180.878 51.2167 182.75C52.5095 184.805 53.1064 185.174 54.0652 184.51C54.5841 184.151 54.7837 183.638 54.6091 183.112C54.546 182.923 54.3887 181.998 54.2591 181.057C53.8834 178.325 54.0742 177.141 55.4762 173.506C55.871 172.482 56.3312 171.1 56.499 170.435C56.877 168.937 57.2414 165.714 57.2069 164.174C57.1505 161.656 57.1047 161.465 54.9059 154.597C53.7738 151.061 52.8534 148.161 52.8604 148.151C52.8673 148.142 53.4686 147.964 54.1965 147.755C56.588 147.071 58.4287 145.786 59.2822 144.206C59.7917 143.262 60.1866 141.522 60.2463 139.956C60.3161 138.123 59.8576 133.375 59.3624 130.806C58.801 127.893 57.5954 124.554 56.4591 122.765C54.1245 119.09 50.7761 116.806 45.3906 115.215C39.7495 113.548 35.1026 113.317 29.3799 114.419C27.6519 114.751 24.8687 115.531 24.1664 115.879Z" fill="url(#paint2_linear)" fill-opacity="0.7"/>
<path d="M40.1623 142.744C40.1623 143.01 39.8725 143.4 39.7429 143.621C39.3071 144.362 38.242 144.761 37.4584 144.871C36.5285 145.002 35.2218 144.938 34.4774 144.332C34.0312 143.969 33.7797 143.62 33.5037 143.134C33.4773 143.087 33.2596 142.682 33.3539 142.677" stroke="#4A00B0" stroke-linecap="round" stroke-linejoin="round"/>
<path d="M30.6573 135.734C29.9854 135.749 29.4465 136.088 28.841 136.352C27.6484 136.871 26.3679 137.258 25.0548 137.217C24.1105 137.187 23.3026 136.488 22.804 135.767C22.6152 135.495 22.5247 135.173 22.3658 134.895C22.2864 134.756 22.1674 134.663 22.0962 134.52" stroke="#4A00B0" stroke-linecap="round" stroke-linejoin="round"/>
<path d="M41.1735 136.205C41.7646 136.687 42.1666 137.296 42.664 137.861C42.9752 138.214 43.3223 138.262 43.7725 138.329C44.516 138.439 45.2745 138.469 46.0233 138.389C47.1738 138.265 48.3771 137.816 49.3601 137.202C49.6596 137.014 50.1102 136.735 50.2739 136.408" stroke="#4A00B0" stroke-linecap="round" stroke-linejoin="round"/>
<path d="M218.039 124.008C218.819 121.619 220.618 120.949 223.422 122.663C223.8 123.324 223.702 124.535 223.67 125.041C223.58 126.453 221.565 126.339 220.456 126.339C218.818 126.339 217.48 125.721 218.039 124.008Z" fill="#4A00B0"/>
<defs>
<linearGradient id="paint0_linear" x1="106.792" y1="54.2048" x2="197.581" y2="89.4781" gradientUnits="userSpaceOnUse">
<stop offset="0.145833" stop-color="#DAFFD3"/>
<stop offset="1" stop-color="#FFB3FC"/>
</linearGradient>
<linearGradient id="paint1_linear" x1="212.932" y1="103.139" x2="276.964" y2="128.016" gradientUnits="userSpaceOnUse">
<stop offset="0.145833" stop-color="#DAFFD3"/>
<stop offset="1" stop-color="#FFB3FC"/>
</linearGradient>
<linearGradient id="paint2_linear" x1="31.1106" y1="131.24" x2="72.3187" y2="147.25" gradientUnits="userSpaceOnUse">
<stop offset="0.145833" stop-color="#DAFFD3"/>
<stop offset="1" stop-color="#FFB3FC"/>
</linearGradient>
</defs>
</svg>
