<svg width="577" height="246" viewBox="0 0 577 246" fill="none" xmlns="http://www.w3.org/2000/svg">
<path fill-rule="evenodd" clip-rule="evenodd" d="M296.089 0.0599278C290.373 0.30226 285.933 0.6997 281.127 1.3994C262.199 4.15472 244.477 10.8508 229.014 21.0896C220.649 26.6282 212.973 33.2309 206.56 40.4038C194.507 53.8869 186.293 69.625 182.526 86.457C181.536 90.8765 180.82 95.6597 180.496 100.015C180.436 100.811 180.693 97.7586 180.666 98.0444C180.464 100.443 182.354 102.501 184.758 102.501H231.206C233.083 102.501 234.759 101.322 235.395 99.5527L235.76 98.5344C235.877 98.2089 235.956 97.8684 235.997 97.5249C237.223 87.3385 240.303 80.4224 247.31 72.0851C248.451 70.728 249.926 69.0981 250.705 68.334C256.181 62.9643 261.17 59.3243 267.53 56.0603C276.917 51.242 284.61 49.4317 295.675 49.0346C295.913 49.026 296.151 48.9993 296.385 48.9537L296.888 48.8553C298.978 48.4465 300.486 46.6133 300.486 44.4814V4.45656C300.486 1.99527 298.493 0 296.034 0C294.992 0.00940044 296.422 0.0457368 296.089 0.0599278Z" fill="#FE00F7"/>
<path fill-rule="evenodd" clip-rule="evenodd" d="M299.68 1.89908C298.884 0.763795 297.573 0.0172204 296.086 0.000293969L299.68 1.89908ZM299.951 2.33746C300.292 2.96771 300.486 3.68949 300.486 4.45656V44.4814C300.486 46.6133 298.978 48.4465 296.888 48.8553L296.385 48.9537C296.151 48.9993 295.913 49.026 295.675 49.0346C284.61 49.4317 276.917 51.242 267.53 56.0603C261.17 59.3243 256.181 62.9643 250.705 68.334C249.926 69.0981 248.451 70.728 247.31 72.0851C240.303 80.4224 237.223 87.3385 235.997 97.5249C235.956 97.8684 235.877 98.2089 235.76 98.5344L235.395 99.5527C234.759 101.322 233.083 102.501 231.206 102.501H184.758C184.587 102.501 184.418 102.491 184.253 102.47C183.604 102.391 183.004 102.16 182.487 101.816C181.838 101.383 181.319 100.771 181.001 100.053M180.867 96.1938C180.794 96.8094 180.728 97.4213 180.668 98.0275L180.867 96.1938ZM180.867 96.1938C180.954 95.4615 181.051 94.724 181.156 93.9845C181.516 91.4533 181.979 88.8996 182.526 86.457C186.293 69.625 194.507 53.8869 206.56 40.4038L209.878 43.3759C198.305 56.3206 190.462 71.379 186.87 87.4314C186.098 90.8772 185.501 94.5586 185.141 98.0444H231.206L231.571 97.028C231.571 97.027 231.575 97.0148 231.577 96.9919C232.913 85.8883 236.377 78.1719 243.904 69.216C245.087 67.8079 246.666 66.0567 247.59 65.1504C253.362 59.4897 258.713 55.5775 265.499 52.0945C275.537 46.9424 283.882 44.9984 295.516 44.5809C295.526 44.5805 295.532 44.5795 295.532 44.5795L296.034 44.4814L296.034 4.52291C290.562 4.76076 286.333 5.14492 281.767 5.80958L281.127 1.3994C284.483 0.910756 287.661 0.569531 291.22 0.325597C291.379 0.314657 291.54 0.303912 291.701 0.293359C293.075 0.203344 294.51 0.127234 296.034 0.0622317C296.034 0.0622238 296.034 0.0622397 296.034 0.0622317C296.052 0.0614702 296.071 0.0606863 296.089 0.0599278C296.166 0.0566204 296.148 0.0521101 296.088 0.0470182C296.073 0.0457233 296.055 0.0443908 296.035 0.0430309C296.035 0.0430221 296.035 0.0430398 296.035 0.0430309C295.996 0.0403845 295.95 0.0376083 295.904 0.0348302C295.667 0.0205688 295.417 0.0055648 296.034 0C296.052 0 296.069 9.82288e-05 296.086 0.000293969M181.001 100.053C180.744 99.4718 180.618 98.8216 180.659 98.142C180.663 98.0972 180.665 98.0637 180.666 98.0444C180.667 98.028 180.669 98.0218 180.668 98.0275M180.496 100.015C180.531 99.6289 180.629 98.5074 180.659 98.142C180.661 98.1095 180.664 98.077 180.666 98.0444C180.601 98.7091 180.544 99.3669 180.496 100.015C180.481 100.209 180.481 100.174 180.496 100.015ZM281.127 1.3994C262.199 4.15472 244.477 10.8508 229.014 21.0896C220.649 26.6282 212.973 33.2309 206.56 40.4038L209.878 43.3759C216.025 36.4992 223.409 30.1439 231.47 24.8067C246.369 14.9415 263.468 8.47355 281.767 5.80958L281.127 1.3994ZM299.951 2.33746C299.869 2.18583 299.779 2.03948 299.68 1.89908L299.951 2.33746Z" fill="#FE00F7"/>
<path d="M293.699 128.52C289.526 140.374 288.362 142.244 284.775 150.969C277.684 168.213 265.601 194.687 265.601 194.687L264.695 175.663C264.695 175.663 263.97 163.315 264.695 155.459C265.516 146.556 266.476 137.426 269.157 128.52C270.757 123.205 271.189 123.191 273.619 117.296C273.907 116.597 276.236 111.769 278.081 108.316C279.988 104.749 280.652 102.439 283.241 99.3367C285.83 96.2348 289.237 92.6021 289.237 92.6021C289.237 92.6021 294.024 91.8078 296.07 92.602C297.18 93.0333 300.392 94.8473 300.392 101.582C300.392 108.316 297.872 116.666 293.699 128.52Z" fill="#FE00F7"/>
<path d="M76.9753 147.756C76.9753 147.756 71.9442 150.804 68.6805 152.69C58.5396 158.55 42.1371 166.67 42.1371 166.67C42.1371 166.67 51.002 157.667 57.2573 152.69C61.604 149.232 63.9283 147.613 68.7479 144.838C74.2659 141.662 77.6762 140.211 83.6112 137.888C91.2337 134.905 99.9097 127.012 103.519 131.309C103.519 131.309 104.361 133.697 102.136 135.925C100.562 137.501 96.0146 138.472 90.2471 141.178C85.0094 143.635 76.9753 147.756 76.9753 147.756Z" fill="#FE00F7"/>
<path d="M412.008 178.164C407.429 190.04 408.904 189.217 400.929 199.474C403.8 188.31 405.38 182.044 408.143 170.857C410.289 162.172 411.614 157.326 413.554 148.6C415.068 141.79 416.049 140.525 417.161 133.649C418.061 128.085 419.402 121.393 420.402 115.843C421.778 108.206 423.712 97.7125 425.257 93.5859C425.943 91.7538 429.168 91.8536 430.113 93.5862C432.541 98.0379 428.719 112.413 427.685 118.07C426.651 123.726 418.468 152.524 417.161 158.133C413.574 173.52 413.724 173.712 412.008 178.164Z" fill="#FE00F7"/>
<path fill-rule="evenodd" clip-rule="evenodd" d="M63.6425 74.9032C71.4918 78.4334 74.9964 87.6654 71.47 95.5233C68.8179 101.433 68.0382 104.193 67.242 107.011C66.8045 108.559 66.3621 110.125 65.6015 112.24C64.0546 116.542 62.8461 121.069 61.517 126.258C61.3919 126.746 61.2654 127.242 61.1371 127.745C60.7998 129.067 60.4507 130.435 60.0849 131.836C60.3762 131.666 60.6747 131.493 60.981 131.317C67.4399 127.598 71.6432 125.825 77.9382 123.361C78.7615 123.039 79.9305 122.45 81.7971 121.399C82.1375 121.208 82.532 120.983 82.9641 120.736C84.436 119.896 86.3444 118.807 88.0385 117.949C90.1073 116.902 93.7662 115.166 98.0035 114.63C103.051 113.991 110.195 115.021 115.445 121.272L117.267 123.441L118.21 126.114L103.519 131.309C118.21 126.114 118.213 126.122 118.216 126.13L118.221 126.146L118.233 126.179L118.256 126.246L118.303 126.385C118.335 126.481 118.367 126.58 118.4 126.685C118.465 126.894 118.532 127.122 118.598 127.369C118.73 127.86 118.862 128.436 118.974 129.086C119.193 130.373 119.346 132.046 119.197 133.984C118.878 138.115 117.2 142.904 113.153 146.955C110.89 149.22 108.424 150.488 107.173 151.089C105.766 151.766 104.304 152.328 103.276 152.717C102.905 152.857 102.546 152.992 102.196 153.124C100.329 153.825 98.7133 154.432 96.8594 155.301C94.4381 156.437 91.2738 158.005 88.6337 159.331C87.3312 159.985 86.1878 160.564 85.3708 160.98L84.5543 161.396L84.1788 161.623C83.6459 161.944 82.9012 162.392 82.0519 162.901C80.3731 163.907 78.2128 165.192 76.47 166.199C73.6548 167.826 70.4342 169.59 67.2304 171.301C69.626 174.07 72.049 176.939 74.2064 179.622C76.2337 182.142 78.0176 184.479 79.6641 186.637C79.7771 186.785 79.8894 186.932 80.0012 187.078C81.7664 189.39 83.4049 191.526 85.2681 193.81C86.6789 195.54 87.6768 196.829 88.6049 198.028C89.7408 199.496 90.7724 200.829 92.3288 202.669C94.7304 205.508 96.2966 206.902 97.119 207.424C97.5072 207.67 97.7158 207.755 98.3882 207.802C98.8663 207.835 99.5665 207.838 100.663 207.759C101.8 207.678 103.052 207.536 104.791 207.334C106.239 207.166 106.691 206.935 106.81 206.874C106.991 206.782 107.591 206.449 108.925 205.114C111.411 202.625 112.687 200.249 114.91 195.798C117.793 190.025 120.698 182.375 122.968 175.558C125.421 168.19 128.33 161.262 133.433 153.442C135.716 149.381 138.673 145.278 142.564 141.383C151.503 132.434 159.413 129.267 165.53 126.817L165.602 126.789C173.56 123.602 182.056 122.617 189.077 122.661C195.757 122.704 203.095 123.698 208.56 126.099C209.575 126.545 210.559 127.028 211.508 127.538C215.082 124.575 219.936 123.235 224.818 124.316C233.22 126.177 238.524 134.504 236.666 142.915C235.812 146.78 235.123 150.628 234.417 154.567C232.916 162.945 231.341 171.735 227.95 181.987C226.328 186.894 224.714 190.85 223.175 194.623C222.979 195.104 222.785 195.581 222.592 196.056C222.722 197.232 222.8 198.315 222.854 199.297C222.904 200.192 222.936 201.088 222.962 201.793C222.967 201.942 222.972 202.083 222.977 202.213C223.008 203.044 223.035 203.611 223.074 204.105C223.146 205.004 223.239 205.35 223.306 205.552C223.361 205.718 223.517 206.143 224.033 206.909C224.068 206.943 224.113 206.986 224.169 207.036C224.475 207.315 224.923 207.673 225.457 208.036C225.993 208.401 226.469 208.67 226.802 208.832C226.836 208.849 226.867 208.863 226.893 208.875C227.643 209.058 228.266 209.254 228.687 209.394C229.16 209.551 229.637 209.725 229.831 209.795C230.323 209.973 230.479 210.024 230.644 210.069C230.761 210.101 231.141 210.204 231.92 210.276C232.504 210.043 233.222 209.735 234.015 209.361C235.184 208.811 236.323 208.212 237.269 207.644C238.118 207.135 238.527 206.821 238.615 206.754C238.634 206.739 238.638 206.737 238.626 206.747C240.233 205.292 240.738 204.754 241.537 203.77C242.426 202.673 243.468 201.271 245.424 198.639C245.899 197.999 246.428 197.286 247.023 196.488L249.835 191.166L249.135 176.479L249.13 176.388L249.106 175.929C249.085 175.54 249.058 174.985 249.028 174.3C248.967 172.934 248.895 171.028 248.846 168.854C248.753 164.676 248.732 158.886 249.18 154.025C249.997 145.168 251.054 134.602 254.239 124.02C255.184 120.881 255.895 118.957 256.794 116.892C257.1 116.191 257.346 115.647 257.586 115.114C258.031 114.13 258.459 113.183 259.217 111.346C259.81 109.905 262.438 104.524 264.344 100.957C264.444 100.77 264.594 100.453 264.793 100.034C265.787 97.9367 267.998 93.2729 271.284 89.3356C272.78 87.5441 274.443 85.6789 275.675 84.3208C276.303 83.6282 276.845 83.039 277.232 82.62C277.426 82.4101 277.583 82.2419 277.693 82.1236L277.823 81.9842L277.876 81.9281C277.876 81.9278 277.878 81.9253 289.237 92.6021C286.689 77.214 286.691 77.2137 286.693 77.2134L286.721 77.2088L286.76 77.2024L286.86 77.1864C286.937 77.1743 287.033 77.1595 287.146 77.1426C287.371 77.1089 287.669 77.0663 288.025 77.0205C288.72 76.9307 289.705 76.819 290.825 76.7425C291.904 76.6687 293.357 76.6096 294.925 76.6889C296.226 76.7546 298.873 76.9603 301.704 78.0598C304.451 79.1263 308.325 81.3612 311.419 85.7934C314.529 90.2492 315.973 95.6688 315.973 101.582C315.973 111.441 312.398 122.332 308.394 133.705C305.242 142.659 303.571 146.563 301.622 151.118C300.882 152.849 300.101 154.674 299.183 156.906C295.548 165.746 290.679 176.846 286.76 185.645C284.792 190.064 283.048 193.939 281.796 196.711C281.674 196.981 281.556 197.24 281.444 197.489C281.52 198.163 281.617 198.9 281.738 199.667C281.99 201.26 282.313 202.774 282.698 204.036C283.027 205.118 283.286 205.629 283.341 205.739C283.356 205.768 283.356 205.769 283.34 205.745C285.067 208.314 285.804 209.136 286.221 209.51C286.354 209.628 286.418 209.665 286.47 209.693C286.532 209.727 286.767 209.846 287.306 209.992C287.972 210.172 288.287 210.218 288.388 210.227C288.387 210.227 288.385 210.227 288.383 210.227C288.363 210.227 288.362 210.229 288.388 210.227C288.416 210.23 288.428 210.23 288.426 210.229C288.424 210.229 288.411 210.227 288.388 210.227C288.474 210.222 288.845 210.184 289.754 209.959C289.835 209.92 290.056 209.803 290.418 209.542C291.092 209.055 291.905 208.319 292.804 207.341C293.682 206.384 294.472 205.383 295.169 204.452C295.42 204.117 295.603 203.867 295.805 203.592C295.916 203.44 296.033 203.281 296.17 203.095C296.324 202.886 296.55 202.58 296.789 202.274L296.802 202.257C296.96 202.055 297.521 201.335 298.272 200.579C299.346 199.498 305.023 193.095 311.065 185.156C314.502 180.64 317.475 176.369 319.692 172.78C319.693 172.775 319.694 172.771 319.695 172.767C320.426 170.223 321.26 167.323 322.354 164.801C323.969 161.08 326.12 157.952 328.783 154.292C331.184 150.989 332.977 148.59 334.837 146.487C336.688 144.395 338.447 142.783 340.306 141.08L340.568 140.84C342.888 138.713 346.32 136.318 349.829 134.299C353.366 132.265 358.177 129.916 363.327 128.67C368.27 127.473 373.036 127.082 376.364 126.957C378.076 126.892 379.524 126.894 380.576 126.914C381.104 126.924 381.538 126.938 381.862 126.952C382.024 126.958 382.16 126.965 382.266 126.97L382.403 126.977L382.456 126.98L382.492 126.983C382.494 126.983 382.496 126.983 381.556 142.552C383.903 127.132 383.904 127.133 383.905 127.133L383.913 127.134L383.959 127.141L384.063 127.157L384.407 127.212C384.695 127.258 385.096 127.325 385.586 127.409C386.561 127.577 387.917 127.823 389.452 128.135C392.275 128.708 396.623 129.686 400.296 131.074C400.778 131.256 401.248 131.437 401.705 131.616C401.73 131.467 401.755 131.314 401.78 131.157C402.389 127.394 403.231 122.917 403.994 118.856C404.387 116.767 404.759 114.788 405.068 113.075C405.756 109.259 406.616 104.544 407.51 100.228C408.329 96.2812 409.409 91.4712 410.668 88.1097C414.212 78.6489 423.186 76.5956 427.781 76.6526C432.476 76.7108 439.8 78.7976 443.788 86.1117C446.462 91.014 446.522 96.2853 446.482 98.7444C446.432 101.889 446.02 105.119 445.58 107.856C445.047 111.171 443.944 116.417 443.368 119.154C443.181 120.046 443.049 120.672 443.012 120.878C442.341 124.544 439.776 134.057 437.56 142.212C437.045 144.109 436.538 145.969 436.054 147.745C434.262 154.326 432.782 159.758 432.334 161.677C431.639 164.661 431.079 167.108 430.608 169.164C428.793 177.095 428.313 179.192 426.544 183.781C425.629 186.154 424.985 187.949 424.408 189.561C424.313 189.826 424.219 190.086 424.127 190.343C423.507 192.069 422.793 194.033 421.847 196.052C420.608 198.695 419.139 201.066 417.279 203.673C417.305 204.012 417.328 204.34 417.348 204.657C417.409 205.608 417.452 206.564 417.487 207.333C417.495 207.496 417.502 207.651 417.508 207.796C417.551 208.708 417.587 209.352 417.636 209.913C417.703 210.676 417.777 211.033 417.81 211.164C417.836 211.197 417.877 211.248 417.941 211.319C419.59 213.16 420.247 213.677 420.55 213.88L420.563 213.889C420.661 213.956 420.97 214.169 422.101 214.401C424.115 214.816 424.956 214.907 427.512 214.698C427.532 214.696 427.552 214.695 427.572 214.693C428.074 214.656 428.736 214.606 433.62 212.013C436.429 210.521 437.912 209.345 440.12 206.762C440.371 206.175 440.689 205.402 441.073 204.441C442.101 201.873 443.377 198.531 444.705 195.036C444.865 194.615 445.026 194.192 445.187 193.768C446.336 190.744 447.498 187.686 448.469 185.209C449.021 183.803 449.559 182.46 450.03 181.355C450.262 180.81 450.528 180.206 450.805 179.626L450.821 179.591C450.988 179.241 451.576 178.007 452.454 176.757C452.948 176.054 453.489 175.404 454.07 174.809C454.09 174.748 454.109 174.688 454.128 174.628C454.532 173.359 454.888 172.241 455.147 171.305C457.392 163.217 461.407 153.27 470.272 144.396C479.211 135.447 487.121 132.28 493.237 129.831L493.309 129.802C501.267 126.615 509.763 125.63 516.785 125.675C523.464 125.717 530.803 126.711 536.268 129.112C537.283 129.558 538.266 130.041 539.215 130.551C542.79 127.589 547.643 126.249 552.525 127.33C560.927 129.19 566.232 137.517 564.374 145.928C563.52 149.793 562.83 153.641 562.125 157.58C560.624 165.958 559.049 174.749 555.658 185.001C554.035 189.907 552.422 193.863 550.883 197.636C550.687 198.117 550.492 198.594 550.299 199.07C550.429 200.245 550.508 201.328 550.562 202.31C550.611 203.206 550.644 204.103 550.669 204.809C550.675 204.957 550.68 205.097 550.685 205.226C550.716 206.057 550.743 206.625 550.782 207.119C550.853 208.017 550.946 208.363 551.014 208.565C551.069 208.731 551.224 209.156 551.741 209.923C551.776 209.957 551.821 209.999 551.876 210.049C552.183 210.328 552.63 210.686 553.164 211.049C553.701 211.414 554.177 211.684 554.509 211.845C554.544 211.862 554.574 211.876 554.601 211.888C555.351 212.071 555.974 212.268 556.395 212.407C556.82 212.549 557.249 212.704 557.472 212.785L557.538 212.809C558.031 212.987 558.187 213.037 558.352 213.082C558.537 213.133 559.378 213.361 561.419 213.361C570.024 213.361 577 220.345 577 228.959C577 237.574 570.024 244.557 561.419 244.557C556.783 244.557 553.172 244.003 550.151 243.178C548.719 242.787 547.585 242.378 546.973 242.157L546.966 242.154C546.913 242.135 546.866 242.118 546.823 242.103C542.425 241.008 538.43 238.743 535.651 236.853C533.381 235.308 530.716 233.192 528.43 230.636C527.871 231.05 527.295 231.469 526.696 231.897C520.214 236.529 514.305 240.375 503.97 242.344C498.962 243.298 493.321 244.063 487.348 243.443C481.051 242.789 475.206 240.697 469.486 237.063C466.419 235.115 463.519 232.895 460.921 230.195C457.475 233.718 453.622 236.704 448.222 239.572C443.271 242.201 437.648 245.168 430.051 245.79C424.494 246.245 420.687 245.958 415.828 244.959C411.18 244.002 407.047 242.369 403.224 239.809C400.121 237.732 397.661 235.324 395.666 233.165C394.371 234.294 392.98 235.386 391.488 236.414C387.51 239.156 383.374 241.838 378.213 243.414C373.282 244.919 368.341 245.104 363.791 245.268C363.535 245.277 363.272 245.287 363.003 245.297C357.303 245.513 348.813 245.834 338.213 242.088C338.032 242.04 337.836 241.986 337.629 241.924C336.025 241.448 334.285 240.711 332.487 239.58C329.006 237.389 326.093 234.223 323.523 230.329C322.018 228.048 320.822 225.755 319.871 223.472C318.867 224.802 317.467 226.578 315.747 228.451C312.425 232.069 306.202 237.98 297.508 240.175C291.251 241.754 285.971 241.946 279.176 240.108C270.477 237.754 265.125 233.092 261.232 228.306C260.695 228.819 260.133 229.337 259.529 229.884C255.781 233.277 250.718 235.973 247.269 237.595C245.348 238.499 243.384 239.322 241.596 239.958C240.712 240.272 239.708 240.599 238.673 240.867C237.96 241.051 236.019 241.544 233.712 241.544C229.075 241.544 225.465 240.99 222.443 240.165C221.011 239.774 219.878 239.365 219.266 239.144L219.258 239.141C219.206 239.122 219.158 239.105 219.115 239.09C214.717 237.995 210.723 235.73 207.944 233.839C205.673 232.295 203.008 230.178 200.722 227.622C200.164 228.037 199.587 228.456 198.989 228.883C192.506 233.515 186.598 237.362 176.262 239.331C171.254 240.285 165.613 241.05 159.64 240.43C153.344 239.776 147.498 237.684 141.778 234.05C138.27 231.821 134.98 229.236 132.11 225.985C131.738 226.381 131.355 226.777 130.96 227.173C128.211 229.924 125.008 232.602 120.971 234.663C116.866 236.759 112.676 237.823 108.384 238.322C108.105 238.355 107.816 238.389 107.517 238.425C101.251 239.172 90.8969 240.407 80.4423 233.776C75.4633 230.619 71.4044 226.205 68.5484 222.829C66.9392 220.927 64.7307 218.111 63.0763 216.001C62.2333 214.927 61.5342 214.035 61.1315 213.541C58.9208 210.831 57.0143 208.342 55.2431 206.022L54.9506 205.639C53.2672 203.434 51.7053 201.388 49.9347 199.186C49.2467 198.331 48.5201 197.445 47.7676 196.54C46.3561 200.859 44.8894 205.195 43.5122 208.995C43.0335 210.316 42.5183 211.752 41.9878 213.231C40.9115 216.231 39.7724 219.406 38.7478 222.15C37.9723 224.226 37.1817 226.276 36.4447 228.024C35.9071 229.3 34.8182 231.863 33.3686 233.953C32.3132 235.475 30.984 237.012 29.421 238.377C28.0699 239.557 25.4401 241.589 21.7109 242.609C17.2772 243.823 10.247 243.634 4.894 237.912C0.778559 233.513 0.178153 228.293 0.04055 225.987C-0.29767 220.318 1.56389 214.824 2.50409 212.05L2.52567 211.986C2.93451 210.779 3.30444 209.728 3.64278 208.767C4.39275 206.636 4.98756 204.946 5.5072 202.979C6.04234 200.952 6.56281 198.948 7.08313 196.944C8.4621 191.634 9.84011 186.328 11.488 180.618C13.5272 173.552 14.9438 169.502 16.6245 164.696C17.365 162.579 18.1567 160.315 19.0756 157.583C20.2545 154.076 21.2429 151.174 22.1676 148.458C23.8434 143.537 25.3104 139.229 27.3252 133.049C28.6712 128.92 29.746 124.714 30.9687 119.929C31.0881 119.462 31.2089 118.989 31.3316 118.51C32.658 113.331 34.1816 107.514 36.2812 101.675C36.3032 101.614 36.3594 101.414 36.4503 101.092C37.0583 98.9331 39.2172 91.2689 43.0449 82.7393C46.5713 74.8814 55.7931 71.373 63.6425 74.9032ZM160.213 169.436C159.049 171.656 158.183 174.054 157.464 176.643C156.539 179.977 155.817 182.222 155.252 183.976C154.29 186.967 153.788 188.528 153.525 191.617C153.495 191.973 153.466 192.309 153.439 192.626C153.174 195.73 153.063 197.028 153.073 198.2C153.079 198.951 153.134 199.634 153.537 201.095C154.185 203.45 154.767 204.428 155.157 204.953C155.551 205.485 156.345 206.357 158.475 207.71C160.432 208.953 161.705 209.281 162.854 209.4C164.327 209.553 166.459 209.443 170.436 208.685C174.218 207.965 175.755 207.158 180.885 203.492C184.345 201.02 185.463 199.995 187.539 197.293C189.86 194.273 190.554 192.957 191.731 189.395L191.851 189.03L191.989 188.672C193.153 185.652 194.048 183.474 194.829 181.573C196.089 178.506 197.051 176.164 198.368 172.182C200.098 166.952 201.097 162.952 201.895 159.008C199.909 157.052 197.806 155.442 196.038 154.665C196.039 154.666 196.033 154.664 196.02 154.66C195.783 154.594 193.263 153.885 188.878 153.857C184.586 153.829 180.346 154.483 177.175 155.753C174.284 156.911 172.464 157.662 170.619 158.718C168.914 159.694 166.968 161.07 164.599 163.442C163.081 164.962 161.85 166.588 160.829 168.327C160.64 168.702 160.435 169.072 160.213 169.436ZM348.56 185.143C347.279 189.856 347.16 192.637 347.253 199.253C347.38 208.231 347.979 210.712 349.404 212.949C353.922 214.408 357.346 214.285 362.519 214.098L362.668 214.092C367.802 213.907 368.699 213.704 369.123 213.575L369.132 213.572C369.339 213.509 370.107 213.276 373.817 210.719C377.483 208.192 380.005 204.102 382.448 199.623C382.616 199.315 382.791 198.971 383.107 198.35L383.246 198.076C383.599 197.383 384.091 196.421 384.654 195.42C385.136 194.565 385.817 193.407 386.725 192.14C389.052 183.067 390.564 177.047 393.018 167.113C393.449 165.367 393.843 163.792 394.211 162.327C392.808 161.65 391.264 161.006 389.288 160.259C388.105 159.812 385.835 159.232 383.253 158.707C382.087 158.47 381.044 158.281 380.296 158.152C380.198 158.135 380.105 158.12 380.018 158.105C380.009 158.105 380.001 158.104 379.992 158.104C379.428 158.094 378.573 158.091 377.536 158.13C375.366 158.212 372.847 158.46 370.65 158.992C369.513 159.267 367.589 160.062 365.355 161.347C364.327 161.939 363.404 162.536 362.676 163.048C362.029 163.503 361.694 163.781 361.622 163.84C361.606 163.854 361.603 163.856 361.613 163.847C359.424 165.854 358.833 166.416 358.165 167.171C357.419 168.014 356.429 169.278 353.975 172.652C353.86 172.811 353.749 172.964 353.642 173.112C353.513 173.801 353.335 174.488 353.107 175.171C352.05 178.348 350.45 181.737 348.56 185.143ZM529.603 162.021C527.617 160.065 525.514 158.455 523.746 157.678C523.747 157.679 523.741 157.677 523.727 157.673C523.491 157.607 520.97 156.898 516.586 156.87C512.294 156.843 508.054 157.497 504.883 158.767C501.992 159.924 500.172 160.675 498.326 161.732C496.622 162.707 494.675 164.084 492.307 166.455C488.583 170.183 486.59 174.547 485.172 179.656C484.247 182.99 483.524 185.235 482.96 186.989C481.998 189.981 481.496 191.541 481.233 194.63C481.202 194.986 481.174 195.322 481.147 195.638C480.882 198.743 480.771 200.041 480.781 201.213C480.787 201.964 480.842 202.647 481.244 204.108C481.892 206.463 482.475 207.441 482.864 207.966C483.259 208.499 484.053 209.37 486.183 210.723C488.14 211.967 489.413 212.294 490.562 212.413C492.034 212.566 494.166 212.456 498.144 211.698C501.926 210.978 503.462 210.171 508.592 206.505C512.052 204.033 513.171 203.008 515.247 200.306C517.567 197.286 518.262 195.97 519.438 192.408L519.558 192.044L519.696 191.686C520.861 188.666 521.756 186.487 522.537 184.587C523.796 181.52 524.758 179.178 526.075 175.196C527.805 169.965 528.805 165.966 529.603 162.021ZM417.777 211.117C417.774 211.112 417.777 211.115 417.783 211.126C417.78 211.122 417.778 211.119 417.777 211.117ZM381.556 142.552L383.905 127.133L383.203 127.026L382.497 126.983L381.556 142.552ZM289.237 92.6021L286.693 77.2134L281.488 78.077L277.876 81.9281L289.237 92.6021Z" fill="#FE00F7"/>
</svg>
